<mxfile host="65bd71144e">
    <diagram id="jcBbKffZP3RXxtK-Pg38" name="ページ1">
        <mxGraphModel dx="320" dy="779" grid="1" gridSize="5" guides="1" tooltips="1" connect="1" arrows="1" fold="1" page="1" pageScale="1" pageWidth="1100" pageHeight="850" background="none" math="0" shadow="0">
            <root>
                <mxCell id="0"/>
                <mxCell id="1" parent="0"/>
                <mxCell id="40" value="" style="shape=image;verticalLabelPosition=bottom;labelBackgroundColor=default;verticalAlign=top;aspect=fixed;imageAspect=0;image=data:image/png,iVBORw0KGgoAAAANSUhEUgAAAmgAAAIKCAIAAAAYsSRPAAAAAXNSR0IArs4c6QAAAARnQU1BAACxjwv8YQUAAAAJcEhZcwAADsMAAA7DAcdvqGQAAGSuSURBVHhe7d15kGRXfSf6rqruqt671epW71oAI4kRkgwYAZJACyCDQRLCBpvFfvEi5s3gNzHz4kVMhG2MhhfxxvOH/d+MJ2IWj8dhz4xtGGaMJDyWWoCAhxEgoaWlXtVqSb1JQkt3V2+1vu8535O/PHnukvdmZWXW8v1E9q1zfvfcc5eqPr88N7OyBqYnJpaIiIhINZ0nztffeH3ZsmWjZ86gkxASERGZS6YmJzdt2jS8bFmod0O9xPnmyTcPHjr00ksvbdiwYdu2bSMjI4ODg2FdEJLoQC+SaXMfPdkd9H6PJuyv5/vNyj+COXBg1ZUd67w6kaw2Rz/Pzy7XjE5pIV6Q2dDNy9TLaz4wMIjdYY534cKFw4cPX7Jx084dO8K6GaiaOF9/441jx48/8eQTS5cOLV26dMBDYe3atSiERqkal6fCpWzTorSHSkfS7hg67qT0yPJXFm5Stz3VPSro0ibQZivo3obtN4EOTs10vG3H52g6O1kzk7OmGR4AdaWTXDO/wlX0Zi/Uy31B3u4Qmu7tHqFru5uenh4exlRzGVIVCkiiK1euHBu7cPbM2a2bN4dGHWmfOJEyT7x84tEfPzo0tBRHgCkmcqc75XB2s3VNSxRcbhFJLK7/KgtlZOj/aSyYMXZkZPm6deuWL1+O3AkbNmxYsWLFxMTEyMjIqZOnOk6fbRLnweeee+KpJ0dHR4eGkC+XDg0hZYqIiMwD/t7owODg0MjI8Nq1a5lEN2y4mNPQU2+e3LplS2haR1niPHDw4M+efGJ09LTf64ifszdNt9RERETmFkydmTu9QcwAN23atH79euROJDUk0dOnMO+snTsLE+f+gwd+9sQTp0+fQtZcvnzEp8lmqlTWFBGRuc/fdkbWbGbQ4eHhyy+/4qKLLsKkc82atWfPnKl7zzY/ce7Zt+/Jp546derNoSFkzeWNNJmTLZVBRURk/nBJCxPCnTt3bt68GQlu9erVYxfGauXO/MR59Nix+x64H7PaFStWhFBGSTYVERHpu2yemppCeZq3bS+5ZPPFF1+8ffv2c+fObdxw8ZrVq0OjdnIS57N79nz3e99FQl61alUIhdmu++qX7iD8AU1rxikiInMY85Rlq+k4d2JyuGHDxddff/3ePXtvfP/72aKtnMT50tGj9z9w37AzgmpryjQ8kFAQERGZayxl+rTZzKBTU1MouPfbOgNXXHHFmjVr3/aWt1acdCaf+7Nk7759D3zrAXSHtImqZU3/ymp4MOKjoSAiIjLHuMzVypKoy52TkxP03HOHli9f8ezePWzUVjrjPHL06H0P3Ld06VL0Yjkys2/suPE1FEREROYam2WmfOKcQnZzb7QdcB9UsHXr1ve++z0XX3wxtyyRJs4/+4s/Hxu7sHz58ihb5iROsNzJLyIiInNKa9ZEaQpfptzCfZ2YmPQpzOW4wcGhdevW/fJH71i/bh23LZHeqh0bG+NtX/TlA3HWbMmfudlURERk7kkyFhKn+4d5p5t5Trrbtm+++eaZs2fC+lItifPosWPoaGiomTX9krIRERGR+ctPPH3uxOxzfHz8lVdeCWtKtSTOs2fPDjlLMZvMTCh1S1ZEROa1OLGF27hTU3y9071TyP+F6fZaEueKFSuQNgcHB/z92ezkErtR+hQRkXkjejtOM4U1ggONG7Z4IHVOHjhwgCvKtSTOBt2PFRGRRaSRSivJTZwiIiKST4lTRESkBiVOERGRGlo+AOHI0aO7vv3w0qVLh4YG+SuiCJb8vqZfX+fGcE1PPPEEljiSwcGWg7j++utDSURE5gkO6e7dp428MjAw+M53XsPybOB7f9zXCN9Gi68TE+6dtL7swmi4YcOG//23/rewcbG5lTifeuopLLnfuJBl1x2uu+66UBIRkTnjpz99DEvLlJwCWRVZE0tGbIk2V199tQ93AXKIzyMunZmZJ865cqv2SS9UakK6ZcYVEZG5ACnTsiYjRbIN9uyp+mHr/dL/xJmkTOT9UCrlnyA0J6bQcd4VEZFu+clPfsqUGbPhOitZhekflsidczl99jlxdjHb4eo//vjP8Ah1ERHpIaRMPOIZpJXbzjtzzdn02bfE+YSHQvx0o+RZifG3p8MjFlY3vnmhIiIis+/HP/4JC/GAnC0Qq9PTU63VljbmmWeexSNU5ob+JE6mTKr4TMSSZahHbBUxaN9FERGZVRxvbfgtkjuAE7fl0oZ0Pvz6Jbt3P8PCXNCHxDnDu6kuNzbwsprQouHRRx8NJRERmR0VR9rsEA3+vayV5p3QxdzZ0Z3jpl4nzpKsWXS94icd8ZXFMmtqKnwPSLlTRGT2/OhHP8LSkp/hgBwXjMVZBUufvm0T15rOXiidDT1NnEnWzF6FcLUy1wssbstY0oAFERGZPT/84d/brIY4/IJVWTBsz3iytij7EiOz/V6hoaGhUCrVuw9AeOyxxy1TNv5yWWAXxWDt6dOjKGDZeEYzPTw8fP31169Zs3rVqlWMsBMWrJOoEL4NN9xwAwsiItIVP/jB/+fG8YEB5IsQckN3y2SMDVg4c+YMlrt2PTw1NcUghvT3vOc9a9asWrNmjW8eNufamEWYO6666ipW20I28BkBiyaf3XAUOR+AsGnTpt/6whfDxsX6kDjtwyN8OOC+aHT0DC7u+Pg4q1yFpbtgja2QO9///vetXr2aVWq0bD5tYQTn8oEPvJ8RERGZoe9//wcckCGeCGUTJ5Yvv/zKI488YpFBvwHLtlyxYsWdd37CV8PamEVsXxVzJzKAzwJYNM08cfboVm38+7A4yFDKQMr8xjf+5wMPfMuyJizz7rzzk7feesvKlSvxJAVBPHlBcn3ooV1sAzjvUGpghNcET44YFBGRGXKjagOrjBtOYEZHR//H//ifljWB4/nKlStuv/02jOcoM3727Nmvf/0bx4+/bDOfuM9sub+/39mLGadlTT5TwJKTTmIQ+0LKPHfuHPaOKp6SIEHiymJO6Z5g+Gcx9lwDy2PHjn/nO99BGc8Xbrrppi1bNrvD9Vech01M0n7V9E033cigiIh07Lvf/e7g4JCNxhiuOaQzQqOjZx988MHJyUkLYjzfsmULCohw2sk4HT9+HLNYjv/vf//7t27dgkE77hD8Zs1IlY+0RTZAP40kEPjsVjTjvOS3vvCFsHGxHs04S/gjnv7a1/47siYjeA5yxx0fxRQzuRMb27Zt6+c+9xuYg6L8ve9978SJlxlHVyzgUoSr0RA/6xERkZnAoGoFm6IwAvfffz9yEssY0j/5yU8waxbZunXrr/7qr/LFzh/+8Iejo6eZNeM+gTuiPv5mZx8Sp11lwtX567/++vnz51m9+eab7r77rpKUCeiBVxPX+vOf/zyepCB3njlzhmuZMlFgG2ssIiIz9PDD38bSz8+aUxNE4lEdQzqD8IlP/MqnP31P5v0ozXeixG677dYbbngvCvff/y1GwLoijvDx7npv1hNn/Oqmv8LhbO3Mjx07YVlzxYoVeFaSTM9LsLfPfvYzWH7zm/eNjp61q8l9Jb79bXd3V0REOoZhtqH5eqSr+OH3a1/77zbXvOWWW/hyG6sxG6sBZasiBdx++20o/OVf/hUjhnuBUO+f/sw47cxHR888+OCDLA8PD99zz6d4iZMLXfT0xNx55yexvO+++7Bk/xCV3ZMjVJO76iIi0gHLc2GI9VB9+eVXx8bGuOq2227burV5e5YNYnHuNGiGXHvjjR8YHx//2te+bsF4c6v2625tjxInz5Pi6gMPhPn40NDQZz7zayxT7pOUsFkDrrtPiu5Cf+QjH56cnEQmDk0bqs9fRUSkxK5dD2OJIRdLP/xCc/oJDz30EJZYi4nQli2bUbAROHcoRidRDm7OXzHvXLly5blz506fPs1gb1RMF7ObOLN/lc3w4l64cAFXE2XOzQHV3OvrsmRmas/vGaq80Mi+3/zmN9nAsAFhE92tFRHpIhuHX3nl1UZk+td//bMsk43qucO7wYbsCvjeT5tczSlp4qyYbyviVYBQ90JoevrEiZd9lnS73Lp1G5asklXdNq6cvn056+677+KkE52jyiXFZRER6YyNruBnL2FoReH73/8+y/bbmTaSt1YH8WAkO6pb49WrV6Mfe7m0SF/u1vbuNU53gVvZVV6+fISFInaV7ZoadsUCI3/zN3/DgoiIdMtDD+1KBltyQ7C/y2ofXHPbbe4OYna4jiFlMmsmuTPu/I47Porq6Kj7+NUicfue6UXidFc1XG48Pwl3sc+cOcPfjYVbb70VEcuOlHvR42tkXQHjeIYyNDTU2qZZju/0iohIxxpDeniFEoVXXnkVS4rfE9RWo4fmeA7oBEt+LPl9993vYwF3YUK0t2Y3ccYnZtcFBXe1/cVi4tyyZStXxbkzviLclptgyQLEbWhwMPTg9+zW+t3FXaWbiIhIRX5k5dAalhyTf/CDH/g10xiEsfRtU3GcW9lgXoSfJUS++zbte6M3M84w0eRpE2pcG7NmjWqzDVfZVWa1SLwhccNsXEREqsD4mQyhrMZLSu4XZrZq3nqkZOQ3ST8J9pN01RuznjjtrOyiVHyiUSJ7pXh97SpjXx4va9gXClwrIiKd8UNrwGq8hKmpGpmMo3SoeDaYs8A+42YsR9U+DOyzfavWnVs470a+zGLjXHGDRm8tVxnsQmM56PmwiIjMCg7LtkwKWbbKGmAkjwdziyf8dvmr+qjXOSb3EoyOul9xLbmIVm17oRtzThER6SYMuWRVW8ayEWObJG2Samx8fNzWZnNtyYazarZnnE480bRg3OAb3/gfKMe/3MPpYwnrgdys3hsbc++H5vVl50W7FhGRDthAaku4/fbbWfC/TD8aRuSI3zSwKjdh2bA9nDhxAtWlS5dmm1k1iffG7CbO3HuzXLVy5YqhoaEpz4KE6xVKBeL2vL6AMq8y/9J1VrIXERGphSM2yxxRbVyNB9j/9t/+MpQKlIzGYUD3Qzp/1/+mm27ya5p7LNm8N2b9Vm3JGfLXN8E/Q5npBxLiQv+v//V3KNgTH5TjtI0qlyIi0jFLnzauAuZCGIRZtuTK/Fdd3B7l8+cvoLetWzezWwS57LtevMbJc86yVSh87Wtft8+PYCTBoG9eeOHGx8dxrVesWI4yJ7uMU8mGIiJS7o47PhpKXpw76Y477ggl/xE3uVnT2ruhvHVMZnu+ZocH7yCOjIzYSM5NwMooXH/99X5lT836a5xcspBYtWolP+gH8D04fvw444zELM5Crn//7/8DljfffDOWyYVmgZEPf/h2FkREpC4OqoCy5U7ipIX+4i/+i31UXljtWdVWsZBk2dHR09/61t+iwGydTIRsq36Z3cR5440f4Bm669SKDT7ykY+wAPff/0DRDdt4E0qqf/In/4nfwo0bL8aS7cGvDI3jiIiI1PWxj/1yKDXGVbsryyo/6IdZMPeVThuE3XDcGJltae8P5V+xHh4eXrVqlW/oMH3GD2D7HuvFa5w8N5w1I8QgJp2cIxIuVvlfX2NvEOoesiY/Qf/jH/84IyZpnGwoIiJ12bjKpeVOuPPOT9qfRkH8P/yH/8hyzDZnmQUzODjwp3/6pygMDQ19+tP3sDEgwmWsL/dpYdYT5803uzdEMWsmuZM2b74kfh/sX/3VXx8/fpxXynBVqETXbnR09D/+xz9h1rz11ltXrlyBQmjk+VYhgkJyj15ERGqxcTUW585PfvIT9ik0iGNic/z4CQ7CBquyBRgdPY0hfXJyEuXPfvbXGokjn9+iP2Y9cZYIZz89jQuNJxchumTJt771t3/6p/8Z1zrUW6+s+U//6U//y3/5r7zEt9xyi92k9StbrrVFWBARkc78yq98PB5Ls+PqwMDA3XffZa9ZInd+61vf+vM//wtWKbsVZkH/+T//2V/+5V9xSL/rrjsZR+5EY/LVUGCZhd4bmI7+TOiRo0cf/s7DQ0NLh4YG7fZx3hujAp4IyyUeeeSRUIrYvWzzzW/eNzY25vbagKctuPof+9gvr/ZQ5o3cv/7rr2HJ6wtLly791Kfu5iaMWAGs/NGPNl9PFRGRztx//wPMi5YdWeBEk+Vz587t2vXwxMQEqozA8PDwhz/8YRS2bNmMJd89NDp65uGHXUvXwneCqdSqVStR5oZMFo1yc/nud78Ly3IY/n0KcNnB+OyGhD41MTGJ/aLAMBpecsklv/n5L4SNi/UicQJyJ3qzy0fZ3PnKK6/+8Ic/jNMnglgmGxrMU++44w67Q8ugbcWqUeIUEZm5KomTy9dee/173/te3IzleEkcsW+55ZbNmy9h3H5BsdE4dE4o9zFxpqlrlnzoQx8KpVKbNl18112f/OAHPxjqxZAyP/axj919913ImjjjEFXWFBGZZZ/4xK8UjbSJjRsvvueeT9nbhUpwSL/kkk3ok90inXEVIz6xNV9JrZI1Z0+PZpzw3e9+l08TDJ5BxBeCuFPs/cyZs/CDH/xgcnISQT6Xuemmm1audFN4zjLB+uSGVmgcvFurrCki0l0PPPAtG35ZyM44rQG4Af3suR//+Mdurjc1hUyJtbfddhtWrV7tRvXBQRchv0XL5pyAss0v/dJ7GGwLecDnAiyaZj7j7F3ihGzuTHCPYHu3CMRlYx3G7ZOWejOtiEjX8TMKyIZipE+Wk9E+rlqZBSZFlJEXLRgXgOWlS5e+972/xEgVSAU+HWDRNPPE2aNbtXTLLbeEUpThYjh+PsDaWLNsGVg1IRpR1hQRmQ0f//jHbNSNR2AW4ghYkMu4ijEfS1aJVWKVy1pZc/b0NHFC9sVOS5bxtbNlXIghmIjjKOBJBJbKmiIisyf72ykce/1I7OJcUlw2DGL89/AllIy14XIuyEmc0eR4VsS505Il+avUcpmqVCmuKmuKiPRMMhRjBLb0ySX59S2NE8kqVm15440f8OH+6/WMk5g77XJk2VorlFSJVRN/pqKIiMwSTDo576QQbUxgQrQxblvBlia66egmnSwTqjfddGOozAH9SZxwixdfHSujELMIC1jy++Gf0zgoWxAw0VTWFBHpJeTOUIoGcxuWwYLxYI4l+TVOXAZUb775Jn5069zRt8RJt9/u3osMvFju+rVeQbIqlvxOxN8PlFlFytTtWRGRvrCpJ8p+5G6O2Alrwyo0GrdE5mDKpD4nTkDuZPrMXkRjlz77PbCWmmWKiPQdcufHP/6xUPHczMYP3cnADohkg/DBD96MR6jMPf1PnPThD9/+kY+4zzDM4hXnMhdSprKmiMjcgdxp6XPQY7koU8YqftJcH+V8AMLSpUtxknxzMIIlb7L169tcgpn427/9X6Hk+aNy6VNpUkRk3vm7v3uQBX6agX2+QdGsaeaQpHwic+nM+OzmJsHd/OSguZM4RUREOlY/cW7+zc9/PmxcbK7cqhUREZkXlDhFRERqUOIUERGpQYlTRESkhjRx+vf7iIiISD7NOEVERJyKf+NEiVNERKQGJU4REZEalDhFRERqUOIUERGpQYlTRETEma72iyVKnCIiIjUocYqIiNSgxCkiIlKDEqeIiEgNSpwiIiI1KHGKiIjUoMQpIiJSgxKniIgIVfqUdyVOERGRGpQ4RUREHP1ZMRERke5T4hQREalBiVNERKQGJU4REZEalDhFRERqUOIUERGpQYlTRESkBiVOERGRGpQ4RUREalDiFBERqUGJU0REpAYlThERkRqUOEVERGpQ4hQREalBiVNERKQGJU4REZEalDhFRERqUOIUERGpQYlTRESkBiVOERERGghfSylxioiI1KDEKSIiUoMSp4iISA1KnCIiIs5ApZc4cxLndMVXR0VERBYhzThFRERqUOIUERGpQYlTRESkBiVOERGRGpQ4RUREalDiFBERqUGJU0REFq+Kv7sZU+IUERGpQYlTRESkBiVOERGRGpQ4RUREalDiFBGRxWt6OhSqU+IUEZHFS++qFRERmV1KnCIiIjUocYqIiNSgxCkiIlKDEqeIiAhVeqeQEqeIiEgNSpwiIiI1KHGKiIg4FX+nU4lTRESkBiVOERGRGpQ4RUREalDiFBERqUGJU0REpAYlThERkRqUOEVERGpQ4hQREalBiVNERKQGJU4REVlcpluFaGVKnCIiIjW0JM6Bip/TJyIislhpxikiIlLD0FfvvTcUlyw5ffr0oecPDQ0NYeppd337Pgvt4Ab0/GITfZypv/IL/HxFRHoDo6kfUbEILAhTU3hMIcC2+LdmzZqdO3auWL7cRwp1ecbJo+mu0PXCFc4zfEcX/vmKiPSLDbZF3v+BD4RSMd2qFRERCU6dPh1KxebBrVpawFMx3aoVEYlxJLTxkIOkRSrGi/gmaNi8VduwZPXq1bt2PfwrH/vYxo0b2ThXpRln6LOCsEH3hH5noee5I5xh45vJoIjIopWMh258jCJcshBHuGShCBsUYca959d+jdUic+hWbfaU2p6kiIhIFw0ODo6Oju7duzfU8wxMT0yE4pIlR48de+jhh5YtGx4cHMAclnkLCbgogflwYW6bjbSHo+Kx2bJinNW5aX4drYjIbLORnOMhB0mLVIwDspDPRC6dGbTBAv8mJiYnJiZcIESWbNu27Xd+53ex4erVq/fs3s1OsmZlxukOrXtZkxcCSyskwSrxuWx+Ha2IyAJQlKcGvDNnzoR6nvaJs4spsANKJyIii00y8qMQRyrGWWUK81kyrC3HxIlCyd3aslu1/u1G7lZtEX9YlQ4li6fUF5iSh1LDwEDZE4hs+27p135FREqUDE39Gg875vMl86ZLOlgi+7jF1NTExCT4sotg/bZt2373d3+PG65Zs+aZp55iOTErByoiIjIPccLpjI6OhlhGmjirzWUdZu8O+LlsF6abRU98SuJ8hHo7ddt3S7/2KyIS4yhkywUwLmXTVkkiQ+4sulvb4Yyzs6zZrZQpIiILzBzJypxuAspvvPkmg4n5fas2udBWLYoX6dc3rF/7FREpgaGJo1O8nG2z9BpnLXxPT8icAwP/+Ld/24dTnRxo3ekmJ5pdnGvaN9XKFmkbLxK35yOsmGXJTvEIK0REFpO5MwYix9GpU6dCqFU2cbZJb+grlGYTr50tk4dvIiIiC1B/B/ww2fRQzX2Zc37fqhURkYXNcicLtsyNd92efftCKZL+HueDux4cGRlBpp2cxGG5ySWSbtEs04dndA8WpzowMGjLEK2mN3NfERHpGc7zugVZAplicND91ZSISz38Pc4JlwFdFkME8e3bt3/5y78fNvbWrVv3xGOPhUpDH2acTJD+KJtPE7gUEZHFzKW1qGDVOaU/t2rnVJqs+40pat+tforM9n4VJ8VJcZrteJG67YvMteOpAvvi7uLlTLjZZXRntFaHue8P6vBWLQ+CJ+UDlZTny5lfnZn3ICIifWS3ajGez/C2LTZHTvB5wS18h27p85e7V1t0qzbZ72M/+clF69eHitejGac/psKs6U9sRtDDzDsREZG+iwfz3g/szJpYmpdPnOAq00nijOe8VZSnTF6XDq4Ot6UQ6kjR5oqT4qQ4KU7diheZ78fTMXaYLFmoq+JWSTNW3S49lLOfH9T+Vi168MsmS5zsn2VCjozfJZv7Xll0i/4bnZep0qac7aviHkVEZFZhNA6l+spHchvtQ92lAGaBUEAAQd6YBaQ5/iFrvzbcqv393/8K2sSd7Ny587sPPxwqXs6ME136HYQyCyX8/sKD1WRprOcq3XaA/ccYtKWIiPSXH5vzhRbFyttwre/JYRB8LSSjJJ4UACkzzpowmMn0LYnTvfEor1PCSj5C3TUIybItdJX0RowXsTYsGK7NCqsrYON4SXXjsSrtZzseq9JecVKcFKf5Eo9Vb18Upyrt40i2/UygtyKhRR0dbZUzGz558mQoNczKm4N4uLZkoQO2LQuGa6vjJrZhXLUldRC3oGE1WdJsx2NV2itOipPiNF/iBkHDahIkC1qbBNdSNkIM5q6itg060/UOq8jOPqlS4kwmmpQ718S58fTiZcKCuWury25uO00kq1zTSDZCVeKuu6hn4iqTjZDipDgpTvMlXqQv/TCIZbI2joNF4kLM2thai3DJgonjpiie5bqIGrNawm+UCus6ZT2UdJXNnZ3MOO0OrT/sFmxQxNpYgVjNFVp4IdRQFPFt22B7SqqmStz1ldkpV5lshBQnxUlxmhdxBrEkBimpGrYkVuMluXYNSdXkxhl0XXhxJDceF2LWJpaNx5Gi9lWgJRvbkvzKqso3KV+bZSnS5prZrAmzcqs2q+joi+IxtoFQr4/bshNifOasN1uyICILWPz/HRhsK7RuHTGSeGe4LTuBOJIbL2JtYtl4HClqz0JnuDmwzGA5a19soOI7csBSphV8uKnl11FeOnLkoYcf4q+j+NuzbjfYJLlPa7v38fRY255n2wamqCXiOEIuQ8izeKgXw5EPDrpztCWDWDLiWxWy9nEh6YeycUb8yi5I+o93JCKzJP5/ByzbksEsa0/xVkmE1ba4YUk/SZwsHurF/fRYNj+VK2/PtcgGPi+wMMUEwTIknxyEjXbs2BH/OgqXK1eufPLxx1EwXZ5xuiPqBn9unXSVuxV/ROwHJa7aMllbztrHhbhqsvGkwQwl/VtBRGZP/N/NyrYsYu35YCSOW6SiZCtWk0gc58PiJomzWuVhm+RuxfjsKU8T8dqSZrmSlDy8bFkoNdSbccZT3cZRVTqyorWI8ykAlyHawHiotNtFovzb5p961P5DZiIiYB/wwmrFkcTak41CdfvJyvZjkYr9Jy27petz2SSlJbJrkTR8HnEFV/M5BUeCk8W/3BnnV75yL5rGXa1ft+4njz4aKl7hZUI3LORmIFsLKMdVYCQWVnhWZSFeZiFuQqhxSNkDQ8QeIeTxx8VfqfCwoIhIXTaG2HhShbW3rWxpkc5k+0mWFi+StKz4KN8Ea200tmXJAw3aslwQZwRja3NxFSeEVu1MjecXvBBd4c+u84POVX7dax08jy17hPMlXqRuP4qT4qQ4dSteZLb76aLycdXWstDdDGLLLMSNRVioKJm5ZieyOYkz3l+7bNRsabIRk9u+K7LHiW+SPUIowiMpwgbZZvMlXqRuP4qT4qQ4dSteZLb7yWWNs2YStxHYlrkDMnHeyQertpxVdsBFZ7Ri5cpQaiibcdoRx2eLrtl7dh+2KsE4hHoGV1kD39ZhlXg1+WA1Dvom2DBkSjtaYlfskxivq+6GRe1nO15Xv45TcVKcFmq8rm71X6s9G2OZsLVZRasszkJWMlDHS5M7zrMa4x4NI1xFSTWRuzY7vxweHg6lhg5fCo73l3u4nUEnXeknK7fbon3VPYZZOuaOdeu8RGTmZvv/3ayOV+WNi9Yybmtr7bGXsjky129/6Uuh1FAvcZZfporixiizGgdN/HSDkbqs/4QF2SAxr+MIJsKKWd4vKE6Kk+IUx1FmNQ4milZ1Mc5VLJhsZOb8DptHwoJfE+RON8tZXmC1rdz9Um6wig5nnOXioyk5sioH3fWUCYwXrZ3v7OwM4yLSd/Zfsr//Me0YDOO5itaWb5Wr3Y7ap8/yjMD+sTSM15EzB736yitDqaElccZ74nt2cSZ2MrYqLlgZWIWiMlnEbeMlzyBQ4INVYwfDQlL2jya/RcAq48BgB4q2nWvxIv06HsVJcVK8XF+OB8EicYO4pcWtkGA8q3RVGMxZtmUiSRlt2R5ZqL4hXXXVVaHU0PIBCC++9BI/AAG9+9TljnjA/epoczfxEfhis8pCVskqwr7467Gh3oCj4K/lhno72R3l7rrt8cxHA41PkGAhvne/IM9XZD7if0z+D+3jf8zsKAF2VEm867L9V9xv289nyPuABV5nPFAIqQSZDTvkR+4B4mjC5c6dl37lK1/h8bDxihUrnn7iCZZNd94cFFcT2VWWIH1uDjPLbNak3KzJPm1p/Mr8SBxnsAMz2TZWt5+i9nHcyixgaRgvUdRGcVKcFKe68RjasFlJ45JVtbTdBZax3HgcxJKFOMJlLBtJFG1SYcOqk6jqMrsO+RtLyn7eHnT/NU4cQYxBy5GWJlkgXg6f8FseXGtCj9F5cmn8ypaIyY0zmF2VRFClorLxzZubWyHLN3dYtiAL5Nc7JWVWWTDZCDEeb0gqk8qkMnWrbBAsERrl9ePXh4JVTVEcECSWLchCIjceb4slC3GEy1g2Am6bSByM1zKeFVa7BmmawCOsa000TDHJ5sBqNl5kzdq1oRRpnzitd9tTbsRwVYwnYOw849OOT96EHhtCNBM3JWtLtspKGvteHZbjJVmErBwHE/FWRe1RJZbjJblGma0gG8nl+3BYjpekOClOilNncRZKsA2wnCyz1URuPN7EGhT1kMu2NUVxkxv3GzXFwXgt41lhdeEe0wxKceop2ratf/ZP/2koRdLXOB/c9dDw8DLMT33G5nGEE/PlUGgs8Sg7VpObFw16wx6zJ1YULxK3TMq1+pmPFvwJikjPcDzBMtS7JOmQ1dwd8QCszAIwnm1P2RdBG/3ggU1ch6giSaEDJLjJyamJiQmfdBFHkhrYuXPnvff+C25LB/buDaVIm8TpD7GZhFiwqs+RrpybLClOmb635mlbP4miOJSsgmRteWPAYdubkpKCLdnMtW5l7RPZfhiPxRtm29tWcTNj7SlpHxfiatwyiSfYIFQiipPipDh1HGfBloiUtLcGLCSy/VjBr3dyGyQYz12bHbfjSKIoHitqULJhB6uYR/3xuJovuoPHOSIyk8RZeKvW7cHvw5a5VRwBHigYfxDNRyMY2tuSBYqDwCCwzCAxTlblKsitAo+Qhxo/cHhcWhsr2NLiwJZJe8iNxz0kj/L2XFocctsDIkn7uBBXWWZ7Li0OJf3bUnHFFafO4mRxFmyZbR/3Yw1YSB5Fzer2g5ZYJmtRBazjkoUkkiiKg9/UiavZOLBsSxasnGC8aG2JtptcdtllodRq6Kv3ur89RidPnXru0KGhoSEkcHeMpUcJ0WXF9wZlPlrEnRR1mChpVt5DshaHh4B/4PBwRu4g/amFo2X7xlYukvtA+7iltS+Kt31UbN+2/2yk/JH0U/e8FFdc8RnEXQLD16JHST8sFD2KGiT9tH3ELW0OhxgeqEbDafpg47iBbV6kvEHu2irBTBt3UggijKPyp+ZCtvTH7M4XZb8cWLdu3Xe+811fdb78e793deaXOCG9Vft3Dz04MuI+0BY9cnrid9ncE5dY45fMQAFX5cpdVbc9laziUZnGz5PbBFeOS1YZFxGRLA6VJn7t0MZVaPuLlYnsreB4ZC6SXZsbyfbjgzhg7NfVcOz4gmY+iLL7Q9bx73GiTXKrNvc+LbSctk+Ege+3WYiXSX4CxLkqxki8imXDILDMICVxLsmvaYHj4YNVfxX4CHyw2Ylv5STBuGBLFrLaxllw22ewAVmVBVuyYKrHLcIlC1mKk+KkOM3xOKtYlsetYKzKVbnitWwMjbINqi05Io5XeXCUjkdsdNHoqsn1HglRL4mwCnHZxG2yDRjJxpFuB711eb+IQmXPF5JdxjtoXIggRBsskl2V8Funnceya+2i2yOscM3yj4plC7IAtipbsCULVKvMApa52AaszIItWSCrWoGsagUrQxIHlUllUpn6VY5V3JZVK5BVkwL49Y6VGc8Vr2VjsDLjMQtmGzCSxSE6VDKDeYhGXbHMIFmcWIW4bNgG2LkF41VZNm398pe/zEJWy63awy+88NDDu3irdnISzw5cEkIn8c4aR+BO3pfDEZQcSrIq2xIRTrRDvQH929Se+6X40sfKd8S9sMCIiIgkLHOYOBKPn9mW5TjOx1thdofxPHvLN3tTl3L3mATjKg+WEYZxAAxiv3xXLc/JpxV3q/arX/1/3OolS/Y9+ywLWTkzztBrKwaZvZi3rBkKViZW4yW5dpmWjCRx7Ij7ipfYLx+uRSvrx8rAKljVCrVwK2I1N56VGy9pn2BLYtXiXFrBh8viRnFSnBSnXsZNEvENA1ZrxbMYz64tb88CsQqh7oWQF0IFQqNINtjIJunAbiM/Cya359xINggWzM0jHpKs85a3vCUE8pTdqqXcI2Aku8oiyZJci6gKjFD2SsXX1M4zbNkqXsUysApWtUIt3ApwYKz6cBrPwqpQinCTUCnFlpDdL5dW8OGyOJUfPwo+rLjioerDinc5bpKIb+sU9QO5cbbPwipbxrIRiuMoZ6sUQh6rjBuL+Ca14EzCw28exnycoD0YCc0bLGJrWSC/hh22NOB1YyTG4P/xD/8hq7lybtXyAxDsVi33i7U8aH9WYWc+EsoWNEkk28CuQsKuVyLbA5XvqGgrg8PgDYGi4xER6Yr4DqQVqC/jT8nxEHIBhlAsQ72Ooq3a9pY0yL2RG0oN8SZxmcM/AihwK5yODzITT01OTjJL+LwzsHPnpffee+/SpUv37N7ttixQljh9j+D2w2+q5W1AwQf9cXkMGlTRTxxkJ2aGCTJha7PNkv0m0J4XmoXyvYiIdIwjTDzgMA59GXlKjoeyKaq6bG9UK54Ec18TtYPMNMbZ8bxYYzhkLqxC4pyYmEDcN8OccMmll172la985e1vf/u37rsvtM5TmDgnJtyU038vc7ImoMzduy09Bk2cruIciWY8g6S96SDuL1BYG+8XirYCfgPs22BVrhURWdiSES9JSNDMNnWUp9uiPnPjSZBDfSYYDpv7jddy+EcAhcyM06U4m3Fyedlll335y7//F3/+5++/4Qa3ZYE0cdpn1ca3av3XZtZkAUufokKEkqQFtiGrgDJPLA5mZdeWt0923brHslwYH09csKVvJSIyUzawoGwF6stQU3I8kM2jbcUdFilKq9mtMsdTuGGSOwlRXFR/PK7mI67qr7T7gqyRTZx//G/++PuPPIJ6iRqJ0/omlH2ucmtxrL4cWKJis7gAKKN/FhjJlV0b7yIr2leaJot2xCPhMq5yrYjIwpaMeBwJY/EIWQWnsOUZt6i3bEJNWlo1twcEk/2iQ5ycP37U/D+/nT9jhPMT58jwyKfuusu1K9aSOJ8/fDh7q9ZrTjcJVaxEA79dYM0a1ZwCerZquWyaTDa0bw8L3LuvJs1y+rHDYAHLJC4isthwJIzFIyQlAyaDiaK4qZhZk1Rq8dz+GYxX+byArzhOV0NhcBARcEFg4sRaRHwGGUDi/PVf+4zbuFR+4kTZZpxeKCDOgl/j1jOAY8WSa11HnpWtkM2FueJOjD+rAA24R14jq9paK8Rxk41AbssEjj/+Rlq1s3i2WW4cS5SrxI01KG/PCClOipPiVDHOankcy3LZDeNqXEhUjBc1yxUPsIbVeFxNGpiieKJ482ZajdvY8Wc3ZCSJo4rDxJIrcexs4o8dZ9CccSLuU0xXE+fU1CSWCDaqbsECY35rV0oK5Js5Sdygp3jKaNDen3nLVqwyzuthDZL2ViAeBi69HU9dSf9ZdjzWjIVsnCzOahVJD5TtJ7eZiPRA0f9rxg0axJEq/2H5/7q8fzaI18ZxK1i1RNtE27af8l0UrY3juUk0e2BcZQ2s4C/DQPQh726ND+LAQ+K0CNbu3Lnzc5/9dVTKtfxZsTfffPPQ8+7PiqHMrOlzTPMWKCNYsAwM41h82VWw9G3coTQeLujXoiu3SfKIt43lxq1aVLBq8WGEQl1J/0WSZkkhu3k2Uq6ofRKv262IdFHb/4Cd/Ye1ZkXtGc+uTTYs2jyBViWPRnrKZ9mrY74HHKd7JL2VHElrS5ebkGgbbVpW+m3Rc6hi7bp16955zTWhVqxlxnno8OEH/Z8VQ998jZOJk0kUkqzp9+qzk+cbOxYhny9ZaIkbxLHH7NokXrS5sQOgeMOC/pszXRb47MYKZMcvIrKQ5A6AhkmG4ycj5bLN4qkhxudkpljUrcWTBlG85TiBq9h/61ZMnIM+yBTANu68cEjxjBPLSy+9tMqMs03i5P1fFLB2chI5Ms6anI9y6SDSKLj2VqVorStgF0kDUxSPd8TNeYGsamtZIB5MLGlQne3I9ss4ZI8nLlASL2ofV7GkKnHDSNv22XhcIMVJcVKcyuNYopzEQ6lYxf5DKWJ7TCRxqxa1h2w8N6G2lddP88qYJI+auFluOekHeISMt3bryoj7VTwArsXhAPJay2ucnSTOg4cO7Wr8dRT/Fz6ZKUOyRJ0FQhpj4gRu7nfs6o1qWoC4nLC8mMhuggjOn0tWGScehi8kcVflhhaJ+ymS9CMiMhM2cMXDURXWPtmQVevWIn6lU9I+V3mDkg2pKNFW2DA0KJqbomAHFvfWiHBmGaATnrSPYdrpyqi5f37G6XMa8gUaoeUMEudDux6yGefExAR6RXfun0uTzcSJql+6tMptUU2WxqrVUyNkg7avIkX7TeJFh9EW+sGV4ZJVxiGJJ4UE40Xt46pr7VWJF2F7a9m2H8UVX8xxw0jb9iXxpFCOzdjbTPqZiaJ0VSRukD28os1L5q9FPdiBIRLvKClgGXfuq2zvalEnaIMwUhjSgbtVi5jPL0icl33us59lsxItiXP/wYMPf/thzjjHxycaL226P1qGpd8Nlz7cqHFbhqzMAlmiihvwfFhNWJ+J4vbhOsYNrGx7N0X9FKnbXkQkV2McDyM4WHUm40x5h9n+4/a5kgZJQs1Ce9tvrGhHxfGWnBo3i8txHo0LWEYR1xWqODDf3q1prHVfEfepDYftIj7vdJo4dz28a/nyEZSROBv3Zt0rnb7gUqVlTV91CzTGF1vmpkkWiJtkJc1MNo4IL0eoNyQ50hokLYsOoK24n9wDAIuzYEtEStpbg4rtQyVvcyvEVdfUK4obNgiViOKkOC3IOIJYIh4X4qprFMnGs+3jSLls/8DNrVCln5koyVu5ihoUJdqkfdHmcTyZQSaFJINiaasahUF85UpX8e1xIQcH3QVnOsNaf43xbwaJEzNO9IJkCciT6I4F7ID5Gbvzy5A48Q/bMmmxHBfAElW8FmcVt4kVxZO8aLK9sWz7NUnPcZU98FonzQwOIP6BSKrV1e2nqH3dA6jYj+KkOC22eJG27Yv6r6tb/VSRjHssJPGsJL8C27PACBX1YGdUtKPcfmy/ttYK7BDVzCqLuX+N/SKbuqONZ5y4AFh2kjj3HTjAW7W4AhP+3UHo1M8y48Tps6WDr66ADVGwpS80g3EB4nICHYaSl9uyZHPgfk32APgjaDtCHFeUS6vGcZStICIyQ/GAQ10ZXpIOWY17Tsax+DCsEItTdXatKV2VJldI2hdtHqfV3EJ2GsolNkxa4ise/AAEz8f86504cWYxdoArgeVll132G5+pO+M8cMB/ctAwumj8HidYAbsJ92yZqP1e3T9uHudLC4KV44zFQgJxnFnx2pAXSzYPJS+7u6QBqrY7Fnhds3HXWkRkZuJxhroyvCQdshr3nIxj8WFYIWaR7KpYnF9juR3GO8rOHWNxMEmiUQ9WCFnRltyk0QBLV8Q/RrhIEic68fnFJc7a76pNEifv0DJxNjKlS5ws+6pb+If7lnBphZK8hU0aB5oDzXCG1thkI2Q7grhNtLu0QPFhsMDvAVm16DhFRGqJRxgTD0QVZccrkx24rJrbPosJJi4ksnGO2Nl4NrPGbfL6CUeYrGI1zohJP9wwXoXGvuAOLPoABGviCpY4EeHaiomz5SP3Xnv99egj95AX3XXHEl1zgWqjTC6lMmhLvxblULW4L6AHlBFwGIxZPHet9RwdgBNWN7ZiMMa1YAfAR2Yty/jq99SIxG36AufL77H/BucUOpP0U9S/4oorPpN4DINJFuNsUJFtlWVx39CxKgtZbGUPH3GH7ldybQvGIdR9hEtiEEI9rOXD4ZVhPNaI+EaunF5BxLJXtcG1d/nQf7GW6IdBFN3q8FYgXw97ce19YGD9+vW1P3Jv7759D3/n4eHhEWQOzjiBZc41kSfx08BUipq95MnNEcaS1cYyPOWBOJ6Lm5tsyySCKs82jreWw94tWLILdJXbIeOhIiIyhxWNV7lxDndZNk0samCSKWy2fRKxahJPJqbZZrkTSrfCQ8RWJS0BJ24zTqzlGr8WQz2SwpTvyq3FEjPOz//6b2BtuZYZ589fe83PON2OmSAbOdJBkF/9knEXc1vmZU2vpWoFNMZp+L4RtIdt5SRVKGoQx32yRNU9LB7tqNkS2lb9tU7jIiJzVtF4ZQNaFegDj2rNsTt7VO0/i3v0O007Yc5j//HaaJMQodzTRDPfAwu+I/+rnCxj4aJ+xnntNe/05TK5iXMI3VnKxI582SefkIRcEGUfCEFfbS59wU34ompoyQCWtirWNpjbABops9mA+/KPlk2KeqhiJtuKyCKHMRpjiB+pmxipNbbk9kMWtw5zm8VKewsPrMWIWtRVI449uke2WbsNA1RtdxZhoSGnZ98+aemOgRqn5hYssIH7hy2bXHndunXXvrN94myZaGeh39auHXcsrTP0bkn2xb1DXGUZmJhZsLKIyCLBITFmcRYqYvvyrTg7wpKFchyT42HZHVxe/0XxLJ/z6mHnje3cXhgJ9cZZG1TtA23LtTRyMzQvVP2bgxJ29C55+rctscBgLL7XHBfmNX+6gUVYoKTae/7QFsKlFlmQsv89q/yH9f+tm7IRsnjcwG2fJ6yOhBXFMNTnjvYJ/1Kie4R6ZZZ9arFDSk7BTirp1dJcsjtUqzwtgJY3Bz27d+/D33a/joLtJ/yHvPMmrf+1FPfuWXxxgQZfDb/Z6dc2D4VLX3DZNwnawVmEkirEkezaRLyvWNHuOjDzHrLQZ/L9pqJ4t9Tdr+KkOC3UeJFu9dN3VY4226YkX8aNi5Jl0iGrrRs2y0kitFXxZCxpHwddpdESXAu/prEF2+Ab5yr+28cgCoOXX37FF36j/ZuDqj4j4O6x5NuTiBHyrZosUnSq5LaMgkkV4gjLwGpWfLGAQYi/DYaRXCVruS1lIxTHWS5X1Kzi5jG/TyfUSxU1U5wUp8UWL9KVftC4SGiRJ7ToktBphYPByGkPRhJxY+AIHGMDCPVokyQYSo3h2rdqaRanEsNji1u6Smsi8BBAinTJ0n0pgFUla2MtM85nnn3W/zpK+Huc4+PjmFGiN/7aCYJ+r27KyXmnn4m6Va7i+TZhxyw0pqHhrm9um1g2AknQZpBZcUvbKeR2WwLtebGp7uaGG6IrdhhX/foWRXFT1I/FfSunvJ+E9ZMoiossBl3/+Y//h2bZvrjf8sYzUaXnkjZISxhac3NkKHkluTYpQLYcNQs7soRqy6TaWLr2zKZeWNPIGozgCy64K/hL7QIoYokZ5xc/9zm3olR+4kRf4+OTk5PuVq1PjdC8C4olPzwIa/iLnm69Z22I5Th32tq4GaCKE0qCUCVCSTbN9N9MolXweEKleKcdy+0w9wpAfCQdsD5L+mc8adC2fUJxUpzmV9zWosA4xHFT3k+oRBiPu+2vKkeSzYtZST9Jpizai8XjBtlyki+hEU+XUbW5iTUglH0KaH6DuB7//LfGldEAPVx++eVf/NznXYtSLYnz6d27v/3db3PGmSRONrDkxzCzpl9POanRqo302RKkpErszWQ34eWgeG2SQSl3Fx2Y1X5wRkXxUOoUuy3pP26QVH2TFoqT4rQw4rYWBcYhjpvyfkIlwnjcbX9VORK2qXLY5fkyd3PLcLY2bsZyki+t0Fi6Hoq2spa+4Bb4h7yApf8G8Xvk4qj5c3RVDpNXXIEZ5wwS59iYu08L6M5Skd8rli5Zcu2U+yRbhF0bW+vbWuNkW7e0Do01M0kkm0f9RQnixlyV7TBR0qBk87bdiohUUWWYirG9jXtJmYW2bJNybBbvokjSIFPNmbkWbRKnPStkqi1JtyS/gl/rAvgXXSFkK0RwcswULoJmXHZnxun69nhUTHioImFiwXfbsoElTjbwy5wJaFyAJIPGqyiJZBskkvxqijZk3F++lh+ROM5ILhw/v3NWSPAEbZVVkxPvTNJPfACd9d+tAxORrPh/aCL5j4xqSeNZEg+AVSTtkxxZ0putskJ8sgxm2ySzTBaSqxRvi+Xg4BBrPoIHshTHdqYw2wQlt0RkpjPOOHFyLTHidup2jTauFMcbzZpZk0vKRiCuxj9AJpsOkx5MUbwI2+PaxRsm1SJt21g/LFTsVkQWsGRYYDAXGoRSOxxerIwlq3G5uqIDK+onN14QbCbXkmQJVk4K1oNtnt3KluB/DaS5FTKWvypMnFiP08QSIax0J91J4nxq9+7vRImzMZtM75Fiib363MndB8x5KPiGKIQNGbE4RG2aQYoTZ7I2OZJEtqtycXt3/aptjmbuMtffnYhILfFQY2UWsmUsk6EJVYvHQRZmLrerov7jlJm0yabAuEESLOonScMxfvo6wsgg/jJwzufK6ABBtGEcyxklTnTk/yKKg7jv2u0b/frshR24NOm/GW4JlkB9T2zGQuOIGuKypclow+ZasH4Ia3FsLDCSYNxfiPwGJXgw/AZY2Y4wV7KXeL92nCwkOji8HujsuolIFTYUZIeF+P8d/xvmjhvdFY91saJxz5IT1loZig7YIsnaOPmBrYrbWP+tG6bB3K64RA/gZ5yDyJ3IlCjiMiOpIa34xOmKfjtefrfsJHHufvbZbzd+j5P9oiMuDfrmTmxnyK2+TWPPXly17wGaNQohArnl7LctbpZlPSewFS+iFVjGEtXyPmPx5pS7bdKnVWvtS0QEisaNmcRRZiGGtbXisaIGSUqLJZuU50hoLTe7tQ0h2x5LGHKQPQdxLoC4y5v+b2ViyTTHIAf1K654S+3f40TitFu16BEdWXcN7jqyimPzK9y3xMQJjweEYKPaXGXN2MYXmmshqUISiXcUYzN/kPkNyuF4+I3hgaFsRwhJtYtwtDjmUIkUxYvU7UdxUpwWaryuuXY8s6RofCsa6BBnAWutDDjH3DNFYrOBOk5ylLSPq63llgRclCyJEW6CloCsuXTpspUrV/qqi58+fXps7AImm427qu4XQ9zc052y+wCE3/x8zRknP6t2ZGQEZd8Ru0MN/8JB+n3jGoVXXJHN/Y+HS5lYxNkKdSzRg5UpLmMrFvxBs5DfEqxNVtKyM3YwDel3JZb5lrXAofKbVAW6wvGH69sqL+6q5e2za3Bq2R9c8PGc4yxqX+04mw2KrgPiufstbt9mv8nKCsfZsrakffF1y8YL3wzZg+uZxLl1x9czkcStWKF9y9qS9u2uW8vajq5n++sWnVfn1y1e33qczRUlPydDQznxSPnaKmr0kJwrjhlH2CjnXB/IvT6M5V5Sfx3CJvG2cWPu165YcunQsvH9amnge5tev/4iHwkJC9PCCxcuHD78wvnzZye9KH12mjj37NvnE+dy7M/3xaWDvfpL5hI4cLl8+YotW7b6VS5togcUsGw0duK4VcEikA1yc3fiDdYmV9xbDFvh8vF4/NV0PbJzVO0ga7Gjym4e98lvnu3Lx+wwWraNT7OrQr+z1n8Ov68e7s/tC1eyl3t0enlJI/hJ7sPJeuE69+nEi/CoWFiAMMzmjmwYe+vGWcBaK8fqxhO5GRFaxz20CT+9cZ/4ibKfqmRfUUZssj7B2ifHiU3QDP8w/i9duhSzO8wGUUBkYmJifHx8dHT04MGD586dQ74cGxtH9px0eXMSSabDxOlf4xzBmSAPu2Q8Mc57wS5X4rmQn2hi90iZy5ePoMHwcMiyOERLBij6ZagmcYrWhqBFIC6TNUtkW1KcmQyuZm7c2PeJh2rfOYub+FxmDmeROyYVxYvU7UdxUpwWaryuuXY83cUBLS4Qq4Bj9nLGvVxomnumjFuZBYM8gn1hGeqtbeKytSxpb9gAq7wlSJNImTt27Ni+fTsOBnw/02+88fqBAwfOnj0zhsw57rKp//XLjt4ctO/AgV0PP7RixQoc3/nzF5A1UWCmwc6Gh5dt2HDxxRdvRPrBbBcHtc1rXFk0yzmNvFObi5566qlTp07ecMP7li1bFkIpnkn+aeaaL+deR+2LkLUQL8vChm/YjL7j3aKfnB7YvXs3xvxrr31nqM9d/LGkwh9RP6cce/HFF7E8e/bc+fPnLr/88rVr1+E5wenTpw8c2P/yyy9fuIDc6aA9EucXfqPmm4OQOP3f4xwZG7tgN3+xA8xzkS8ff/xnt956y5kzZ5Ytc3NePwcdvOiii7JPSQp+vst+6jvYBDrbCrIb/uxnT4yOnv6lX3rv8uWYQ+fr4u68sg3zNmmzo8wmXW4PM96kfXvqYEfU2YYd7w46O0GKtq23oZlhD109AOhnJx1o3S/0btfQ372b5Gdg165dmIfdeeddDPVGcgzdwvklYNK5dOkyTPkwLXzkkUdOnTp19dVXL1++Am0ef/ynr7zyCqadyKzIep0kzv0HD2LGiYyILI3ZK1InkuKmTZc8+eST73//+3A1sW//6qb7h6PCpNMXFoJ9+/bjGcfVV1/l3+4Um8Wf5sz/nLljdo9sDp84Lc5vOs2jb32Nvrq039q9zGC/vdxX09NP756YmPjFX/zFUK9gZvvtcOMqO0XixKxv5cqVy5YNr1mzZvXq1ahiNjgysnz37qdfeOEFBLdt2/bEE0+89trPec+2w8SJGSfyIrrAtcP+Nm3atHHjxuefP4R8jSyJuaY/z+akGEdf8CLjPLN//3483bjyyisXzFMBEZG6MIWYnp666qqrQn2e4+wOmQtZc926dcigGzZsQGpD+sQqPEs4fvzYRRdd9Nxzz50+fXpiYvzyy6/4/K//Rti4WEviPHjo0K6HdyFLj4+PDQ8Pb9q0GXt66aUXsWP+jopPmQvT3r17p6am8eMSv2tLRGRRefbZZ6emllxzzTtCfd5DfnQwsPu537KNGy9evXoN0ufw8Agy5be//e2hoaELF8Z+/vNXL1y4cPnll9dOnIcOH0biHPdvQ9q581LkzhdeeB478y/7IZ+GZg0LKonixwUn+I53vKMrtztEROYjTMKwfOc7r2F1/kO+5NLx6dN561vftnHjRqS20dHR3/md373zzk+++uqrZ8+eveyyy6okzqGv3ntvKC5Z8ubJk5ixIievXbt2/fqLDh06iP0tX465pmVNfLEH79kuECdOvIyT3Lz5klAXEVl8jhw5Ojk5uXXrllCf9zCuk3ur6+Sk+5NeWL7++uvImsiga9asueGGGwYHh06ePIlJI3Lftde0f0dxmjifP/z8unXrtm3bvnfvsz5rFr7FNEqlC8Hx4ydwLps348dl4TwbEBGp5ejRo0gy27ZtDfX5D6mq8WD+dH/1C1n0tddeZwOkPMw7z58/f+HChVWrVr/zmvaz7ZY3wmAaOzIyMjQ0dODAflRXrHBZk7tsSO5jLpwcw2uqrCkii9mEFyrzn09eHN3B/XYlIphyTkzgMf7CCy8888wze/Y8u23bth07dq5cuWp8fIwblmtJnJi3YqK6YcPFSLz+zaUhTTZe9uMXLC19WmHew9MQCBURkUUJIyEeobKA+MRpEyR3mj53Tpw5M3r8+PGDBw+isHHjxUuXLmX7ci1vDnrxyEv7Dxx46aWXkDhXrlzpX0PlGiswgRMPYIFM0XARV6xYMTw8jMsXQiIiiwxGdUy8zp07E+rzHJMUlj5dNQtT/pPYkdf8r6u4T0h4y1veghPfvfvp3/z8F7htiZbEeeTY0ZdfeeXRRx8dGhpC4kSk8X4kvzrij8Z/XSB5c8natWu2bduOpx4nT54MIRGRRebKK69cv349skCoz3shWfpcxa/gSn5u7T7GB5Dyli1bNjIyguU9d90dNi2W/rL/888/j9zr325kd2hzNFbl5NR56uTJUy+8cPjcubOhLiKy+Lz66itHjhwJlYWAk78knfnk6W7YgnuRbmJi/IKX+eS4fC0zzsMvvvjgQw8ODg74D/HjXLIwNTbmmgtkynnhwhieayxdOoQLGUIiIosMJmH+DS4LZGD3ecqlST/LdH/FC3COfjk1MTGBgs9x/o7t4MCVV151y80f9JuWaZlxDrs/DIKrNsSOGGxAtSVSlFDnrWn/Z2UWyI+LiEgH/Axs4byrtlWcxTjUhwzq3ys0Pj6OE6+U2FoSJ9LvwMAgZl3+ri8CcRcLPKMgY+LiKW+KyGLmcshi+f2CMBv1p8zHxOhopTeHtiROZEufNRHMzboLOavwo5gW/PMDEZFFLBnh3Z/a9viEYfLVV18Ja0q1fHLQ6dOnnz/8vP/DYYM292p7S3ZhzNJw1bAcHKz0yrCIyILE+7RDQ5V+nXFeaGQofGmUWn8pxSdOF8Fy1apV1193HZuVaJlxLnKN6ysiskj5G2/tZkuLnhJngEk2ptqhIiKyWC24N352n1KF0fMsEVnsMIPQK1ZtKXEG7q1BeqIlIouYe5WvtSC5lDj5mrD7KUHetLKIyOJhQ9/goPtrz3FEshZ74sz9ydCPi4iIFNGMM9BtWhFZ5GzOoMlDOSVOBz8l/DnRj4uILGYaAqtQ4gyQMqem9CMjIouaRsIqWhPnIr5dOTk5sXA/2lhEpBKNhFVoxhnwc37xfCvURUQWmYGBAX7ceahLASVOp/HjMqlf5RSRRciGPkw3/Z/JclWNh0WUOIPx8TE8QkVEZJFhmhzDQKiRsJ3FnjjtKdX4uPszpnpHmYgsZmMeCppultCM0/18AH5WLlwYYxnCOhGRRQNDnxsIL1zQGFhOiTNoPM/SlFNEFi/MH/AIFSmgxBn41zjHQ0VEZFHCSOinEFJGiTO4cGH8woULoSIisiidP4+B8HyoSAElzmBiYmxiYmKJ/iSniCxiGAYnJydDRQoocQb8lCm9JC4ii5n73G6906MdJc5g1arVW7duW7VqZaiLiCw+y5cvX7VqVahIASXOYNmyZWvWrBkeHgl1EZHFZ926dZs2XRIqUkCJM/iTP/mTP/zDP9Svo4jIYvav//W/+aM/+qNQkQJKnE3T09NjY/qNFBFZvAa9UJECukCB/+sok/oFJhERKafEGSBxjo+Pnzt3LtRFRBYfTiFCRQoocQZMnGfPng11EZHFZ2JiQjfe2lLibMLzLH3qnogsZtPT05pxtqXEGQwODg4MDOhXf0VEpFyaOBdt4mDiDBURkUXJD4QaCdvQjDPw78HW1RCRRW1wcEgjYVu6QMGQp6daIrKYaQpRhS5QoMQpIqLEWYUuUICfFXdrX4lTRBYxJc4qdIGCIXdjX1dDRBY1DIOaP7SlVBEMDChxishipxtvVShVBPpZERHBSKgpRFu6QIF/mqXcKSKLmobBKpQ4A3ejVs+zRGRx0xSiCqWKQD8rIiJKnFUocQb6cRERkSqUOEVEJNAUogolzkA/KyIiUoUSZ6DnWSIiGgmrUOIUEZFAWbMKJU4REZEalDib9FRLRETaUuIUERGpQYlTRESkBiVOMw2hKCKyKGkYrEKJU0REpAYlzsDNN/VUS0RE2mlNnEocIiIipVoT5yL+dQxNN0VE9Ft5VehWbYC8qdwpIiJtKXGKiIjUoMQZ+PcGacYpIrKYVbpTrcQpIiJSgxKniIgE7o+K6f1B7ShxBrpPKyKiF62qUOIM9CRLRESqUOIM9CRLRESqUOIUERGpQYlTRESkBiXOQC+Ji4hIFUqcIiISaP5QhRKniIgE+v2CKpQ4RUQk0IyzCiVOERGRGpQ4RUREalDiDPybanWPQkRE2lDiFBERqUGJM9B0U0REqlDiFBERqUGJU0REpAYlThERkRqUOEVERGpQ4hQRkUC/mFeFEmegHxcRkQEvVKSAEqeIiEgNSpwiIhLo3lsVSpwiIiI1KHGKiEig1zirUOIUERGpQYlTRESkBiVOEREJ9OagKpQ4RUQkWOSvcVY8dSVOERGRGpQ4RUQk0K3aKpQ4RUREalDiFBERqUGJU0REpAYlzmCRv5dMREQqUuIUERGpQYlTRESkBiVOERGRGpQ4RUREalDiFBERqUGJU0REAv1+QRVKnCIiEugj96pQ4hQREalBiVNERKQGJc5At/VFRKQKJU4REQn05qAqlDhFRERqUOIM9EYyERGpQokz0N0JERGpQolTRESkBiVOERGRGpQ4RUREalDiFBERqUGJU0REpAYlThERkRqUOEVERGpQ4hQRkUC/0V6FEqeIiAT6DLUqlDhFRCTQjLMKJU4REQk046xCiVNERKQGJU4REQl0q7YKJU4REZEalDhFRCTQa5xVKHGKiEigW7VVKHGKiEigGWcVSpwiIiI1KHGKiIjUoMQpIiJSgxKniIgEenNQFUqcIiIiNShxioiI1KDEKSIiUoMSp4iISA1KnCIiIjUocYqISKBPDqpCiVNERKQGJU4REQn0e5xVKHGKiIjUoMQpIiJSgxKniIhIDUqcIiIiNShxioiI1KDEKSIiUoMSp4iISA1KnCIiEgx4oSIFlDhFRERqUOIUERGpQYlTRESadKu2LSVOERGRGpQ4A70kLiKiYbAKJU4REZEalDgDzThFRKQKJU4REQk0hahCiVNERAIlziqUOEVERGpQ4gz0JEtERKpQ4hQREalBiTPQnX0REY2EVShxiohIoMRZhRJngB8V/biIyCKnYbAKJc5APy4iIm6+qcGwHSVOERFpUuJsS4lTREQCZc0qlDgDf39CPzEiItKGEqeIiASaQlShxBkMDAzqx0VERNpS4hQRkUAzziqUOAP9uIiISBVKnIESp4iIhsEqlDhFRERqUOIM9DxLRESqUOIUEZEmzSLaUuIM3Cuc+nEREZF2lDiDQfdrnEqcIiLShhKniIhIDUqcIiLSU4cOHQql+WmOJk5c1qznWoWmXeJf4tStWhFZ1GZpJDxw4KA9OHpzVH/eO3z4MJvNF3MoceLa8SLiaoZQKVx9tOx6BhURWbS6mDXd/KYhhIph/IcXvBCaw+ZK4uTF4vfMP+PJ+eYxHmMQ35WKubaEdSgiIjPh5pKtY/Lg4IA9bKQtGnJf9EJlTup/4sQFyn2K4a5utUzGZtlvlYiI1FJ94C1i43DdfpL2czl99jNxvuSFSgFeyurfAN7sDRUREamp48SZzF6mp6dDKQO7sL2U725u5s7+JM6SlJm9iIy4y+wlQVYhLneQO+PNRUSkutzXy+LhOsE4WJkFv7JlKEa1JF/0S59v1cZPSZLrVcRf2HCJrQoWofq5M3QiIrJodTAM8r0/RfPLKh1m27jh2GtUB48cOcryXNCHxGlTb7vQ0dVxBX+5AotbuTrdsxURmVX2jtncIbp83C5aWxSfO7mz14mz7Q3r5JKhahGWTbw2LrimDdVzp/UgIrJozepIGHee3Us2knXs2LFQ6queJs54rlk0r8916tSpUCrF6+6+M9E3QPNOEZHZEP+CZttRPR6WT58+HUoZcTMaGOjzS4pZvTug8rlmcrGQKY8ePbp79zN4/OhHj+7Zs/fHP/4JHvv27T927DhWhXZe9kKDcqeIyOyJsyblDsWEIf348eP79x/A47HHHj9w4CCWeBw8+NyJEyeSId0gZWaz5lyYdPYocWazZlG2O3Xq9FNPPf3007sPH34Bz0qSJyZMqC+++NIPf/j3h+fbpzSJiCwMzJocxrEkv8aJyxi09+7dhznPkSNHUYawwjt58iTieGCClLyEWTLR7HvuHPrqvfeGIs7w9OlDhw4NDQ2CzbmLn0PUgKsTSg28sv5qOyxjaognIBcuXPBNlqxdu3ZkZOSmm2684orLr7/++quuumrz5kvWrVuHlsypyMdDQ0NoxvYl3nzzzYsuuihU8jz22GPY77vf/a4VK1aEkIjIIvPoo49OTEzceOONoZ4nmWtyADdWRY48dOh5JLmxsTHGMXpv2rTp+uuvu/TSS6+99lqU165dMzw8jHSD4feNN97Ars+ePYchPTdrDg42d4Txf82aNaFSE3bn7ypPT03hMdW4w+yWq1atuv7a63y1TC9mnNlfweGVjS83JpqYZR47dpxVXJEPf/j2j3zkw3is9xhH8rviiive9773/eqvfnrbtq2IYGKK7w3XJtC/7QKF8hu21lJEREog14RShg2kR48exUQT6Y1VDOkf+tAHb7nlQ+961y/akM7xHJOiW2+95e6778KQjhRw+PDhgwcPcqs5q0e3att65pln7BK/5z3vvuOOj1qyzL7gzO8NnhN95jO/tnXr1uPHjz/11NNclYXGbM9lEWsmIiLlSnInIGsePRrupjJl3n77bTakJ2zg/cAHPvDud78LBaTPI0daplv8kNtQacDIH0o9N+uJs8qrm88+u8eCuL6XX345y1Sez2666UbkTiTdrrzk6d4W1g9h9yIic9v+/ftDqSEZwU6dOmWvViJrYkgvf5kshgnopz99D7Y6dOj55NXQOWXWE2eS9jJV93kQdoE4i2e5uptvvgkX2t5ti10Q18ZKkmvRJr3B9AmhLiIyTyQjZ/weH2RNLOuObL/8y3dg+cwzzzA1ZOea/R2uode3auMr6LPmS0eOHGH1+uuvw1wzucQVrw4uNHLnCy+8ePr0aAg1Li6F0Jyn3Ckic1Y83bS7tfGohfHcXnS75ZYPsZDIHZCTIDMu50LgR/EmBuHEiROh1FuzmzjbfjLvSy+FrLljx45s1qyIW91ww3uxLHoHEK91fMUTXIOu+sIfQpBURUTmpuwrnfbSJiZC2duHPuuFoTjBBgbbfvCDN2PGafcj55QezTjtusQXCFfE0saGDc2b4BasBRcak057spPFXRf9eXH3rct883qms1MWEemutiNh7i+KcPiyCSIkb1XpAPMuZl/Z4+FBQqj3XO9u1WbP8403XseSwfKrzG1NiLbCd+697/0lFE6dKsydJUp6FhGR7NuCklcfjx07zoF0+/ZtJTMBtoFQb+XmEI1t165dyxln2KCBa6kv763t9WucMU7qcY22b9/OSMd4ofEMBdcUc0peXMM25So2ExFZwDAQFg2GJR/lA/E91Y0bN4ZSRty5G51b92Upk6699p1Ynjw55+7W9i1xxvPCd73rF0OpI/G1xjOU7N3a7Lcnq0obEZFFa3p6KpTynD17NpRq3qctGXgxF8KQHs+Fwop+6+eMs6JaF2vNmtWhlDF3LrqIyNxUPk6WTzqJn4Fa3s/gYKXUg0kR+invqi/6mTh5RSDUM4pWdbAJuZ0VNihZ1WvJ/QoRkb5rmzX9+Oqw2sE4ZttSUgXfvRPqeW16YB7MOLOS7wevYyysqKOzrWbJnDoYEREov1VbEUfvqamqXfkRfc6Nh3NlxpkUAGVe4lpPW2zbeWeeHraILCT1Z4mFisa07JAet5wXI+GcmHG++eabLLS9ZG2TaMVb51lz6rtV67mCiEi3YPCpOP7Ev4sSj5+nTp0qGk7jnivuCL3ljurYBYV6b/Utca5d2/xTaiV/24RXlpcYLFLk6NFja0r/SFv55iIii1xng+TKlSvdGO3ZXIji9Ia1towLYInQCvx08ThZzBH9SZwDA4N4rFu3jtX4F4Bmgp+3x9/mNFwlIiKzh2+mpZ/97IlQas2asTh3JunTCidPnsRy7dqQKeaObOJsnkAXJZdmenoKD/vcA6xKnqF0ANf3+PETWO7cuSOEPEQgVIpVbNYbc+dIRGRRScbq2Nvf/vZQKmC5E3OhkiHddlG0IxuNX3rpCOZX69Y1U/Ic0aMZp10I4oyTV5nX7oknnrQGSWPjr3aLsMLDdBNPT5KsaXI7TCQdiogsNtWHwewnvG/duiWUlix57rnnZjjqPv20ewmPv5pf0mzLluZOe2Z2E+fOnTtDqYC9HolnKD/96U9ZJp89nVAvhWc3+/a5z1Esub7s6rLLLmM1o+qPi4iIZLm5YWPSefToscOHD5cM4DZW5w7amAi9+KL741qXXnopIyVje+/15zVO3qpF4R/8g39gF/rIkaNJ7mzLLuXf//2PsLz00p07drRJ1e0ofYrIolaSon7hF94WShFmRy63b99m5aeeerria3Dco+0XWfOZZ55FAUM6I3NNfxIn2IdQxLNS5E6+jaocrq9dYvj+93+AJZ7sbN68GQXeB/ZrQtke9uQli/1hGfcsIrKoVB8A+esoyZwSE6H49bLvfe/7ljuTlknV9ov2u3c/gwKyZsk9S27OMb/3Zj1xtr1biwt9zTXXhIp/sfPHP/4xrzUuTXJxY7jQyLL33Xc/35SbPBVipgyVdvz3DIvwnXMlpU8RWYwqjX7JHxTjQM3l9u3bd+xo/sEr5M7HHnucZT+iO6xmPfbYY4888j0UkDVL/mpWSQ+90dMZZ1EyW7dubTwlP3r02He+812kz1Bv4MXiNxWZFdfXfgH0yiuvZKFI8m3OQrdTDRZhQURkkZiaciNhqOSJpygck+MlIeeta/y2IRw9evSb37yPvy5YBLOgv/mbbx454v4UNrat8rcm+zXdhIHpiYlQXLLkyLGjD+16aNmyZUNDQ7h8zBwlqd2vb59f/J/wLsvQzGpodvjwC4zEMCVdu3bNxo0bL7rooscf/xm+PfHvfa5fvx6TWqTe+DiSt3ux/23b3M33XNj2z/7sz15++ZXf/M0vXnzxxdgFP6si/lGYbfG+erlfERHzh3/4R2fPnv0X/+LeUM9z4MBBDKocpmywSqqAfMk/uhzz4/naDRsuwtCN+Q/HfBvSsTlmq0V/lSzZ1yWXXMJqOZ8asGjikwN8nZiYnJiY8GUXRsNNmzb91he+GLYs1ovECXweUSSeDhalz+SSAa7+ZZddZr/iEx+HJc645/LEiVx55swonsK89tpryJqWOG13vs1ApbPtiO0I4rKISM/8y3/5B6Ojo//qX/1BqBew3zaJl3HBIHcif4ZKKRvSiwbAeC8Vsyb4QRuLppknzh7dqo1veZfD9PHmm2/avn1bySfn4fpeeunOa699p2XNtkqyJp07d2b16tWnTxd+hhG/Z1gmcoPgNxIRmU8uXLhw/vz5UCn21re+NZTawWB+9dVXl996xZB+zTXXtB3SkdxCqd96NOOkY8fctD2eDqIcTwopzjonT2ISf3J8fBxHxQ9eKrqy8XHEu8CybdbEMw78uIyMDKMwOTmVO+Osq+73ON5RxzsVEZmJ3/3d3zt58uS//bd/HOrF7DXL8rHLIiycOnUaYzqGx/Xr16OKlIklB2o2yPYQ49par276oRiLJiSI+THjJCYwy5RMb5bkDM4glHyaxBz0LW95C1/ItKwZtynXNmuyKywnkTMzBzMT5T8BIiJzjZ88TIZKqSuuuCKUKrDBcO3aNTt2bN+5cwdSJrNmLRio+/ieINPTxNlduILEMoOJtlnTcPqLnkJ9xmlPWVNE5p3BwcGhoaFQaYe5s2j4haJhsOTtoiW9QV8+YC+r14kzm8nKb9VWlGyS7bMt9OD7CF9ERBahlStX1poIlsw7OxtLmwOxxyAgoc6RrAl9mHGWzwLjK1WXbcs7rlXekWTPbvA8y3+bHJYR5FJEZJHYtGljld+hjGVzpx9Hm4NndiCd9h+5Gsu2SWzdujWU5oD+3Kqt/ibbIv770nKh4yr6r7sLdujeFJT318Y7xm5NiIqIzEmbNl2yY0f+35gqUfKbl7XGPTbObjJ35prUn8QJRbmNU0AsbS5YLrnEqFZ/XTOGpDkwEO7s1/pOd0Xv9ygikrVq1ar4Q3+qQ+4sSp+5spNOSgZDpMy5ljWhb4mTkDstz808eWAu3/F03k81cQgOqlboLnYLoe4lVRGRfhkZGV6+fHmo1HeZFyrtFOVOMxfeQJurz4mTkDs7S5/WuOOUyR4aSx/qCezRhJCISL8ND4/MJHES/w7VTAY3pMw5mzVhTiROQuZD+ozv0Fa5W9txykwwh5kQFRFZTCYmJsbGxkJlBpA7d3qh3g5H+y1btszxlEk9/eSgzvDzhsgmpl3UOE2XLt05z/LpVKHMLSJ9cd9992H5yU9+ktXZ8OKLL4ZSY246q/yY7of2BmS3GX5y0DxInLPNThPpCmfNYL8oZYpIH/GDamd+t3bu8CO8S2dm5olzDt2q7TtcOSz6+FDSFBGZ+5Q4m5A3+/4QEZE5Tokz8EnLz9f7igcjIiJzVkvinJqaWrJkwD/aW3iDfMhds6PiLthMRKQv9nihMs+Vv/jFyRLLfmx2y4ofcN+SONe6vx3t/kBm4+Na89+qgh1EiYCFhcCfV5+FQxERkZnxA6r/F70QZkEI7wpqvF1oYmLy8ssqffhRS+I8d+784CDyLdJmmjW542j3+ILdhcICeBCuHYRKz2HXyVHpoYceevT2QUlwvj4aScqfUshfLuhH3CY/8E9OTk7sqPYB90NfvffeUFyyZM3q1Xv27sFkE9NVv4OgUW6GLBI3m6d4Cv5Zgnve4Spe/nR7lvknLiIi/XHixHEMfnPw42E75ZKUT1Tu4THokuXkpPullMZ00/1eyrvf/R5/57WN9M1B27fvGBpyQfvs1jiD+CNwj8ZBhMK8fuDseIL+8uFJxyQuH7hSo9wzybHpoYceevTy4f/cBQbEND5PH1G2cqyAos+ahKHXjfZoumJkxCWDdlo+AAH2HThw/MTxn//858iaPnG4zIF9oG87CL+MCwvBsmVLx8fH8aSD1VrTzVqNy6/a0NDSUBIR6bknn3wCQ9p1110X6vOcZS7883xCm3ZzTYz2PsFN4uvY2AUM/5dccsk/+dJvhy1LpYnztdde+9FPfrxixfKTJ0/ZpAu78bu0g/BfHSvMe9u2bV2zZu2hQ4csC2LGzUIFOVfB+uE1SqpFzp+/EEoiIj335JNPYrC69tprQ33ecyMu/nk+ZzZuzPqs6ZIcyhcuXEDhS//4S9uq3aNOEycceO65pcuW7dnzzNjYGDpHz+gduOcGJgC/WBDe+ta3XnHFFThfJLiOcmeqYqZM7Nq1K5RERHru6ad3Y+i65pprQn3ec+mqkTuZOC1rouy+Yro5Nja+fv36//uf/V9ho3ZyEudrr7+2d//+LVu2PP/8oTNnzk5MjDMxN7Jnc/bpviyU3Pnccwff+973Yaq9dKm7WWppzwo9gEv5/PPPh4qISM8988wzGPTe8Y53hPp8hsGbacovw3TT5pqEBIesieBvf+lLWzdXfUtUTuIETDov2rBhfHzs5z//+fHjx0dHT2NPtjPu3oRt5rm9e/fy3VAoY2kFvzJHfOJVLkJRe15OFBhcGD+vIjJPPfvssxj3rr766lCf9yxbueTVSGS+4qee4+OYGU5s2HDxP/0//0nYooL8W5G/8Na3vnzixIoVKzZv3vy2t73tkksuGRpaOjQ05N5p67ILU0xJWpl/eD4mRIvFzVgmRrLiVXFLfyXdJY2DIiJ9wREpVOY/Px9xaRL50r/yiCzqZikhkfpfZFi3bv09n7qH7SvKn3HSM3v27Ni589y5s+fPn3/55RPHjh3nHWFkafA3b93eQ+t5bt++/fFN2lo5DFchlIrFbZIyLmOjPHXVVVeyLDNU4XsiIql9+/Yhcb797b8Q6vOcH2CRqNzCF0K+5OQTqXTVqlW/es+nt9f8S89liROe2fMscicms6dOnTp79syrr/789OnT/qXUMT/hxc75q4fz3v79BziPRtmyZnn6jPOfyQ1SssqqVsC39aqr3s6yiEjv7d+/H4nzF37hbaE+vw1EKdNlS5Y9lzhXrlx195131c2a0CZxwm7kzh07kEKwG6RPJM4zZ868+eYbPoO6t92GdvMcnmchcbJca7oJJcnSFGVNiDPoAnppQUTmn71792AIvOqqq0J9nrPESUyfmO8hnQ0PD999113bt9bOmtA+ccLxl0/s3bfvXe96l0+fU5h6vvnmm+fPnxsbGz9zZhTDfYXEUaTNlp323H6zpOef/vSn58+fT1Im7/XjWsc3/VENpTxF16JtnIUPfvBmVrMKOqio0sY1d1G19Sx1C/WvSaUN6nQ7G0dbud0sHGe1Pqs1mtuHR3UOMmtGG1cxs8PLat/dz372BMaid73rF0O9mu4dZ3dPeGB8PNwcdUmzkTUxzN94403bt269aP1FoWFNlRInHX/55XPnz23cuHF8fByXCQcEYd38d//99584cQKF6i+Ml2dQivMlynFiTlax8I/+0T9iYS4r+E/S3Z/4evwh9e0A4u9k+NpD8Q9SD/V6tz3Z3wx30vHmbrOOt+3uhl//+tfPnTv3xS9+MdRTHeyus7PrYKt0k8HBwTfeeP31199AtkLKHBlZPjo6et211+3Yvm39uvWhUUdqJE7C7HN42fDrb76xfv16THXrXw6DLZlFWOi8o6742te+9uKLL1bPmll1Z6KMIJXGq/75P//noVRsBte8N3h8/f+eStfN+Z+9HosvxwL5gf93/+7fnTp1qspANC9MTEy88sorp0+fHhoc2rp1y9o1a9atXRfWzUDtxJk4eepUKM1/58+dC6X+Wb5iRSjJ4vPfv/GNvfv2horHWxT2HMvK5tP33HPVlQvk5SiZCzgMLpiBCP9f1q/rQqZMzDRxiki3/L9/8Af79u8PFa9t4rznU5/61F13hYqI9ETndyZFREQWISVOERGRGnSrVmSu2Lu35QXOihbMr9yJzBdKnCIiIjXoVq2IiEhlS5b8/8Gf37Ecu8k3AAAAAElFTkSuQmCC;" parent="1" vertex="1">
                    <mxGeometry x="690" width="224.22" height="190" as="geometry"/>
                </mxCell>
                <mxCell id="6" value="" style="shape=image;verticalLabelPosition=bottom;labelBackgroundColor=default;verticalAlign=top;aspect=fixed;imageAspect=0;image=data:image/png,iVBORw0KGgoAAAANSUhEUgAAAnQAAAIZCAIAAACgYTUcAAAAAXNSR0IArs4c6QAAAARnQU1BAACxjwv8YQUAAAAJcEhZcwAADsMAAA7DAcdvqGQAAMSBSURBVHhe7f0JvGxXWeeNc++Zh3tvSELISIAAbTMloC3Stt2C7dRMgSQQEFBEEIIKbb+NtmIMk0A34gtqA74KQRBNmBSV0XZq7PbfCmRkDCjNkIEkdzjn3DPn/r/r+a1ad5+9q3btqtpVp+rU8/3cu8/aa6+91trPep7122vXtO/E1ta9HMdxHMepj/3xr+M4juM4NeHi6jiO4zg14+LqOI7jODXj4uo4juM4NePi6jiO4zg14+LqOI7jODXj4uo4juM4NdPHz7meOHEit80mHMdxHGfw7Nu3L22VSOkaqV9ckU+4J/wPG1Bmbus4juM4A0Y6GraWCrpaQCV7pDZxDSoa9FSqGrjzzjs3t7Zuu+02aSn59tdxHMdxdpOsgu7bd+KsM88+68wz9zeoRWJrEFdT1SCo29vbbK+/8YbV1bXllWX1D2I5x3EcxxkmECiUS+K1ubk5OzN72qmnffe/+ldJZWO5zulVXJOsbm1v33DjDbfedtvc3Bx9mpigW/yjQCilwo7jOI4zbNxzD0K2jbjCxsbm/c6739bm5mO++7snULL9Xb7ttydxRVZha2vrhhtv/NZtty4szJusTiCrjYW1L1sdx3Gc4UUPXyGsErdQ1Six5517LruPfcz3dLeE7V5c44J1a+uz1123sroyOTlFD+hD0lXK2FZJx3Ecxxk6orQaLGFN1pBY/m0cPXrsgfd/wPc85jFd6GuX4rpTWY9PTU1NToblsx4FB2k9Ka6uro7jOM6QgqZqK1A3tojrxsY6oK8PQF+/+7s71dduxDWrrMfXgrJOGKlttkJpO8lxHMdxhhQpawKNs4fDQWClr4+xdzlVV7SOxVWtoqyf+exnG8o6acIaWi0ST3Mcx3GcIUayCiwgtYbUw2H09dixpcd+z2PPO/dctC6WbkfH4ipl/eKXv3TrbbfNzs5k16yQk1jKa+s4juM4w0yU1oa4gvSO9WtQ2Y3NH/3hH56cnKwoap2JK43REovlG2+++fjqytTUdOOl1kCzxSsnubg6juM4ww6yqq2UVUhfWbweP378okdedM4557CerKJqHYgrTaqZL335y9+67Vuzs3NTU5O5ZauQqIps2nEcx3GGkySuEKXV0OJ1bW1te+ueH/r3/57FKzKnU0ro4OOxNKsmj6+tWu1BUHUopAzyZ2ZmZmdnp6amlKMCjuM4jjPMSLMSaa3IlmUkonbPiXtuu/32e6p9lW8HK1ctW++8667rbrh+bo5la/r4zT6tX6WsoTuWqQfIyDGtxCocx3EcZ/hg6RhTjWWktgif2NjYXF9fI/sHH/8DVV55rbpypRm1dNddd5mmUvOOqtmdnp4mYUI7QYLmyWnbA8dxHMfZXYKkZcTKdsM+W60YkbbJyamDBw5IDVWshKorV+rSSvSGm246tnRsZmbangyjsWHDf3R0dnZWzdMlCtMnypOIVTiO4zjOUCK9TFvBelKLV21RtNXV1cf/u8chf4idndeSquJK1RLXmz53s4lrePxL7VJ1Eigr+irFpTCn0LO1tTUSpv+VHlI7NeFPCxzHcSqCWO3Y8l8EaW2AuCKCq6trD3/ow+57xhmInZ3bko7f0HTk6NGQzvRFkEZE7YsZg7KC1qymrOGv/xvgP8dxHKcimjOzW5RL20hKTkzsR2M5lJW/pnTwmiv/SSwtHSOdq5ddFrWsU1F324vPkONhx3EcxxlupqenZ2bCNyMhojnpRF7JJLF///7bbr89p4BN6WDl2iAKezkVmnYcx3Gc4SGoW3zY2pqK4taFuDqO4zjOXqXSArItLq6O4ziOUzMuro7jOI5TMy6ujuM4jlMz9Yurv5XJcRzHGXN85eo4juM4NePi6jiO4zg14+LqOI7jODXTP3H1l14dx3GcMcVXro7jOI5TMy6ujuM4jlMzLq6O4ziO0/5bhTvCxdVxHMdxasbF1XEcx3FqxsXVcRzHcWrGxdVxHMdxasbF1XEcx3FqxsXVcRzHcWrGxdVxHMdxasbF1XEcx3FqxsXVcRzHcWrGxdVxHMdxaqZmcT3hv4XjOI7jjD2+cnUcx3GcmnFxdRzHcZyacXF1HMdxnJpxcXUcx3GcmnFxdRzHcZyacXF1HMdxnJpxcXUcx3GcmqldXP2Dro7jOM64U7u47ot/HcdxHGdc8cfCjuM4jlMz/ljYcRzHcWrGV66O4ziOUzP9EFdfvDqO4zhjja9cHcdxHKdmXFwdx3Ecp2ZcXB3HcRynZlxcnfq5ZzeIbTt7jjjAAyQ27Dg9sO/E1lZMlrK9vb21tbW5ufmxT37i4MED09PTk5OT+zNMTExMTk7NzEyT2LdvnwqTgFiFs6c5cSK+kW3k5ia8N6acPjC6WoVj+PQ1Jmj6QtfYIl6A35IJ4W6rAaIGC/OLj77oIhSw3D1cXJ16SI6YdpXoHVxItSVfyu06Y0u9bhZTDTSVxR1nTyNHcnF1hpHkhUqzxTntSK+wflBVJJTTJ5Kvqv/uul0jAw6Aaj7WvkzOtaamppnxcABms5jl7GnksS6uzjAiR2T0V1dXSZCDL+oQKCdHvb6BE8ZUt9Af+qmtdpXvdErT4e6RrDv1jgY67jScRzko6/T01Pr6OrsurmOCPNbF1RlG5IhTU1MbGxtra2s4ojKVEOzGlNGpb+BmSqjOtNuKVL/aZTclLHvQtO3wqJAd03rJeUgVeu+MxgWvIMG0Nj8/TzdwY3JcXMcEOd4wi+vkzMyMi+t4osdoSVwZfTJxR3knaRJWsDOq+A/uF1OdMHjP7K6fQ4gGtB906iTlPWlbm3yAcSERZrH9+xcXF/FhTnRxHSvkKi6uzjCSFdf19XVGn4Q8kqPyUbYqXAVqo3zRf3A21UlCOa3o1PdUc/X6O2WkY6GjsauI7NyW8qarVNK0BoaDIU5bmJubY9mqGczFdayQh5i4Il6bLq7OEJFbucoBVlfXcE45qG3jHEdSCWBy0y4J5eRo9T6mtq6FW8ZUJ1AtXVVCObXQ6upGheyQ1YXsXA6eE1PNaFpDcrNy5Fear3AV5q7Z2VnEVZOmi+tYIUfylaszdOB28k58gHHXyhUfIIHQ4jzmo2GjYk1p5Sqdim6i3Pdw2pjqEHfpLAxoMkjJ4LYFF4qpAiXVttLRVrcC6q0qJIFrTUzs547QmJ6dnVlcXHRxHUPkEr5ydYYO3E7emRVXQXplZUWuqTKCdBXfKJbB2WKqAWVKauvUA6mfriqhnI5Qc+qPrrfTDgwn2bGrC9m5hPJGi0dLKmxaFUPDVMaspXcIs3JdWFggRb6L61gh93BxdYaR9FgYNc2KKxw/vrq0tHTPPWH9Gku3oKm3tFq5lrhW20UtVPdMStLz6uU7gthhS9ymhGXXlr+7tB3xLK0Kt1qeQqtTiivXbMlUIfMYahoWrdNTeiysXWyID7N1cR0T5B4urs7QgdvJO/EBxn11dTX4YHDR8J9FwNLS8j/90z+pTCuaukoxs61HlRfo1CE7Ld8pqh/LpIRl15Y/DFTvTKuSneZnSWVIZNP3uc99Dh06ZMvWSSY0EnDgwAEX1zFEjuHi6gwj2ZVrEle8hj+I68bG5l/91V8fPnw4lm6IQUXKC9fuY+60daE5qy4q1taqWJgp7ZC2j370o84++6zZ2TkXV0cuUa+4hidIjtNX9u3br0e7+GKicag9zHEx1QJVVSQedkaEOGytieXa0dRhsqerNsi+4sDUGVOOUwcurk79MLsZcUaznB1Tng5D3O+BWFEzYomdxGOlxKJOz0SDVqBVYdVTgnlcnngsQ7GqWNRx+oOLq9N3ijMkmTHVQDNpU9oe7Qh1qZxY1OmZaNAKxBMKxGEuEA+X+kaWVJi2Grs++zl9xN3L6SOaywSTmbZhVitIpvJboRqKxMM9EJvfSTzm9Ew0qBGz2pGGVUPcCpXpFJ2oLT3in1XWBBVznK5xcXX6C5OYTWT5LcQSDZRZhTBVG3G/B2LbTv+JFq+VWHUF4gkNlKNDjtMPXFydmmk6Z9mEtmNGU04W5UPcb00s1zdiM04zkn1kq9pJNauVVlQpkyUV1omimOOMOTW6g4urUzN6U3sXaKaDuN83YjOtieWcZiT7yFblqOSw0bRv+zMvYThO77g/OTWTpq3i/OU4dWH6WI+D7bN3NvlHcZx6cXF1+sLQKuvQdmxPYgoYiVm1EqvOoEwdrQ6n+MrVqRf3J6ePaJpL01b5rNf18+SOGEwrTpEuNK9Gdrd1ZwxxcXWGBZ/+nGHA/dCpBRdXp7+UfJQwh68pncGTlVJ/MuzUiDuT4zjji9/SOX3CxdVxnPHFHwI7fcLF1RkW+j3NUb+I+854Y77gE6DTL9y3nPoZNgGzaXQQXVJDQ0XqWOqecpwcbhmnXlxcnT3OmE+apqfDYgF1BuJ+H1DlagWUWU7199w5TnVcXJ29TMXptTs0fWeJB4aS1D11NZFydHQwqMVEzO0DsYHhHhpnT+Li6vSL7AcbBja7aSZNxNyeUVWqM6FDo066EF1UQpmO43SHi6vjlOEys8doOqDpnU3+FidH9B737kmOk8dWbvnYajop72FkBIj7e4XqH2z175RwesG9x3GcvQxqmhXU3O2CK6jTJ9yxnPrpYrVTywqp90rCSq1RSUqnHGcvwbDm3ifsA+3UiIurs8sEBdvtSU19gLjvZIim2VvGKbkc1rJ77GKdXcHF1Rl3fCatSBBYs1VK7A24FtNTnwydOnF/ckYem+oDcb8dsXSDmDt8pO4p0SmqpHZSzWqlI3RikXi4QDzcGzVW5TjVcXF16ufEiUHMZZo0Ie63I5bu/zwbm+mZVJsSnaJKEsrRobHFLeAMDBdXZzfZe5PdCF0RXVVvB9bn1FDFFgfWMcepHRdXZxfwSXMXwfhuf8fpNy6uTv3s2zd0P0A9GDkZZtFS31IPc4mB9ZyGUltVGq1SxnGGEBdXZ9foZd6sOC8nYlY/GUwrewaZq4rR+mrYQuVDd1/ojCgurs7o4TLmdIr7jDNgahbXyl/b6extyiayHqe54Zkl6Yk6kxIjja6iSDy8q8SuGDGrW1INTWsr5jjjRz0+4CtXp3aGYnrqaJa0abZj0rlK7FV0sUXi4Z6J1TWIua2pWMxxdhcXV6fvDGYq1JybiLkV6Kiw02/6NxxVaq7+mzmOU46LqzNKtJofO52RKZ+IWU6HRPO1RmVUuCO6O6s6JfX3u2ln+KnLBVxcnXrBMfP3/k1XA13MYr1PfNQg4r4zlvjy1BkALq5O7eSlq6mY+QQ36jCC5aiMCtdLj9X63ZUzAFxcnd2hrgkurEN9rtwNZPkSVEaFh4pW2uw/nO7UiDuTUy++HnVqoK+qnKvcNdXpB+5VTs34MtIRafGaUL7jjAMurk69+ATqNCG8BtvhC6UlYuxS7Qw/tYurPxV0TrJv336fBB2QHELcd5y9jq9cHcdxHKdmXFydPnLixD2dPgxshS96HMcZDLVMNi6uTh8ZtsfCUvq69N6pTnjF1Yj77eiocBXqrc1x2uLi6owRUnpfBI8nrfT1nnvuiSnHqQ8XV6eP1PhYuBbCashXMI7j9B8XV8dx+s4+I+4MK37f5TSowVddXJ3Rxleie5IqYtyRWlepEG+Kfx2nZ1xcnT4ygDc09bt+x3GcLnBxdUYbX7mOEH4n5IwPLq5OHxnMG5rCm5QaxCzHcZxdxcXV6SP+9YdOlo7uftoWrv1e6p57huvN7Qk61pR42BlKXFydvYML+ZDjA1SdqJ9GzCoQDxsxy6mNXn3VxdXpIwP+nGvFtigm4r7jDA1RKk0so5s22CoQD5gnx9MMq8nZZVxcnb2DL4ycXti/f5dfxZAuRsE8cWLb2IxsbG5uFf4FJLScq7NUj6pydhEXV2fvoJnF2Ru01bm9dC+V5BAfJiFN3dra5h9sBNiN/0xoN0isr6+HA6a74e/mZii9vT0MEvuNb3zjyU+++ElPesoTn/jkJzzhSf/hPzxR/370R5/AoVhoT+Pi6vSRGt/QVEU4K7ZFMRH3HWf3SBKIh0NSR5bRLKRR0LXAuv6trq6yFSkThWUPiTWhDQtZKsxKrLWzC1jPA+pwIh7e67i4OmOEa6ozVCTlkxCiiORMTU3hpcjk8vIyaooaRY1aQ1nXVlePCxImVWukLT+UNH0NT4ypB3ZdX8cZF1enjwznG5ocZ6jAb5FVFqmsVaenp1l6Ip0oqwlqZGVlJaOyYQlru0FpSds2LBBtlch/FrL5R8Rqa5CMeTy6uDp1klsWljwW3pXAc/UdIaoM1ug+h7CFZXwajASSmJqaYcvSE6E8fnxFKqrnwJLMRk7ItDL8XUV0tZXKUoCi4QFxfES8+/oq4v444eLq7A6dTou1TKOjOxc7AwD5GbAM0BziNzExMTU1Za+ThvcuLS8vNTRyk3+mq2Ehe/To0cOHjx45cuTOO7991113kTh8+MjS0pL0tbGK1bPiqK/2Bqhd09fx1NTEvhNbWzFZCsOzZW9T+9gnP3Hw4IHp6enJyUl7yT2Cf5CjfKYwFSbh09mYgIcw1jgAIa3YNp8JD7vMGbb+x//4y8OHD1NSLtGpY1Qs37ZYp+069VJ9wq1YsqMKs3zXd33nOeecPTXFlDWB35KYmZleXFycmQkrSHyYOa1P3pLWrAjqiRP76MDWFtKKjm4sLR0zWdy0GXeLHLT1m9/81p133nXNNddwFmGlGph1STzrWc8866yz5ubmFhYW6DkXwqWQEGi2XdrUxESYpHU5OrHffOMb3/iJn/hJrjHuNyDn93//6nPPPTfuDwfqJ7bCRMHu9qYwsDE6CaIGC/OLj77oIimdTm+Kr1yd3aEYdY7TKaPrRZq16f7U1CRp7j9ZfR49eoQlK9M3ysri9dix5euuu/4//+dfeMtbfvO9730vsiplFdr9/d9/9+tf/4YvfvGLrGVZ2rJytUfHq1rySgzA3inl728aKC6uzu7gK0ind0bRi6RtQevCG4OnEUjEj+Xp0tISishalmUTS9evfvWfr7766r/5m7950IMedEGBBz/4wQ8xlPiHf/jHa6993803f84eFC9zOgpLbUDaHiOGmmlxwLcj4xzmLq7O7tBpkNc4KQx4fnG6oOIYjdxQIm9s6TZMhzcGbyJALDGXl5fRP2SV7fHja7/922/94z/+Y9agiFPSJ6UTKVPb/fv3/+M//uOHP/zhY8eOrayEV17RVy1eg7wGgpzrrJQYJLpqiPt7HRdXZ0wZnyAfRZJ47EnQNr3wOTExYZ+jOc760p7yhg/hvPOd71xdXeVokNAGlI+pBtmcVHh5eeVDH/pjFsF6S5TEFcm2ZSv1B30dpOePc5S5uDq7g2aEjqglUF1Tnd0FD4SpqSnSiB8rSpQVzdPbet/xjncePXqUQxJLUVTWHJJqnYWa/umf/tnS0rLE1R4Lh3cU2tI1qKtKpkRfoT8xNX64uDq7g4ucU8KedI/sqjEI6fY9aN7Kyoqe2LL9h3/4NItOiWXQzJ2QmSWbk9KqnDq/9KUvs/w1WQ2oCXWArYoNgHS9JIR2xwH/KI5TD3gIY40DcKes+2Xzmdo+iiNKzuqoQgoT5931wemF6tNrlZIdTdYUzjL4j+I0tG17cnKKNAFy7Nix5eWVzU1CZuP662/42Mc+RgFK0m4WnZ4SQiWVyEEmhX/kR374AQ+4//z8/JyhD+dMT89MTU3q0pi3VUOfaPUF/cP2ORyQ0XADzMJ8BeFOpHEvkrAbFf8ojrPnKHflKlBD75U4Ti8wjaNrzNvcenIP2pi+t//P//k/8k8tV5TI5WTJZiqRzaGhv/mbv0UkdI8L1gpqcXL13G8Q0abEw3sdF1dn0Ci2BxbhrdAE5DiDAWGLqQDuH3783DQvyN7a2vqRI0fwyaSOJCinXRLKzKF8lcmeyJZDq+FrEY9HebVfrxuS0BsTXFydQaPI17Yjep8UwpTmM8uIEISicyfplEH6A20hpVJNkhsb6+aPYeX62c9epzKQLlwltVtCSZnbb78DZVUjFEPKuVyaQ2/Z3an3Ts24uDqDhkBPW2fcYMaPqd0jeeDgnZAGkUxUDTY3WVRK7U5cf/31HMU42QWoctJWCVHcjakGqufv//7vWbBylCaQVHsmjKCG8oO/9nHDxdVxnEHDvB9Tu8Gut46wbdpXJqFxrCzX18NPyJGfOqZEdltCOK1F+bW1tSNHjiDkdiMRbymQXR11+kq94uq3Qs6ukaYPxymn6CemPoN7RhrejZr5mMa3v30H2ySKWXXMpquQ1Ve2XBUqzjqW3XCF9hyYRe0gL3Zs8ZWrM44w0Yi47wyKjmzepwHqVLHqhWvSe3fjvuVUxHw2EPerkS1PcmJiIu44/cTF1RlrupiqnMFQPi69DFzuxK7r6Za4ghTljffYN24j0p0ENZGemprUrtNvOhPX8pE+cWI37wedcaDtXDPwidKpCkOTRqd8mLIl+0HSm10he3H0xF4BDc9vY1atUO3+/eGnXNUQiYmJ8At38bDTTzoQ1wpD4mPm7MDenehe4VSZPQbH7naG1tUBvR+YtL2z6WR+NpG2JVjxkycKdvU+psnwdUyIa2huamrangn7KqgJtd9xVRLXNFraOk4tdOdO7oR7m90dXxqXJsX9WkkrZi0iLWMfanfOOeeQSaMipZVI26akQ+GEDOkqzjzzTNqyL6idaDwTPqG3ODl9pbOVq0bLcXpkOB1JvTI3DyjTGR8GMOgsIvUFDiZ3pnqme7Ozs2rdXC+fSLsVkbLCoUOH7EvgaWE/iYkJ0v16BO3kqCquGqqrXvWquO84ewi5txLKgZTp7A2GYzTDahW1I2WyGn7+BOX7kR/5YbqXRLGYaAX1xFQDnaLtox71KNVPo1NTU0FjDeuJ018qWdmGLHD9DTfELMdpB+GtBJ6jRIJQj6k+UGzO2UVs5qhzRGqvMEty2trJSZqtJsNP0wBryrPPPntmZobrogOga1RnlFCOzgXtWtkopaBP+AA5KnbRRRdOTU2i5rRlK9f9HKKYmnaV7SsdiOsnPvGJuO84FSgJXdwppvqDPDYRc7si1aAEKH/cSNeeLJB2U8Kyd+SDMnsnVtdthV2ciErFVH1ITe0113B/idppNYnyqYdsJZCQ0iSEdiHu79TXtBUHDx7Ur8uhqnNzc5OT0zRUEpVOvVQVV8bsL/7yL0nELMdpBz4TUwWYX2JqRBhnz69+7ZRU4eqn5Gh1YtcVtkVeygyn3az21K5DqpCt6Wt8Qqs15dzc7POf/7ypqalgwYZkimJOQofSgjVB5uzs7E/91POpm/qB3ZmZaRVmd+QCcBRp7z02fCe+fMstN918M4mY6zidsLueU2/rIR7aEYvuHrEfdaDaUrXapoRln0x0itV0kpiboVV+12RrQ4ZiqgHKFFP9RNom2UNZYXo6/E77E57wBBUA+imlBBSxqKBQzNTVsX3qUy9Gqu1zOOGn4KWyNMQpqt/pN5XElTF7++/8jtLKbEadAeDsbUodqT2c3mMN/UY9bItK6pS6SDUPP0PeT+a9mKoVlBWdsyfDQe9M81DBSRaX559//o/+6I9oBBNZySyiTqpM4od/+IfPO+9ctFUr4/n5eZataLEKS9o5xNbpH1VXrixb477jtKO4IGgFrhVTnSPPjDvOqDE8Y1fdXXsnSZoSExNBYllf2vJ1an5+9l/+y3/5vd/7vfJtQTG2OfmElFNQ1h961KMunJmZQbWnpqZnZ+fQV1u1Tm5ubpJKrTt9pZK4fuzjH+dmR8Rcx6kJHCymusLmk0jMakYssZN4bPdQH9SZulDNQ0jsX4OYu0sU+9DYPZnZPwViIjXB26+/QVcDkygiq8zHPOa7WXqqhyDt5CztJoo5nH755c/4ru/6Tj0Hnp6emguwJJ7Vo2WuyOfwgdHGexgwhvav/+Zv4r7jdEiVZQFuFlO90Wk9dbXr9ANGZ3cHiKkvpmolu3hFX1FWhBCJZZWJOqKFi4uLj3zkw1/4whd+3/d93y233PIVIyW+2kDpf/7nf/7a1772jW984/bbb//5n3/Zgx/8YHvIPIWyzszMzs8HaTUtn9za2pKy+rJ1MLQXV7jhxhsZFREPtMbnK2eEkIc3JZZweqYLe/bJ/n2qtguYSxE5fSZnYiJ81JWVKytOmJmZPnDg4Gmnnfpd3/Xo173u19DdeE4LqOUVr/jl3/qtt+gtwfxDWfl/4MAB1Dq0sW/fxsY69VSZwJ262Hci85u9Rba3tz//hS/83MteFvfvda8rrnjxwYMHGDm8wZwjYh/YCo812DKa3CXZj/QG4pnOngZXYaxxjI2NjdXVNRv/TXODrXvu2Wb7l3/5V4cPH46lG++qyFKXq/TD5dyNe2EYlJU6c3zndz767LPPtrfUhieouC7iND8/r6Uebsy2rbB1jZbFdIPAIc2WYLnnHubjEDgbG5tksNXuysrK+vrGXXfdDX/wB39A+ec+9zlnnHHfM8+8L3pqS9XwriiclA4DF8WF2GdbJ7kKalCCFpmrrX1nBwwE5pmamsZKDISNRYB8JUQYjM3NhfnFR190UTJpK9qvXN/1rnfFnQoMzX2hs8vgOTFVmS5OaQr11FVVQnUWiYedZsg+nVqpXquGQTLi/k6YOVsd6jcSOek3ab2niXRYwU5NsUoB1HFhYeHgwYOnn36fM8444zu+4yGPfexjfvu3f+utb/3txzzmMQ95yIPufe97Ly4ucjeAKnCW7g+ATMSVCmnClXW3KLO1nPLW229nYEQ84DidwB2fEm0nMrkcxP0eiBUZMasPxAYaxNxhInUsJUTaTQmh3VpQbaq2LToF4v4YkNXXffvCi6/QeDgc9BWZnJkJemkvxC4ciCCdi2zn5lhkBw1myz+9yMpWi2+qonIWxCQ0dbuyDpgK4nrrrUpAPOA4HVJ0nkG6kznvIJpTQ0NF6lhKiLSbEkK7/SY2liEeGDOK61f7ZE74CI0tYSfRSy1Jg4oaprVzlmMibOjQ1NQEikuCqliwoqwm274o2h3a3Mt86ctfjinH6ZC2M2ZJgb7OtmM7lQ8DGH9g9m/aUMocWDfKSfpKwh4L6194GbjxsDcIJ5qqdSo56K7t2r7ev2SvHCO7bNFUUG1pzQrWmjM4Wlocv8P5brnllrjvONUon7Oqz2iUrF64CqoQsukc6ZCd4ewdcmOa3d3FV16FlA8hBFvCRn1NmMqGtWxYq4bHvyFh+fEQoLWqh3wT0/iRVmU6Fah5id/a7mGGOfE3f/u3Fd2uUWo3fdRxnKHFZpRBzA9qpbwtCY9g0RhTu0eSQDpGOj0lRiltOZslLFKBFe3U1IzSkMqTAFfWXael6XFMvPP2O+6I+1WpWfydPUPTya7tbEuBtmWc4WeoBjHnVKxclUjvvNsVJIok0MUksYilLU/5l5XYKXsOTM6EjoKWvDoXUm1O59SjYq2tb/532223xV3H6Q/ZaW7XSZ0x9z9JytFRkdt1siRzpcRgGGRb/UCiCFEkGzJpz4p3gJqaoAZiUX+FdZgoG4MvffnLGq1O8OlmHNEt/6jPayUULy3lkCgedXaXiiOSLba7y9Yi0kiQapaTLa/TnV2n5Ugkt9PIOc4uMjzqRU+GpzPDz/Dbavh7GDWzHbG00z01e0LZkNxyyy1SVtdXx8mSZuRsIkvK0VFIuykh0m5KiLSbEiLtpoRIuykh0q4SA0OtD4bYpBGzWtC2gOPURXNxlZu++rWvjfuO00+qTHnyyUTMHVZSD9VbSLspIdJuSoi0mxIi7aaESLspIdKuEnsGXZ2IWR3S9YnO3qautWTZyvUHHv94tr54dbrmnvDN1/HLr9nVdNZ0Uut0pqN8p6c4e4buhj6dlTvdHcnpB1Wf1Lv/OVXo5V0h+FinbqZTssQDzp4jDrARs2oit3KovX5nPCkT12/deitbdzVnkNjk2YR4uB2xdIF42Bk14vj1xwH0S/7Zo61KOk6nlImrPxB2OqXkXYuattJWierolFbEQq2J5VoQCzkDJw5Aa2K5DPFAC2KhFjQt4FOc0w/aPxZu66+Ok7DHwk2mKnlRmPwa5HYTVrxj4sntiKULxMPOwIkDkCEeaE0s1yHp3LTVsrWRzr+coWLOmFHnbVZ7cfXbOqdT0vfJidzDtzS7NYVpDuJOa1RVp8STB0hsuNB0zB14/vAT+92OWLoHVE9RVh2nFsrEVf6XvLAynZZ39jLJf8J8tjPdNSU1qH7I7e4W6gbE/QYxd+D5I0G227qKWog1NtAtoH/9gtMn3LGc/lJ8K2ZxmiuiYr3QYz063emaaEezZExVpsop1khEu8pvRSqQTQhc1CXWMXb4VY+UuZSmxezWcbpGM1pF4jktiIUKlBxqhSosEg873RLtaJaMqa6sGs8sPVdHVawVxZJIqhKO0w/2ndjaiskM+N/29vbzfuqnbs18GkfbK6548cGDB/RTveEbLTOQY/lT+/fv29ra2tzcRJJdlccBvUpKYmpqanNza3X1uBwASMDa2trq6qqVDMXwkHBaKa08p8Sj2k6XVdqtyNg6dhKn2knvMGpL7kX9LK26p3zz0+irpOfmZu1XUcMPuM3MzDB9LS4ukmA2W19fZzsxMWFnO3scXIKAnpqaZg7Z3g5zl733I34BTkJz2sL84qMvugi9K58EysT1J57//Ntuu02OqC24uDpFcDt5iMQVKd3c3MAB8KKNjZCANHXirlUWDU2FsJU74X4xtZOu3Y8TdUXuwOWkmUEWS+ZK+b1QUgkuF1PtSJXIA5O4WvqEfnt8enqKuWt2dnZ+ft7FdQzBE/DcQYurdtO2griGfBfXsQK3k3skcdXC1cSV7ZaOUoyt0qLEPfCimMrQqnzTwkV68Ub35CLZoawL6pSp21Yud2pLrp7kqw32cRuHxKKvyKqL63hiXjdAcf0vv/RLn73+ejlickcXV6cIbicPYWJCTVdXVxl/XGhrK2w4yiFz0x3TXCtKHt42dSf8Laba0Ys3VlltjxsMaUzVB36iYUpzTlvkYCVkq8o5YXI2JtaZmem5ubmsuNKT6t7ljC7mdYMRV1xwe/vzX/jCy37+55NfKuHi6hTB7eQeEtf1dVauAbmmbcNGhUm19YpyJStRX9GF1+G0dDVtyUkJpxawZ0x1jryrnJxqtiJ3Q2DquY/qbW6dWlhYYBLDfzY2NsLk5eI6HtikJHHdx4IA8cJdweauk5i29iauQANJXCHmurg6LcBhGGscgHFfX99g/OWX2lIgeZF2cRLttqLEc9qeW06NPklPuJzUH10a5PJHkdT/NF7p6voKfqIByk47VajYvVy1aktXypaVq4vrGGJeN5CVK1DR5z7/+Zf+x/9IOuuOLq5OU5K4klhdXcNncEt5Dr7ENutFWbrwEBwspuqDbtDDtI25Tn20coC6kJu1Rd0oDrScamYmvHmYfBfXscKcYYDiikD+6BOfSDobFS6uTlMkrvZYOLw9mBw9psM5U7pI2we8VSAeYmrg0H8uLV1Fusxc/iiS+q+L0hXZkV1AXlQLTa9CV4ojMV3Nz88z40lc/Q1NY0JDXGcY9IGI6/b28zKfxhEurk5TcBKYnJza2FjTrvKh9kl5eEQL9+ZKk5Onq87l18RArzr1XxelK7IjQwpTVkx1CxOXtsxj6+vrXLKL65ggb2+85lqPuLa85ec0nTfkEeUME9zvr5sG4D0sAsI/0uHOq1ZS5bv+T1eqS85ddTa/pn8DpTEBhITSSgwndC86Rw/oGpnxmEBVIVvH6Y6WK1c8bHt7+8d/8if1JU0JX7k6TUk3YdzfKTG64MAx5RTYA+ObRX5bnKbkAz59jQm4AWNd78q1pbgC4vr5L3zh5172Mu3KC1/ykitcXJ2OwCljKgNOElOO0zNNfaxr3DnHjX6Ia5kPceaDH/QgEjQAynScTgl3XgXiMcepg+hVndP0dGU6Ti+0EVf87Iwzzoj7juM4ewtXU6dPtPEqLXu1chXKdxzHcRynFW1WrvCKX/qluO84juM4TgXar1wflHnZFZTvOI7jOE4r2r/YsH/fPn/Z1XEcx3Gq037lGp4M//Ivx33HcRzHcdrRXlz379//EHsy7DiO4zhOFdo/Ftbi9b73vW/cdxzHcRynlKri6u8ZdhzHccaDGr5YsL24wv79+/VVTaischzHcRxnT7JvXw2fi6m6cgV/Muw4juM4Vai0ckVZWbz6k2HHcRzHqUJVcYULLrjAF6+O4ziO05ZK4hpg8bpv3y++/OVx13Ecx3H2JoN6QxOEpli8PvCB2nUcx3EcpxUdPBaWvirHcRzHcZxWVH4sDNJXx3Ecx9mL1ChyHYgrjbq8Oo7jOHuSevWtk5WrM07c0yDuO47jOJVxcXUcx3GcmnFxdZqzv0HcdxzHcSrjU6cTiU+BWxALDQ2xW0bMchzHGRpcXJ1IXKg2I5boG1EkG8TcZsQSLqiO4ww3Lq5OPVTRPJUpEg87juPsFVxcnUgUumakoyqZRfmQ2y2iAo7jOOOAi6sTiY+Am5GOqmTXqJIi8bDjOM5eoeZ57UQNPzHrDBFp0akEKF/kdiGqZTNiiQ5Ro4mY6ziOM9z4osHpjKhyRszKEA90SDzZcRxnr+Di6pTRy6Kza6LkGjGrlIrFHMdxBoaLq1MP0mCJcVNUzHEcZxyofcrzF133IK3U0SXTcRynKbVPjv6zOc4u4E+GHccZKnzl4XRPVtKUZtsUlXEcxxkT6hRX+xyOPxYeI4bqsXBScSVA+Y7jOIOn3snRlXWMkLKGF2MrkMr3j2xDQvmO4/SbeD9rxKyxxycgpypRshrEXMdxHKeAT5HO4IiyXCAebtA0sy3prlkJUL7jOM7gcXF1dh+paSLmdoVrquM4w4CL60DRiioRc51m9KiyjuM4u4jPXwNFK7NEzB0n4m2FEbNa0LaA4zh9QhFaTizqtMDF1XEcx3FqxsV1oMRbvgYx14hZRsxyHMfZbeJztgLxsNMCN5AzUGJcGjGrBVXKlNDLuY6zl4j37EbMahBzLT+mDB3tnVidEbPGBp+ABooEIxFzndZ0ZyW3rePURdTGAvGwFYipPUI935Dvc5Az7Nh9yA7igYaIKhOU6TjOLiLpFTHLyO7qqIhZew6fj5zRI2ppQ1mV6TjjTFQqI2bViiIui/I7ak7dg7i/p/GJae8T3dmIWXuUGPQut874EV3fiFkNijlFup4cqlQ+nrhd9iCKExPTgDJFNid3yHEcpxWtpgufRlrh4jos9HgDGDSzgXaV35SKxRzHGRUU1CJmNcjmqEAi5jp9wMV13BnFGFOfQWllOs44Ex4HN4hZDYo5XdCqEmtwT+nIvnreLOziOvokmXEcp98o3BIxd+gZWv3bY8KcxcW1KjGYjGJOK1SyH8QGxl5W93BwOs5I4LNQU3xi6oZ+q1qxfuVkiQdqovYK+4EuHOJ+wSwx13GcDgnPdjPE3P6zh8PWxdVxHMfZQdTYDPFAge7UsaTCPYOLqzMyKMgh7hemgJjrOE6BGCQtiIX6T2pOCVD+3sPnoyEi+lqDmOs4jrNXsBdwwmJXCVD+3sNn8JqJwtgg5jq14rZ1nBElBa8SoPy9h89QldjDt1ejyx4OS8cZQ7SQhbg/4vj05DjOSLKXJuIxYaxuiF1c2zA+AezzlDNCJHfdRb/1ZydQoxGoSsT9EcedYxgJer6TeKDPDKwhx3H2NlEndxKPtUBzHcT9EWesxTWOZP/HMjazk3isQMmhAbC7rfeCGTUSsxynbqJKGDHLcZrh/jFcDIMwSJ+qEE9wnIEQ3c4db7jp+s5DJ0LcH3FcXPPE8G0Qc52RIg5eg5jr7BV8TIeTvSSNvTPWhpArQNwfbNCmtsL030A59XKiQdx3nBGkJDr6FDiDweJ+B/HA6JCdQseHtjPqWItr9OUM8UDdtHK+7hqVUkLcLyVbrOIp1VH/RczaPew2qTmxhOM4/aGjQItTxsjeEjGNVplJx3rekUNkiQeGmNoFsq/EGBpIFMWWmhFLFIiHG8RcZ/goH53yyNXg5ojHdo/Yj2Y9iQfcIYeZCvOw39TvYNj0NaxPdxIPGMWcHMWj2Rw7OxKzGsRcI2a1Y9enA7s7ak4s4YwTckiI+wMhNrmTpvkqP57EsNzrgTkW8050ZyNmDT3Vha16SaHyEPczKLPpIcfZFaqErcpAdlfpQdKq0V3pzDBj4xOI+3uUsbupj6O6k+whpbum9xqgC3kLamnE/Q5J5xZrSIeqIBtC3B8gseFmxBIF4v1zg5jrjAElXjE8yHubEks4Q4xPKD0xhDOytFDErDrotLb+xb8mlyLxcDPKjzrjidwmEXNHhNjpBjF3RNC9LMT9PYqL6w5qGe/o7zuJx0YZCXaWeKAFQ3XVGgWI+85eZHeHeBfVwh17CBk7cbUbppPE3G6p3aeriJbjOI4z5OxZcbVb2EjMMmJWg5jboJgzACSoImaNCNU7LGtD3HecISM66E7isVFgtHo7DuxZcY0r09bEcnsdzRGJmFsfnd4T9NKHPl2CM7SMynC7ZzpFxu6xcFN2JTYkSxD3S1EPIe4PGRWvQuzuVciMEPcdpzVZP5HbNCWWcJwMLq67QEVNjYFrxKxmmXGnWYQ3zaxIqzpb0ZG+9o/4XKJBzHWcblEgQNxvTZUyzvgw8rOP/L4L4vkDp60Ixf4NR6CqGxU7MyT66jjjiU0bgbjv7Cp+az9cdBQYuUDK7TZFZaoQT2h0SZmgTCdHtI4Rsxxnl4iO2CDmOoNl9MQ1+kuDmOs0iHYxlBOeQTdQTpZW+a1I1TZFtUHc75Bst7tDNSRibh3EGjPEA05/cAs7I42vXAdKier0Y77O6pzqV852BuUrraM5dHoWnRJ3WtD0xIRqKBIPD4TYZIOY6ziOUwcurrtGnNQbxNyaSLoYa98pqyTI2Wqwvb2VParyIltVp+hEiPs9kDrTP9RECbGc4/RAFxGhUxIxtxPce3cFF9e+E2PCiFl9IDbQgBwiSjoaJTSwCevrG/yDzU32t0JqY0uZHI0Ft6LcmqwEtAtqDuKBDPFAgXhmPy9/V4iXXTpzxRJGzHIqsGfMJbeX/0PKFNodAPJAiPtO/+mLuO65WbRLWsVP7V6ebUWVS1bZIqgsTU1Bg3yura2Fv+urJNbXwz/LZ2+Vv3Y0IA1GYtOiVtVSv3bVVg6VETFrJyXnljPkn6tpdb3O2CJXB6WVWQv11ub0D1+5DpryidjiMRD3K5AKm6idfPxry1DElUQQS8R0dTVoahBS+8tuFjuiMqgva1ttw1pWUg1qIttoK1SsKW3PHXVkJRGzjOyujoqYNfZEcxgxawSxQKnHw2usyhk8Lq4DpWTWyAVSxaBSMc1HVkGUVWWybA0KaSCmEtTjx01LTU1jytLHAyu2DSWC0oZnxQE9LpbEqubU9MBQo6NOGCcj7jujj4XdSWJuNeI5jbPiTgNl1kvW/dwP+4qL6/ASI6wZ6SgJRQjpJKv79+9HGgGNlDoil9ryb2VleWVlJRXQknU5QPZx/gX9NQHm+MZGeJLMuSRsHRygLYvQIOc05zjjSYjAmkKgo6pUGOJ+5yh+lVCOUzv1i6vPt60o8eNO4ySVV51aVpKemJjkLzqJPEoU2aKL/DUdTWgJi4RqwdqQUxNUsCVsXM5KWVVZ41FzXMXSYghxQ/3JwlGIO52gExPK0SFnr+JD3AUx9toRS7fAgqwJ8bDTLb5y7RdtfTpRvWQWBQDnInUk9u3bh7Lec882yphkFa3M6Gt4Mmzr0+NLS0vHji2ROHbs2OHDh48EjpLHolYqyyEKs5I1uQ16K4llK4lNrbNVf1pdhUrGna7o8XTHcbrA465H9jE3x2QprFSYxJlVP/bJTxw8eGB6enpyclLv4UxMTExY/hRpilOYGR9iFTUxEkPeVGlKet6pvqoqzmJcSGB7ZJUBQlVRx83N8EZfLTGRP7YoIxqJWKKkqOPS0vJHP/pR1cOoMV4/+IM/uLi4cODAwbm52clJ8ibm5xenpianpqanpsKwwhSpiUkbeZJT/JEPaIhJsIWmI56OZqndN0aXpvYZKnLeW2OHqZnaSqJj2Og0WoeBrmNt+D2zFhhTTMQsx1avr+lZIPlsE+QDc+OjL7xQs188vxn9Etcwt2+Nqbg2jb3ybncUrqqKUxgUtgyE6eim5JMxYomJV5iLhPcJsyp9wxv+q07UcDBAuXFJHSCfoz/yIz9ywQUPnJmZXlhYNFUNw236OjkzM2PKOsVRMoMOT0ykE1UJFMc9e1QUy4wKXEuNfli0zBCSu95a+lyjDQdJR9E6VPQYcSPhqN3BmGIcF9ehDshWgVfS7eqxmirhFOyLbbG5vZN3kwXr8vIKKRuo8Jooq9VvfvObb3nLb+osDYS2DFCopbGrDqRukFD6KU95ChI7OzuzsLCgZevc3Jxp7RQDPT2NyrKGxRGm1BNOSTUL1Z/IHRW5MiMBF1KjHzY1yzgw5LHclBQmbeHq5CdpfIs5A6bHWNvDjsqwYhwmNbYursNISeC16nb1WAUqUXmMy5YhILG+vq53MKGyeAIuQc7q6tpVV13F0VR/GggSDJDSCYqlkkooBx398R9/7qFDp8zPzy0szAdFNZSQvgZ1DdI7oSZylWcdoNgu1O4h/aPY/9q9samJ9iTDHMitUGg0pYvL2ZWx7iXc9rBzMrJYpl5xHZdI3gMwtEow6gw5Q6uRRlZXVlZYp5Kv9xx95StffeUrXykBTpTMCwnK5IpRye/93jve/OY333XXXceOHVsL3zIR3ycFtIai0zGWymx1bupnkZJDzpDD2GWJuV3Rew27Qi40EiN6OU6/qVlcK0zgzklahWsRRS/lFcmsFO3R7zbKurS0jMRubW0idbfeetsv//Ir3v72t3NIJyaybZW3y1EVSDe5tPi2t739llu+cuzYUb152N6PnPSVu7wgsSrcKam54cdsH0hp5fcI97+JmDV8xP41iLnjQYmL9uIDyYXSVglnb+Ar1zrp6xNOhTfhNz09jXbec09Q1uVllDV+4f7KyvFf//U3pQVrtjM6N7dtRTihAZWket7//g98/evfXF5esvWx1JWmadB0Pqxd41c4OR1hk2okZjlDgMIB4v5O6hovVVKsyqrvgHhaO+IlFYiHnfqo+TXX8F6XqWnSlKV8dmqui+putCs0ddNWfa7u09RAYUbB1qzhldTl5ZWjR4+ibwwKaseC8lWvejUFOFRElVx++eVKtOKaa65JhTVwxeH7sR971llnnaUP7czPz83Pz8/MzMzOztnrsGHogbPYqnyxhnQoS+1+MkI0NcgeZshDWKRAaMVIXEVHrlUlBveqrzLcXL6/5jp69OiRDGpMWZqbGKR0bW2VOxi9Nxh5fc1rXivRBYrl4gRZbaus8IxnPCNbrGmw/eEf/tGRI0dXVpZwMr3ES0L3UnJHFcv22Slh3JTVqY7CuSPimQ0Iw0TMak3TGnJk61Ha6o4o3xEe2IOgd7fD6ZEulogInp7H8h8tIxNh+8d//DQ6F4vuJKeXVTAhbnkKLf7u7/7u0tKyvqrJlDU80kBbTV9DjGVD1AK2TcSOLa6so0hw8f4IiYIloYYSFuwRkuxCPNYgntkg1mvEEkbM6ooeTx8fPLZ3k6ZLw1ZQmHAjgZIhbAotouy662744Ac/RH4unC677LKnP/3pcadzUOWYKkB0vf3tv2NfWIGsbjV+lk4r1/aLV/JbHRoHENREzHLGG0UukFZ0gEVT+Ho1sCiLb60wNm0vQH7MswdXNitExU01WyM7UAERsxq0OiVL0xOdHP0Ibw3M+L6E1hFIZhWJJWCmpsL7mIKK2YIV50Zrv/Wtb/3hH/4hBXLxcMkll8RUD6DN2e5lo45I/trXvs7qWVGtOKdv9EqhnetPbrdI2wKOs7sEtzbifh2EiDLPj1Vb4KSYkp4in3pPvhKwuhq/LdxywrsL2RJ99gZD3emG915olsi2Up2K5VW/05TRvneO9/9GzBpK2nZPApbdJhRvJMjev3+CKFpbWyVqyOTQ//v/vlnFstSirILlr1pnm9Cha6655tvfvpPQZgpo3FWH/9nFawnjGZZD7qgOZJ0ccFQR92sitaLKtStNRRSli9xLS03X1sLPb0hWG4kIs8HaWvjRKhIWjFrSUlP4dBx1WvVRYq1lZ0B4qA8XSV93Sqy+QDg8HQLCxx4abRNZCpuERWjNIdTq2TI9XF5eZhLY3rZuxfc0hXi2mSF0LNu9th2rvefOEJLz2DEHa1i8xBdT9+0L77QnM7xf0X4U0pRVBEHlT26rv5QKIhwKsx8+fR6WtPbEmMppQmbvKMQo3FF5J0c/xHXHwqt2bJkaiVm7jbxQxKzO2ammO0CrJiYmKYKMET6Nu9p7XvGKXym2eOmll8ZUfaCvTS/tPe95z9LSMgFsYk+nrF+N768onpLLoXRMDSvysezW6YXhH/EBQBSABUtUVhJ4FzMAosgNK5hwxhUqGmlfwkb2islnxAqG311eYRN+KVKKG4voETHn6o5cLap1dcPpN/2YL4Zi8HDWRMwaZUI4ngifsiJaEDDiRCvFxqFIP5S1BLpx+PDdQU634913SAU40s00aucG4v6uIs8p8Z8uXKs7s4wowQl2Eg8MMf32PdWPKUiwJYrZ5daZwDGxXJamGtLJIJUN4dQ6dS0jpWzCTy/briQ2YCeGrb0sG16vBYWnmlY3RBiYDDG3gQonYm4LiqePM/0Tnn75qDxAxKxSKhYbWnBoJnEJqilriA3i5P/+32/EEk0eI9dPqw/nXH31u+iRFqxhSEKKHsajIw3XElMZoc2S8jtFhqpCPMHZE0icGFYSIWC2t/UzJ9yXNsQyrlZNHaWN67Y2DSwtLR87tnTkyLGjR48ePnz4yBH+HjNFXjFJRV3ZROm1GtiuZcQ1tEjT8it1poj5XfeOp9Mh7o8xE1ddeWVMlqIhgVu++pWZmZkJ+4VtzekJcsgHkiqs/FhFTWR9Ilt5zlfSoVY+NGC67gYnTk5OEo/c5BI6GxvhiyMIlde+9tdyFu73svWmm26KqZ3863/9WFyCTtrgh79TU1OMAA6CS9D/1EPIpiF3NNE0c8BUFM6ORlZ1Vj9lGOzQHThnTI04HY1vK1IlmIU0IkeoWHTcC81DFlFIW2VuooUcJZN41yL1n/7pn7hhvfXWW9HT3/zN3/zbwP/8u7/7X6eccm9O5D57M3wBanhPE9tsE/Y3/AfyzZX4H27Wbdf2WzgYp/QYmCPnunTYxGsf1y4bAvlKCPJhamr6rDPPxIzl19iPrz/kXmyCspSn7fLma4RrjqnCtJg91A8weky1pos+pLHU5aCsR44cId4IQW5jX/7yX1SxRI1vEm7FH/3RH2UHVOmf+qmfeuADH7CwMB++BnF2Zm5ubnFxER+YmgoeQpnscBT9ITdYYmBuU07TvrUiDXE6K5uTxnFvky55RCnGcsUrqjgJUIy5FE8AzagI6tLSsaCr9j5hbSl26623vfnNb1HrqQ+KC22zLVIbmU972lPPP/98ApA41A8th68knSY1pV+JtB9gth+JnJykPGfp9PJwS8US5eVF8axhBmNyUdiIrcQONF5sE4wOjMDXH8b+Noi5o0bWxftGeANh4xWTewi9z3/+i7Q7kKZbkgLs6quvxgNJyA/5i1+ytX8jTKezA+VF3N+Zo60IZuqKeP6wMvw97JSKV1QlEqmKYsSwlkeb9gUs3CvbL03pO0SD1q6urt1995Ff+IX/oh/hUMzn6g+RvzNHenDtte9705t+47bbbrv77ruXlpbDk+KwJo5vg7JHxAFKppqB01UhqLZaUOUiZnVCPHMn8diIsJviWi+axUTMGghVbuJ6hBbMtbifDe6Fzm5srOtQ7SFRTrrY3FUrTtUZ0hxnFAbYL2f3wQFiagSR60Lcb1AymcQTjJjVGkWHlJXiJAhhFqywHn6JOYgdCRTxs5+97nWve13WmKo/bbOJRChnUPPb3/47SOwdd9xx+PDhY8eWaOj48aCv9rIuEhv0FRVXl+JppRRHtuKJ3UFzxRZHkb0jrrtFX/0MzNNYEoblIG0hXTTIruSNrRIDeCYsUotCu2SE/w3R1bYXy/TbqruL3QF2Qzx/NzA/jMSsMaCWi6USi9zwNNh2T6BuLChXVsLHWFFWVq0kvvrVf3rNa177gQ98QGcpiJpSHh2cSItvfevbvvSlLx85chjBZtV6PHxkNn6vE8oqfdWUMoABpYlWrehQlnigGeloebEhwcW1J6prgCZHEbMqQ5SxbCUSCEt2cSxFBWm21fvQO9mAJy1INy4qHtV73ZTO0jSzFYO8LsdpShfRmoNoxZOlrLC9fQJpW10N7+vdCr9qFV5kvfXWW3/5l1/x9re/nV1OCcGzM1Isyk8Sc9vxJ3/yJ7/922/95je/iZCjr2v2kR1klfUrjQJ36rRIhSOhVSOHi+su0FHEEmZ4P2pqe4TBdlGhqsdbLaTg1zblpI5xgSd3GhRzhAf2SNCR044WJeFTl3NivampKWrTazrLy8tp9bi0tPSGN/xXBXjTnqTMjsKccKM81b7jHe/8+te/TovhVVdTWGs6fBcxyq5XmtpSix3s8ncQD+xRXFyHHSKEmNKaVcgpLf8kOjQAkkYqwXYn4U3j/NERlXR6JzsZtUo73VHiqD3eUjA0xCYihrKic6wUWTsePXo0iKr9RCNq98pXvjp1INuTlNZPQIpnGE/PoDJNSTW8+93vPnxYz4cDjZdd+ReeSAOdbOtF/XCzve26Lq6jQvBComX//gn+DlJNs9CBhHaVryONFMtW/mlvJGFK7XFWdUaFcGfaOpp6mf3TudxuImBERnj3bngaLFDYjSuvvIpUsQOKJrSz5JcfhSQWSGficQf05K1vfduxY0dtxRyWzklWQe9GVLESU0C6ohpRrGWJB0afIbqSrkcueUYrVKxeLCQHp3A0hWIpjf9NT08pPWCChGaIuY2o1jZ9v4gd6YkBGxksukcpvEertyNHiXmDixeIxxrgvSxb7QORE8gq69T18CuN5G1vbGx9+tOfRWBTSSXEJZdc0ul3wkhfW0H96Ku+uckeR2+Yuof3DN9j3/6WOjDgiOtofk7DMRJu75E5Apw4Eb/Xmy3SpTAmBhKUufbaa1W4r9BuTGVoZMZDExOT9FS94pDCoOmJFdE1Qtx3MnQ0N9VFmJALxGOO0TDIiampKdaI7BLFiFnQVfvkzWc+85lizBImyGrX7/y/7LLLshKrkEmBQ7u33nrr2lp4I5Ve7o2v+ob3VdHB+HsbMLBYY3LQ/JClaeYo4uI6AsjXJa/8R18PHTqkQ2J3hWfC0GqVv5OTEygpXSIdS7TDp+YSME6yTzY9ePbGlDcwCAFES1KBhrFkRN5sALe/8Y1v/tEf/ZHKqLB46lOfGlM9ULKEveaaa++449tra6yew8NhyTyd4i/dojPJu9pOKW0L9IjspkTajhYeLcMOXpU8XstWcs4991zlJMiPqb6RPoGX42lPe5q5fujY9PQ0W9uFDroU5hwj7jej3/E8hJQbJIusB3Hf2T3SKHDTiYDht2iYiWsYIHbf9KbfUIEsxFFM9UxTfQ03v/v2veMd79TiFVVNL7sabV5wrQVNDomYW5lk2D77eT1z6eDENbjVTuIBpxSFhHxRSf6zOsy6Jjls3/e+92l3wHzHd/wLqT4dmZ6eoYdkjqEQdk2MB4sIbUU2XcTOiAXKS9aI/DARc0cTXLR/XkrNyOrExKQltuw1zrBQ5H/296wSXT8KbkXS1zBnNFCOLV7DR10bj4XDO6ps1bpj8er0yBCFR9exqhMt2CPK7xPmiANSjnQtuq7wkusE/8O3b7/4xS/SoRQzfaXVspWezMxM0y16Yd8HHr4QPB7rihDiYxnejG5M9cbYGrAf9GJJ4oB/zBVo2OrqKrJKbWze/OY3D2wCAVPVQNwPn8x5z/p6+FlodUm9okskYolqDPIqRF0xMhh2v6+mGYG4PzTgOk2Jh/uP4iEFBltT1vDq5uTk1Pnnn2+StkPJ3v/+98fUoPjJn3yeLVVZW0+YyoahJEpzHauLQdp/wHQ6tZVTb227wjCMdS/zEnGBepEIItb4IiQtFsnMXl3ty1bR6mM8dIM+sGSlF3SMXQmtDqnMcDLk3cvRJ0nbszPgroBQEeQmq2FrhC98iYf7T6tlK5xzzjn2Q66hY3SJGwC0n4mjT+IKe1hfRwWbjgNxf+/S9TVy4uSknglvHz9+3Ky1vbW1fcMNN6pA/wIkSyt9vfvuw6FD4a1M4R+Y0Ib161DFl25uernF2UX61OlB+E3/6LeHmSt3AL4FkliT16BmhO7LXvbSWKIB3a79MzlZZaUPCXYvvfRS/Uz6/v1sQpempsIdgO6Cs3RqzxDuRtzvM2bYQNzfVeKVj4F0VcFicfRup1KfiQVdwj33hBdf3/ve9ypfmST6tGzNEYPWYPfd7343HSNpy2mSbOlM7JJ8T+nhIUXoqITGSN4R9IngWUbc7w8deQaRgD8pJJBV0rZG5F8Qs7PPPhuVjUUz4Vq7vqoDEPcNdh/+8IezWqUP09OTc3NzU1Php4Y5ZFEQ7wZSYbbqoVD+kMCgiLg/EIrNDbgDgySOeiforOzpSo8QKJa5VVgdchHHj4evZ4rHBgWhp+gTsiRyevfddyfhR2KthycN3pQUziJb7cBIMSLDKj2cDEhcq1ghlTGj7UD5Fem0vCj3ql0HAZuYiEJraVPXiYkXvSi8rcnCY0f/69JXLVtVPygT6AZr1sXFBVutTrGdnZ0jh/zNzc1cEELu9B6psSqgt4mY1U/k0pDSyq+dPtXcvw63pd5x7xPYx5w9yCobe2kzgHp98YtfUnqQXHbZZTG104AovfopieVgPNCCwUTHXmKv2WsXI1/QgRzxgJHbrYjcWk+FJav6KA6idv/73+/yyy9XsRw96iuyCro5ZSt0iMT09PRrX/saPQqGxcVFcohP0hytMQ5lQ4j7DTQvJGKuM5SM7gB17clEgTzTPn4TVJb0tddeEw836PQ7DrtGwZtCGN71rnexZWTIJL4ksbbUzr+mA3VFdNNYrkgv53ZEXQvyvSauQ4h8QsSsTkhRYevVAGl8HRlDz2ZmZi+88BGkKUNs2Bkned/73tfd+4e1YBXZgBT04Zd+6RfJpl3Setl1ejo8H07L1uJZOYq9Lafcep3W1haNV5Z4YKSIXR9g5xmIIvFYHcQaWxPL1Ud3uiL/17c0kKBjjAIqS37CCg4CtZXdNtjxwo3SfTDhmDIIcS2P7boiP0wh3VbVj5jsB3g/SNLYTgWm5+bmXvnKqxQYOQgY0Bo0ZrWjvDC1sX35y//z7OycusHqeW5unj5gQ46ybdqTptRrdmorEo+VIs/JEY/1GRvPQcRgXQzMMl1TcdArFuuW4HvmR/GDLuyyNOSAImjAhFlgp74qkaNpZj/AIjG1pxmlwB5++uQ0OD1TMFvEzGbjpKxTMzNTrF8XFuavuupXKZCmDNKgtJBqQtzfSTxWQYNf/OIXHzp0iEZNWafm5xcsTY8mWbaq0VzTJYRJqEA8VqAL85ZXWJ3RksA+MSpzYhrxVkNfi0uUEgKWVhpffhRalLjuIjYlNCEeDgWYZGIasod2nVHU4yGaMtL8FeQjgzLLGZNbITB93RekbDJomzE9Ozu7uLj4ilf8cixUyvubEY+1IAXhM595+QMecD5qyoKVdkPb4dF0eLUVKJIbr+7GJcxGLai9worU5WC5etitq+a29NhWlXN7t3OfCN7ZQ98qzkJZaC69VTguYgc10OUkyeRvStpuOuLUwyDEtQvXzNL29Cpeq+hqRSw0EGKTXTVqARCUFYnVYhF5Q9tIzM3NnXrqvV/2spcqRFRSZzVtS30QaVeHmsLRH/uxZ1100YXoqa1Zg6ai6HNzszREDjfpLKkpmdrtE91NUuVX15YefXgY4BI6ugqTg5PE3ALmOJGYNUzsVsfULnazQAyPlAjYeMwgJ6YGjrqkvymHELZEB/Fb1yXIwUTMMmKWEbNGij5NGQPym3K7B+9uELOGjGzHSjqpQ5oZNUUCsWoiF9aOxtTCwsIDH/iAN7zhdenN94oTbYMVMtjxSNrN5Sdo5aqrfvWiix41g6JOI+cBlHV+fp7K6cz6+nq2rSzlY9QdtVdYL7rkpsQSg4UBiqkKxI5W6Kr5UUun3V2a9m2QvaUthUZK6124oVuGldpl6JXilT8mruzk43dICFNeM+LhoWSoO9cd0XmHNewTxR5mu53SKQdwJsKAbVi02ruawv/JSakdAsv6dX5+4bu+6zt/8Rd/kfxUQ6okm5NDBXJQ/xVXXPHKV/6qfdgmfJ6V1fLs7OyBA4ts6Qy6i7Kan7fxpSrzdUfUXmGPmCQF4v6oUd756CUZ4oFdQr2FuD9wksPnnF/pZJ8oXyERtil/1w1opL6FryufaPyipTLbki6tOmaqQNw3YpYRs4yYZcSskWIQnW4bAAqSRMxtEHOb5cdUht1y2aadqQIdFnG/kZPSSmRRAJisSlvDw2GUTwvY2dmZgwcPnH76qVde+YqXvexllIindQgn/vRPv/BVr3rlAx5wfzQb7Z6aCio+Pz934MCB6enw8RvY2NjYFe/vwuAyrIhZY0yIqJ3EAwXcYk1JFstaLyOlJ6XH0gFiSsYE8tnW/mVqbYldsVeX7F49wDTCloN0KpZzemYQc2LbmVezc4Ic+atQGYj7DWLuEKDOVOmSgqoXZB+Lh0BGX4OyzszMsiXNQvPe9773ueee/Wu/9ppLLnka6sspFtQBakiJhHY1BM9//vNf85pXX3DBBfPz87YkDnUj29SjJSxCS2F7GrxjQlGid3J9qx27+pPE3G4xfxwih2yKOpmIue3o3ThNiZ3YSTzWGpXJFdYuxP0hQIGA6Qgl7oT5xy7pn/qp59vxgdLqZ55f9KIXWfe4U99HaLNtNdoUi6n+EMfPiFlGzDJi1kix70S177rc3t7e2tra3Nz82Cc/wcKIudZufHbANM+kC6TDZ6e3thg5GJhp+jQRtKXiBdbYPVqkNm0ZGhIaIH0dDMMEyqTA5mb4rWaEcGXl+J133nX06NFrrrmGo0BVDBbbn/zJn1xYmL/PfU7X42XOYqsxZatHRvbseZY4JBPPwR1IWHDG2COtRBHK0FwqWZGSChOd1tmKtm2VNCRL7jFqdNciTS1Wl4XLXYKB7uLSqneAyilMMLJdW1sj7oDE6urq8vLKK17xK7mq0q+a9wnElUtO7q0E29e+9tVz4fvAw6s8p5566uzsHOHMnMEWUkloa8+YqkBd0Vo7jBoXwqTHlgFi/tQIajQTmlrn5xcffeGFUsB4fjP2iLhWiZZsN+hhTJWS63nTs6pfXRchXQLtqkJLEMxBZE1cAxhfCRVQzsYGihuUmHUv3WFoOJFDDBw1MYCsg7mB1a6paggzEvY6a5BWBtfOCorOAdLUXzSL8ltR0fitKK+8KZ22WGyivIbqPjD81OulTSkxV1M792jeHv0tS5WeYECKEW7E2vp6+PVWZNVEFn1du/nmz73zne+MRRv0T1+1bJU/Z7dM4K961SsJahIHDx5aXFzgvpkjdF4Tu4p1ZLpi1JRQ46DUAhdO/+sV1+G6wlEhWtqIWQUYFRH360YBAJaIb3Gyext9LSL/Zubm5oMkhuXmLHephNCBAwcWFw8ePMj/AyxVF7XDgYX5+fmwKoVwtj0KtkrCh2jt6PxU+NGbcNuk21uaVjfUnyzlV11ut7Z0YdUeW3QGjMYrEXO7pfca2pKNAoWkBQh/Q5DaCzfhLhXOPffsWG6XUOz8wi+8PHQu/tAW27Dh7pxdFeuCTqNyzzPC4mpzbCRmGQpIiPsViCcUiIcbxNxCfuzETuKxzNG4347YRjNiiQaKhBTMpq/xux34K3VsbINqChTUfsEmKK7tmqJGlBPedUyZUCIo6wK71I+m6lEwrUlZe6F4OU3RhWdRfrRpAR1tSvb0cor1ND2xYm1OdWyImli1fGTbomoh7ncLgZYlZSqRw2RVxEdAxOXi4oFi+T69ralVtcwSxDWdoSdMG5agsyGm+d/2upyKjKr5WgVbNn5KYqlisVaEWTwDNZQTTyslFu2wMwoARQZpIIYJHuQUiSWphFRWejk/H15oCftBccMboIB8LXNJKFNrVjIpTK9YsNIElautbOtFUoEq6KpbQYFo5QbhYbe9zJxDtcVChnLqIjZjxCync3LWi0PVDs6KqQyxit1DEZfSSghCIAVL0NWor+H294UvfCGZsVyD2vW1pMJLLrmEWcE6Fn5Zi17xj/5bZ0PHtHV6pO/i2o+ZqFVcddQWhUXcb4fiWcQzG69lKk1CaPaHWLpUfWPt1Wha3gI8SiyJEMfxg7D6pZqQkJqaxJIkHf6xK9EFdNRyJLrko8Hz/CXKuBDiTtUq6kJ7hrXfBC45pkopsYDsJlRMJk0U7axiIluJ0ol01CmSNVfWkrWQrVBDAykfNJoKogQZGmK2sZyRrQSs1mFBkUiCLdFn2xB3JmZT559/PzpMGaFToN8fy0lWesQjHmZKH5ibmyPw6QbmZVcFuiN7LQ70XVx3lxiIRszqEIvcgCpJwW9vwQ3v8CK9sbFh71xImfGf4BSItRixakPVQtzvlqB1jXtPgsTiWbIawtoSQWhZxCKZUlAVSGm2jUfK4Syr9QRVsctcochRK3aoDbnLrIKMA7IYYD17A4GMuY2dc2TtDJyiGrImZVeJRO/WTvWnxB4jXVR3V5c7K9iokZMdIIgjFwPKBtv+ElB6N1AY5AYqiV9ka8hWq3QJqfwAUDASO0HELCQVXMTZM5/5zFjoZLEQX3Xpa+4dwlnLEOazs+HZFXAPTazbynU/scPRitHtVKHv7xau4vEdUVJhvZGjhlQnaeDWmaBmS0Y2v9iu3BqX1cNaMiwdIN9yIsqpTvbcphQ7Qw9TInW7kWF/M91o9PFkPzmlbaNFOrou9UN9Y2v95N9JpVSR8H8n1ttwM6GETWShq3QY2Fcx9T/tgnJKyBYeH5KFNRaira1E9pSmqPI0ymBjGgKKLUetQNioDJBmHNJQqifMNGQoUznZo2m3hFSyXlK3gcuwCww/jMP9AdPn2toaibW1VRIrK8d/5VeuzM2QKdHLm4f1IxypKpEMwuT8hje8DjVlAp+ZCe8Tnp+f15ut6C1mgVS4Uyu1NXuWTivvN1iM/mMWtphCd3IaQbYJu8cbmo/i5Ia5d1pVyJXHVM+kJqiTtK2HyAx73GozF3Bp5KuYyiitLVcN5qVh0jdZDTMCCbYUkBiQYJ8taLc66cQqZC2jHibSoY4qrEjFi1KX6AlonjU7Y3Wge2FfxVLnyVfdWJJ2ZE9NuCBDC8qwzVq72CvlF+l0UEadZF6QzUXOPtlDFVHNOpGtRrmRDhMLCUhlUk9IaBRsfBU7FldxiE8OtcqwzaZboTK1o84n6Dw5NhFuswLXvLy2Fj7zuh4+dL5y5ZW/SoHsxSpB59PXg3fEBz7wgVxtVEVC1sBYr3zlVYuLC7Z6njl48KA+IYC4bmxskEkBnRLO79xK5TbP0ach6BpZycW1eYVceUz1QKqc2kiH2d1+14KtrkiJMO3vuN2OJ3ISW8rbfB7n+gZxIuCPTRAhocJsyU/pjtCJ1enUSrqu7ii/nFQzEyx2w55EN7Y178XOZuNg/vhRXdsma4fdNNvuJNk5TBdWIEBCI6IE2yI6mqOLQRlFcgPdqZ+UQM2N4QuyqtBgaO2pPku6MLFooMPoNrqhBNtQuoEGl0T4E3bCKIfBtrQCzorFcSStRBXSWVXI2iedmDManSeHbZg4zLHZctUmrhurq8ePHDn22te+Fguk8nRYW+VUl9jsLzFTQ0wZqcIrr/wVBHV2NnxxKZpKemFhEYNRADSfl1isrX36Z+0BICu5uDapkMuOqW5J1VIVac3rXAhpgoFrYZdtYy5gy1xAXnxkSnG72NANTiHT5JO/4bVPDmmuD/vBTuE/u1Zmx7yvtBJVSGd1Cj2PqVKaWrsjspeTqy2Yz8A0uJZeQ8W0mBfIJ5PRIIFhuVIbGWogJ9RjFYd5VnbGsFh9cnIq2TlY3I6mEsnOrYyso1k6Go4RpTjK2DymekM1EzJKYF7SDDSgpjaDQYgnjbjK6ETBLvlsgbEgbjSYjKlNQSGOLBFQIo0ydDp86cRysvbJnZI9RP/Nl8N0ob9cOMtWbVdWjn/ta1/7rd/67Vg6Q67bl156aUztRA+Bc4VpNKYy/OzP/sz97nceC9Yp+4bwQ4fCA2FNSgyAhcnJe/2mlFumIztXNPIgwWhcgovrjgq54JjqAdWpqsyGATyPS1hZWeG62SWNEZRQqFipba4b+1MDMBb4GAkuXAZhgzeTY2YJHmwTfpggMKC9m8Bst3NGEOTEVGtyp/QOlxRTBj2PqW7RVWTrURPBdraOwRz4ldkZs5IZ/mJLLEw+aSu8neoBDrFLwiwX7UxVpOV+mjVsC+wGxQ2pgp2LRs4eLVIsP+pgxphqkPOB7lC1VCUwPtHB4C4vLzN8jDGDS770NYRTePEllMT+dq6mjliJYgfbEzJkUhu7jLXG2KIpvFcoRZaGSUPZ0ZCVj36CLsVUKVwCJdnaJYcNV42ysrWXYDeWl1e+9KUv/97v/Z7K01XZLdfn4iWomGh6gakAiWc/+8cuuugivVURfZ2fn11cPGDiGiZqM2wIiqb1JGqMi4pGHiRYiUuoV1wnrrryypgsJbVxy1e/wo0P46HByEIO+RoqFSYRz+8byYe6RjXQWxIW43EeJ8GMv7YWbjOBO01ybFIIG3ZXV1ctP6xr9VIKE4cSVgb15YwgITrRTBJy2FqLNKjOB+upUW1FNt2KKmU6ond7Zil2j4vXFpgMKYJlsNvqani7h5l5HdMFE2+Gd4KQE748zkaBHL0fhCmJu39lYlpsChzFsLi+mZh/eGx40kiCXiTzpkToTbMeckoxM1FyaG+gAWpF1j1KTKFiGmUSzAmMggaaeGGMGGUb0ICN9ebq6vE0pmQomsjkEDLEclcRZJFEItSmISaT1mjRtnHO0exEVupkxYHLnlJCaKwCVKXabGtdzPSEXfp54MCBs88+54YbbkglIZUkwVbpcE4LikdTznOe8+yMsk7Nzc3Z18KE34vkqPqgSVvlW9FpB0roqPDAoFeyAzYxzw0TNPlsE8qfmpo+68wz5WM6tymjtHLNVcVFxtROUrEqQ6jCVEXCJmVm/Cl6zuWirEzreicCx8mhJGVsCghfF3rnnXdS8N3vfrd6wiHZ4eKLL15cXLCXN+ZmZsKCldsRM0ywGDfXuLjdaE9gRssPji970me2oWcZSi6kWLhrmtqz6fDlSpb0QT1PlehEzGuncOgEM+nx48dtDg1SivdiUspgTGSVqRZD33nnXbjee97zHptMw0hxOmDnhYX5Q4cOzYavm5mmSnvrY1i+cBSjmpcGO8+E38sLD8SS32btXDRvOtSUkuEYLXKD29QBcmRPaWUHlaE2YE4gTWAxmjbQIaAsvkKskcABGHfy8YG77rqbWCOgqJmjGiO4+OKnLC4unnLKKbP2oxGML+NOPoGT5hyGVdGkrUZZrZNgW33UVL4cuhdTjfLZnCzJGumSBZed7jBw8mPHll73uteTr7NEsrY6ny4hN3CJ3DWy+7KXvfScc862KAifryNAUFbmpRAl9sSILcW4hNy5CQ7R7bY2aXV6U6pYeMBgUi4B52HL9WIZxoIE+WwT5MNeeyycq4frjKkCqWTb8VZJqiLBBbLlEggBfcX2ysqyef6G5nTCgDJHjx574xvfqPKqRKRGSahdbbESiZ/5mSv0tQz4NPZhdmDLJIDoYklgl5IyKeXZWmWRkgvJleydnGHTdWXJlanYh2RnjMw1kdCqlAVK4w4mgM3xHDLf+MZfpzzpeL5BDiids/NTnvKU+9//fIxpWitz6jsxkp3DXx2QnTkxJbK0vaKSERkVkhkFlo+pFuTKQ9EIqQy1MXAYnFEmweDaQ6BVEuza0DPi3Keu/d//+/Xf+Z3foapcQAGZqQkSVM64wNOe9tQLLrhgYmI/azCJhAVQGOXGQJ8MKE5Mo5lqKyeV74hWBpRNOEqCLWAB2cTYskc14V3ESOxXvvKVd73r95Mpkj2DITKdT/kkUn62AJdwxRVXnHfeORYCenjOmjU8DcY4GA3LMARZ+2RPFx3ZoXh6ke4MOxhkSYzDljEKA+PiWiSVLB9vFaMeEvJm+i9f5yZ6aSnM+LpqIP+b3/zm2972drNwWRQl1HrassziFhL/RmKxHtay7+/dMR2Y6DbR1/ILgWzhrml6XbmLErmSTVtPfU52ZoslcRsysKitV44vL69IWZlqzdIb3/jGN3/3d38vWNlOyXWA3ZSTbJt24clPfjISi1GxMya1OSX80nvDzuEvfZD3Ul6dJ6FKEm1NWjxltMgZVtYuIVcechZIBaiKgTRltRHd2FpaOoaOMuIEFEs4hAT+6Z/++fd+Lwy0TszVr8qz22wBhu8nfuLHTz/9tP37WY2F5xYEEDdVIZwyAaWB5vRWo9yUtkPfilY2VM91pVw+dxcyEU6vLStY8rEJ4bC0tPTlL9+SfoSVU5IRIBkhaw0VSInnP//5D3nIg+3qmYrDtcssCwvhl5jJpSDNtbVMdTs0Pb1I14YdALIzbsOW0dHQNIbsJGGicnGF8iFXMeqhn9gQt+Pq8G+c+/jx8EqPLmEtPAJe+2//7Y3c6OksnchW9Ws3mxA6mraAxX7kR37kvPPOnZ8PL3uwls3pK1DGXs6Oz2qspkq+mwp3TVOT5i5K5EoWm852WDVwCpCPk2BJOHbsWHgpdX2dfKZdJl9uaN70pt/A09IpVkG+D+wqR62ktkgojQ0vv/zyQ4cOLiyEh2DYGQtjadnZ1rVN7mN0bqKtPXPlR4ucSSFZuxXFU7IW0FFVwpZpnQkDJT1+HLVY3thYJ6AYWWDMv/71r//2b/930nbqjppTWpVnt6Cj7CrBQCOxBw4cQDYY6zTKNs7hP6KrVRqnpAFNtbWi7dC3osSGWfvYhBPfh6Et4aAJx15yIijWjh9nFftV/e5yMgIk+6SE4BCRRc9f85pX24Xj21x4eEREmhwCgS2moLANUHubVLdD09OLdG3YAYA9uQpMxBb7aDhIkM82QT64uJYNucrIXsC1cGm4+vIy2rqEi3O58vhbbvnq1VdfnU7RWdpV/dmOZdM6mrZKAG0961nPOu20Uw8cWGTeB2YE7KlJP0F5zKhTEqmSIsXCnaLrypG9oorkOkkNZuOorHrqjpFXVlYwME6CnbmBufHGmz/wgQ9QhvJqNG2VSKR8NZSay+1i5+c+9zmnnnpvJl+7j4nLGuyMtbFwW30VrQzbtPCokDMpNB39ItkTZYGUoxrYSlnJ5yb16NFjUlaCi+3qavhmInxAp6RzcwnVnCycdrPF0u6Tn/zk884755RT7r24SECF7/bjhtUCKryyiMoyyjge5UtGOUvXoVRuQ/WWMiTQVv7i/OwytRICZp8w5bBrEBcYbBMbfvvbdx45ckSfZKU8kNBV0FXWqdysn3nmfbmT4DIxviZmiujCMQVuPz8/zwxNa5xV0RrV7dDWpKJ6hYNHHoWt2GJh89ihF1f1NdbSA3LNRKs6c8VoPaYyqAw1kOC6uBDr7DZ32UePHmUtxWXi5rfddvtv/dZvcyB7VkpkG2qaVtPZbYIyF1/8lAc+8AL0NahrIE76tsxSkIRbSwpjTJ0lml4R5Ip1Tc6w2Usrp2nHdDpGJsEVMava66yrx44dtbeAhkcF3/rWbf/9v59cx0C20dSflKkE25xtc7tAmac+9eIHPeiCxcUDWNieD+tnf7SsCQ8T5bcUlgGbXgUUzduq5PCTNW+iYpCmc9PlpxxqAEaZHBLHj68tLx9jBdZ47L953XXXv/vd71FhnZXtSUqTyA4lWyWy5E5kBJ/znGefc845WX1VKPEHveFWinGmnvJRFl2HElcdUy1Qt1WMdJh07KMETK78x0TksCGNCTlIKRb8m5vrFKNXdFs1UJ6tTRJhJcohmzHCyhXIMYkNu1w+hOufCJ9npQYSVeygAhUpt2eiozoHDIblKuoV175/FAfkEPVSsVqKxVQDnUXfSODEWJMtu/b8KqxZsSkevrKy+vrXv6FpE8U6szlKp5xc4bT7+c9/4cwzz1xYCO9uJc8GKRw0u2JY/oV9oVNEbjdBV1sd6ojcJVv7kZjVglYFsC1bhIy7Ziy7trbGHQx36ro3X1qKb1xSYdG2LaFiqXDxLKrFzve73/moKr5pJlIxNrirtifdWGelRBbOtdN3HGpacsjhKmJqJ63yE6lAsFTjwlOmAsqUlb193D+xSE0vrzDQn/nMZ9773j9U4UTWgCmtRHY3m5N2E+zSOsr90Ic+VGu1RnaAhF5nIYs/dNIym5DyKVNSrATOiqkWhA41YDeEuk3O+sOWzjNjI414paXtvmBi0u4Ywr2CrUJ1C85tYkhTgKsmviwRXlLVjSNJu8kIhaiZUVD9NK3m1IdWlB/NUbFwR3UOHron+zCOeJRcmvzgDQ2Uj7WH4qM4QG9iLT3AhcWU0arOXDHIXn86aiYKd9ncHpIZngUvLTEf2IwfXva48sqruGSdSwES2ZpJt/rOlIR+4CK1rtNThZZ3r8svf8b973//+XliYE5bPSLWsor/lMeYKixShUVyJXuhunmhVZdUWHcwOAP3MHo2sLYW3h7JrLuycvzVr36V3aHnSQ1dcsklSrQi/ZAI3WjaPTKf/exnn332WQcPHqQn2Fm/XNswdfTkrKk7MnJJ4aGiqXESrUa8nFQnpzPETPgkNuxTN8eOHbNb1fBw4p//+Wu/+Zu/pZIinahEle/5K37DX3YLDM2LX/yie9/7lPn58DlORhllYbA1ykQTA50d5SK5oSwp2ZSKNlSHVZg0CdASlr/kkLC08gOUVGd0xUrQWTpsCVRBV8Z9BH+YiffbRYefjKQSyks2Uj25Ky3S0bW3rQ06NeaAwexcBSZji8V0U0giDZAgH/bOY2H5YpGK1RZP50R5MF0lsby8vLKyYh8ICTD1X3nlr9L5pu22netz6F1/TatS5rOe9cxzzz2XGYF7THt/U7jTZJJiKsDICgnsqVOA3ZgqkC1WhVRV0+6JXsaOanU6V0DazBzuYDAySxnm3KuueiW3MippZ5zs0tOe9jQlKtLqt7qoGbDMC1/4glNOOQXXxchJXIEJiIlX3psM2JGRSwoPFcnITeluoFUn54I9nEAMto4fXz169Eh4/TB8dnl9aWn5V36lyeMxndv2JjVHktgwrlaDtoJJCX09dOjggQPhS3QtoMImCI29+MrwMV7FQRTFoWxVsilcfkxVQN3WKaSZjmzL1EQe/6WpJEKmnUHhoLJ0n3zlsGcXFK6Jvuvi8GSulhQVssWv7ZR4LeTYiS3p6JJF2zqhi2oHiWwluzEAzFFIQBiJHsR1VB8LQ6tqy5ujVxTAcREwvJZ5fnV1jRWVGTM8v/qHf/jHm2++OZbeSafKCg8zVCHtFvt2882fe+QjH2n3JIxrmB3MkFiSYQuRIzvH0qV+XHKoSMXCxQ5XRCeanWdIM8naN2+ssk7Fzjjor/7qVVLWLPKW3u2sTKE6P/OZz2JngmcyfqVzMHJDUsNWBslum1I8VFJ4eMjZpEjbAiVwLshyrFntgzfx5RWCi1vVppUjqw996EPjTmU4BT7/+c/H/Z0Q3Z/5zGce9ahHc8PEuNhsZILT+HZMyrC13jYZtWJmq5JNaXqZ5VC5moDgj/vJCe6oLftMCHYVelws7LXWSEhzlOnDythEYk+8qFynqmblqEUlWtG2QJEqp3RR7YChhzIXI2LyFZSCfLYJ5Vd8LDzUdxPA9cRUHWCXmLI3BWAZ1qlr9r38yAD6et11133oQx9SgazhmO67mPETT3/60zU2pJUA0hrIt7/9d1ZXjyM/9AJ1Z0rinz0WCjezkLpdPpZdU3u19Jkt3aZmdJQr4LowdbgbNztzB0O+CmdhwVqLnbOQLzv/f//f7zL1o+haVNmYx23WMZyOwHTAdIOFGVPzXuwZRpl/9t7gJo/9exll0OnyW7ZKCFr/2te+hqjTGY01ORZQYbApIJcYHoKk2jQN9jKrCClkkhy9QsTWsOQOyGS1EwqH0xp3i6SjXtstheoHNdoKFa5CrM6IWc5Ohl1cO6Vt5FCAMMPzmBE07xODKBmh961vfeuP/uiaWC5TVY8TgXjGM54RUw2oX03Qk9/8zd+yVyLDks7m/ZC0WWv0Jv10UYCd2bM7hvAOJuxM4vrrb/hA44cnzQZ9t7MSWPaf/umfbdoNr6zrXax6/ma3Mq6vXaJBZCpfXw+vttooY9Ktl7/8F7BwLJShloFm4ZtGFrJTPPfHq6urrJ4VSmlrLhmgjLY5shUmmpbsHckSaFcqCMokcAC9nJkJ7/s1EQ3amcPElr/6jirlhWeVklhQ5amVuqi9wj3JXhPXklFPQWITAexngl1ZWSGfHKaDt771bSqQpZaJQFx++eU0BHE/A5HPAtpmfAjfDGXQtTD3x0KtyQZSvfRSbbpSros5V9dC5nve8x4dypqiXjvH1E4Yck27WNhm27CaYRusXHhI4JQjc5HAYiye7M4pQBzpfsVUtv41a5bc26BS7NOxt7zlN+lGUlZ6ol7xVwVUskjJoT5hc9FJFMsQ9/dlnwyDdDZiOQHKc7yoqUK7CZURMavyHNK0QqcpfZmRc2jYRMyqRo+OXvQDKiTG6IbCjNAj8MLMGr6OPxDLGf3woWc+85kxtRM69qY3/cba2qqmA5sRwnTAP2xQboeiVXXh0CoNVrBfBLW65x5uq828do9gUxvm/9a3vhULZahxwhVN9VVmvPXW2+wJfEB2xhM4lDVyNl3CACw55DCubE0IuFUlgNbScH/+819UmSy1D3SrtxkzqN/4xjfpEnKveylQx/gfC9VNp/NbU5JThemygcS1SDxsZE8Xyiknnlyt5xXrdEQN3rBbtPIJORbE/Z2wTMUpmTxZtDAZaGIl3m688cZYIkPtcwEkfc11kvTaWvj+ijAB2I12mAqsd7FEM3IWKNYZUzvTHdHKzk1JskTXrcV9tihfDdJqv7735je/RQX6TdLXYJEG7L7vfe9j3M28dDbcbLFR90CnQLoQpxysGgzX+LJcs2R468B73hO/L0LI+IPk6qvf1egPvbP/jWAHCmhbO9WDpYRkrnK7cTRHPNCaWrrnVGG8DN0Ip/D2lnX7uafGxLp17bXxm7ITnX4apEfoxOHDR2yuD9BV61joMLsqU06V0GpFxcisDrXJ2jbnhs81cU167m3pgEr24w4mUbwoenX33YdZxmjo2QXrTtiqgErmsHuMk/FSr7lGizR2MGlvX8BbGVzsySG2t9xySzycoU8DzeJVY5HtlVCX6BvDjR9quFWqWFgMz7DSE3VGiaaopDOc1CyuLTx2N0kumMJJymUyZrPC9vbXv/4NFUioZJ9gUdU0Nq6++mp0SF2yWSB0Q31hN/zZSe1zvXqViLlGTlpakc5Kc+76+ppMyzXddFPzzzj1CS1ecxcC73rX70tKzQ123MSAyuSocu1DS6uL6hqZ1MYXu3Grqlso3TaR3n7HO96pkoLyfb1VbXqB9I27KLuxCx8NsM4qrGJkFSm6SqfIT0baW5y6GJwTmHM3XxMMEpv0mejjF3sSZuwW38o04GWrwD56LBzmKFMjpgM6qKl/8BTnmrazhtkzYOfGT4zZ1XB129dcc/LN2KKvy9ZW0LfN+DO9oWfqoR3pQIQap+wRutYDxhkTKh2sGb4UFy9u8ibh/sHitelwoPGhQ3b7ZG9iCKGkQY8lDPxBxP06wJ4i7g8H1ftTu0HGkOEa+35DYKHvIbZOhHcSal61wAsfgBukP6VPjORavOOOb5uUhl7FyarZrDEMcZs60KozXJkZPMy8XMX8/PyA51wofjIHsO23v30XM60sbH0M72vdW3I5COS9bDGpHJVt07cy7QqMq72vIiiqSWzY7t8/UM3IhQlod8B01HRd06AaFTFrnKj9mod/fgpzPXGmNSLcdNNNaV5QYjDgwXJiJYC0vQ0kLqTYqoccyXZskJ6qXmVRqEBKK7+ILQ2jsrL50pe+PEjzJmTbLGReffXV9IU0PVSvuMEiaWdUQvWMOZgOiCYTLqyHTfa9+93vToeA9ACeAz396U+PqQY21Pu+/e1v6xkV6OEwh7SrYlXoqHCRXJjkdvuK2oK43y0yZtxxqjGgMR4m9tmTqzAXhAizr5KJRwaOXBayuxbJ4XUsTUyke4+NAaBO0v+UYILFzvEi7nWv3Fe3w2CeCZtRA3G/kUMCS8vOoLyGzceRMAd35mnBaBiMUEJcZTqCi7QOi4GZVGOa48iRoyb84YEwPSHRtj8dGmEY0VBC3K+GhUAg7jfLcaozODfqbrBjqj6okvjaCt9/FKYDC7Ydt6VkDv6FQHkwkN4ffh4rJOiaHRxVsO3mZvxefrtj2OXLiSY2lDMxoa81D7vKt34GlNkUlYw7o0CfOoxIWbUMbli5Ko/W7NDujHXxSu3VHzoTfFCdahRo3kPNUV1MVsNDFz0v2s3pnWF3oPIhT1NhJ+yz11jDapWbWSYFvRA4+Omg1aURG0z6+8MPOoYC5vbhnUE6Cl1d9UDRpdmKgY6HntNn9kiE/Qah6EBQf3LYHHQyn92mxYrE3g/cYQZDR1OzCjPQWAPjYZKGykYrKaGcfhPipICO2DZATuMCK431UEHPqxBLV6Zhpfoh6suJ5YaL2qzR8UiMOjiS5gKG1jbxfnYYkJdrowz+63vQbHdkoMNY2ObZOL3KyPHPblC0ITnJtpauKq4QThvBQYmpdhQnaJu0IzHLoE69C5e0jXK4W7VEHOiUGCQ2OIG0yyZ1JOWLtFu8OuWImLXnyFnDqZERcJqS4Y+O34nrE+2NV19C4GtplSWW203C9WZjXonhJ3UVM4bbFnusTVK7sm0wcQMrOwiKzbFLb2XkhqlbutmegSsVcb81VbyOemyUo7iCDfJuDnQOXakul9HO5ewuWLgp8XCGeKC+eSB4QIOY5fSBwU3cFoddPgeo1wmIf7bJtezbEHch/nONpmvMXiwLKv7xN+63xiaxXZvFCoSe3HPPlnpupg6JYeihOiO0y5aZK+WIYTLmcJGd5XNWwn5ZGw4YjSDE/QIcIdhLCgwDJqM7iAc6R9YoEg87zakt8Acnrn0luWBbd9RyykoFJwt/Cg73gQ98IKYGSJqn6Evqj301dwfBUEUS7NojMasm0s2TemG3BfFashc1YEptkuwMO6xR3lvqrGLqkaaKeyQjmLnYhN9KU84uEvqRgQuxt62Fv3SPHHpdu/MLtShi1i6xix3Atk2Jh8eGsbtgLVsNhQAuuGuzZG6OVtq6FP7yf2pqypyygx7m6iynfx7f6EP4i+iyJdW4tMj73pf/Puc+kTVISqdrp1fYmS2HchLrlJN9FqXIYqhzo7y7WASF1So3qQzuxERL7e/6uZqTCBLaekrJHSopuTcYmcvrJWLTuSS2t8NXtBBrjZvZ/fe5z310dBgIC6j9/KOHzAUBdV7bIScXLeEaGotX+H/+n/+kdG47GHL6anYOvQIzctyhU7HQnsautD0hPIy4XwBLNuyW6iQvf2937bXXxlTf+OAHPxhTO5mbm5ucDDEFCC1bMjt6GtQ1yTJtUUmI+x2SzlVC6FAXxCFvRizRjLYFxpDBmaN365d7TLZ+JbI5ggrM8TSx8j/snn766XpYJGLRPsN0U5yD4JJLLjHVDx2ZnNSyNdxTD6xjdZHWAXTcrvTEWWed1ciJE4F2+4rsLFNrK1784hdhW7qAG0xPz8gBOl27ZCscT1J8YT0NKNuf+ZmfUeYw8JCHPNhupALT09Opnz2iekTM2g2yHdjdnjhFdmjPAEjROHjM+eIHRulGI+LCPW1xluz3y64WFDuCQTnf8R3/Qk+xJiYmZ2am1cNYwijmdEpWQqrIiTqWIx5rAbKlmlPg8+/48VWtGxKYfWBPhgUtAv0/44z7YkZdy/T0FP1UPmU6Mi9nxdQYw7Bq6S9nOfPMM3t00a4JzTdgl3smwpzusdUtFGOeBrpruj6doMih/OCUnTtSj1fRlN0auD3JLpiS8RvAEDZtgkw8ko0SCJhF3fRP//QL2e3OxXuBRkEJtlNTU7Ozs2EmCOxLK1dQh5XunRjZHS7UsljHdxAPREKOXUWc2vg/NTX5vOc9j2OyM6ho/0C5rWt5uzHJMutKD1BWm3OjnVU4d0o66ggMgom0TeNIWpkzM1PKydLXJ8N6JqwOQEr/5E8+zx4FE+aTRBZ9g+3tbR0lzdYqqIpOjDsVSMZRuNlH0k6ifBXolE57XgUMElMtMPvtIB7IUH5F8TQjZg0dtRm2/ivs65zZqXMnOEvDydYmVnZt2jfOOqvJvfb73//+mKqbXM3pii677DJ0KFxhmPRniH31KhUYZtRJOkyCrSViGguzxzR3v/udx26acZTo9wtyaoWtIP3yl7/cuhn6NjU1Td9J2IvxAw14mishlckm0u6QoEFnazeECiaY+rmf+zkVGAzqRiLtnnfeefSGsWZrr7yGLpKvbZGupa4pcjbqxLW0td9sDz9+xz/ysj/enMoLLqGcWM7pFzVYeLhitSJduxdnEWBstHZhLUWYsXaB5zzn2bFQg+6aaMsHPvAB636AXW3FQx/6L5F+TQGzszNMCKSJvVSYXZWsSDZcB0D2WkhqwUqfQQ8J5uZm42FD5bNn1UireyM6Mz8/K9uyxQd0s8UhtmSq2FBR7BU5TYmHK1Cj2TEkTTO+ErDp6cmzzz6zKGB9uov60Ic+xLZ4OZdccgl3qPJAxpi7KLbkd2SlrknKCqRlja2tzY2Ndf7ZT95uNLaIK1G+49cOBs9gzDI61DBz7n2DZp2GtGAWgKCw9uiV7SmnnBILZaj9lddshUwH2RmBrszMEP/MBWGKN4UNyysik51YqIFudUvgLIg7A8euLHQ+WDkQzI2R2fzsz/4sBXJ9q/0hge5glE4Jcemll9pTgZPdk7U5pJK58sND0Q16hCtNxKxO4KxguHALZSY0bKAnp6enn/e852VrVrr2l9ilrCK1JR72sIdOhB9mQFan5ubm2KpAemiRK18XKfS0JDWDTK2trR0/fnwjgL5urq2t80+7SKy+QjItYZ29wa6Jq0IR4n7/USyFwAqEKYDWWbhwS8u/M8+8L7kqmaXVW/x7pNjWlVf+ik31oWOzs+HzA8wARGmxpCKQbZVQVKiLmNVnNKY2tgG7ovAPmODOPfdsMlUyS433MamqMM6ZQVfmox51YeiKrarn57Ezcy52DpOgChQpt3M0rhGz6kDWU0I5IuU3peRQn9BdFO3aKAclw5L8Pf300xoFThqfRI0DXYzN1BA9WVhYsPu54HXctoYh379/a2tLN1Ld0XSIU6OQCuiB08zMDMdJrzdAZYUtYTfC0tW2gJtxepWgLhKcbyfxgLN7DDoUd4UwG2UmHcJM99r8IQgbUz+Lqp9p6pR1TQe5eoi9FJazs7OLiwv25Iq5YHp2lqic5SAhl8rsIgrXpsQSO8G2dDuY2IwMTHB2HxMM/TM/85JYbie1rF+Lg5U14E/91POxrN7EhJFtiTVNZ7EzR9VtlczR3ZQ3QnTqZtiKrc7SKLPJDPfkGWfc5/LLL7eyeWoJqFaVqEsvfenP0Q2Lpsm5uXl7PhweDqcOW9luKHF7gatIWfF4tJxddNTUdENbFJZ/LGRXV1dZv4Jpa4AlrCovbyKLdadJYeVD3O8PWFLE/d5sO0x0Fg5N2X1DaGwg7vcTPJ6G2EIUVrvXJgKZZM855+wXv/jFsehOepwOOD1bgzqQ0jT9mte8SrMSLCzMo6wcUle1VWECFZQWud1y+hFpuQBOXYUwqAYXpS1wseeff79nPvOZKkP57Ck96qtOL16mmmCYH/rQhzLgdIZxn59fmJ2dZqnAUXKy3eg3wSjDNwd1agFdAlsZENLiFdCziy56JLsqTBmh3d4DKqYapJrhOc959plnnsktlPxN0U0fkTpysiX7Ae5HE1iA5lBZFPTo0aOmqWGpir6aqgbIWV09rnyEFXHd3t7SO4pjXa2xsAuE0gZtJZSTLam0M0gmrrryypgsJY3iLV/9Cvf++KiCKosCzA7p5zLCtAWxinb02wNS/SSsV/wVpEI2/xcWFk477bSbb77ZCu7g8wazc9yvTPlEgLle8YpfZjVFNDIvzc2xaGUdG14UJEjYmgnLbKhrKC+TqFhMBNNUo1htyrkn/jZOgGwlTj31tL/9278loWLZ0zH+5z73uYc97GFxvzL64I3SJKhcaYF5X/3qV+lVbWb+xcVFjGwffJrc2tpMdoZ4QoGSQ4kqZcBsEKhYviOoNqb6T64t7bJhtsAYpP/1v37sX//139jBvHG6CyjunzhLaSrM1ck4XnLJJRde+AjUVMp66NChubk5iiHzSJcmLhXOnSuaZhZpWixNeklZWZguLy+hnaTJYbWKlJKDviKpZqhoQOprTKph/lQnW3VGZ9GWzcrhP3rakNT4bDlFgCppe12Ubltmb8PlMwRsZUBZkny2CeUzgZxlH+Yut9jYiWvqUjCVzQLK1y6HTj31lE996u/ofDhnJ5ToaOpnumciUHPCGo+7Sr/85f9ZD4TtZn/6wIGD6Cv5WDIZEHRKCVXKQMVinaJqsU+2/sZusKxgL/7dF6bdT33qU7pGstIpSmBnqGjna6+9lsLUE+o1lAbt4pNXXvkr8/PzWlfhwNxFsXJVx2k0+bPKN6X8KLQtUKSLU9qSbDgANJa6CmuXoSRwYkCx5dC/+lffRUCF0s0gmioOtGRVbQlrOewqAYzsM57xdOKIdTNDbQ+BTt5CaeoEnWJ15GmVnyNbTFeKJ8sapuKBnLKyOv3Sl275X//rf99440233nor+sqtnh7o2LQ5yV9OD3OoQZ1NO5OaU4ucSjEqR2GVaQn+qWBEVTWtMFF+tCPoBM1DjXX2G7oqD6HbsiMJ8u06IsqvKK77TmxtxWQp8o/Nzc2PffITBw8ewHnxITlBgp7Z5MU9Y3gCA7Rd3nwRuh5T7eBSY6oaqWbZiK06aS914Pobev1jbW1taWnp1a9+DZecyisBpLO7T3/602OqQfbzBrp8iPsNUuYLX/iC88+//+wsxgwzPsspJn2bC/bTH5lU5e28MigcU6VUqSqRvdJyitXqXGyIqc3M2/apg2Bn4LZ9bW31yJGjr33taymSPaVpo0U7X3PNNTHVaD31IZegwhe/+MUPetAFek6InQ8ePITQ2iuvU/SFzKZ2rmhSkTu3LR1V3hHVI6hI9RFPKJTYQhjmbQY6wCjrJcbl5ZV//ud/futb3xZPaJDaIgEYkG1xoNMDiaKFyckeYhBf9aqrENOp8Op+gGXrwsIiB7E2HaMAJUmrfJHqg5JqoM9sZQQyaRQjsLe6uppVViaWj37047fffnv2RIL9+77v39z73vfmJoCoB5wTqISuNu1nag4owAyBpWlLaso/jnIe2+DTVokmarZktrrw7qDamCpA95RIZdRhpYcQDR+6hoNgTIYMH6bP5AdbN5Bvz88vPvrCC2XYeH4zxkJci3XKZGzxfk0I3PqRBsLg+PHjhw8fef3r36AT1VB2m0UXqC1HIXvJ4foLFsBWbC+//BmPfOQj7UEla9YgrgcOHEBfrYYwwLIqJYs1tELly8nWRlsx1ayV7NFyOFeFUyXalZE14ZoL8TdMNIgr6ZWVldtvv+ONb/x1ldcpJajyVCwllJ/tfzbnuc99zoUXXsiEi39iZKawxcUD8/Nz2IruUQaa2rmKMUXuxCpUr7xTit5enbZDUCTFCAkL+jDO/GeIwzDbe3lYpX3pS19+xzveoVOgOIglyLxFI5OTPfRrv/bauTmGNSgcMMqoV3ixZXKSnrClGGZX4UR3A5EqUf+5XnJoVNefW7NigY997BMoKyVzrV900UUXXPBA4t60dS78n5vDUel2sasyMgm2zMBst7dPHD++bOKqQAtHOY9zNT/TpaCxYWIOfziaq7MXSkynfkIqQ05J+V0H62GZesV1eK+2LdW9BBOIuG+wSw0YyNyOEAwOjS9iX/z7lFNOueKKF3NMhRVC2uZompmFArky7D7zmZdfdNGFKCtto6w0yi02ocVl0Sgjm3pb8TLt+iqNpvojYpYRszLEA+1QD1v1k3ygbwpxI3w0gj/Y+YwzzvjZn/0Z0rF0hlYdSA2pZqWh2GdafOlLf475yxap4bYPC9v7mOZUgGihBtktWxVUNKZ1ofmFjyJdXEuyXmOIw0ZjLbPj25j9wQ++gLscnQIaLEi7SnRnTJr7hV94OTdMhDDNTU+H+9S5OZaw4c1riBxb9TCeUAep/1llZTZGWVdWli0d3mTEXfvHP/7JO+64Q2fl+MpXvkLXqIbCTOPUysrEjuSdP5mImvFkyfbGxhrKShPcPdiDt/AJH7Qc7M4mQEnKqjPZepx+04/XXMNWhZUfq6hGR2NfvXI6k61ZJ2pr+WHh1agt+DpzxIEDB7/v+7739NPvc9NNNzWKBZTINk067WbzhXJSPkF41VW/et559yMBYSawlwBBcxNRQYLymFGnFOssQq+gSsl+QLsySw7ls1VCRbgudu14+Dwi8+D3f//jDh069LnPfU6ZkGpLJSGbTuQytcuWml/96ledfvrpaYpHVhcW5m1lEI5yByo7C52eKOY0pWKxImaNvoxXuJgWw9Ensm3ZFbEbtuqJOTIGnzr11NO+93sf+6lP/Z1m+SwUyiXAzg0orcyEchjHF7zgBZdeesmpp55KGgipxcUFe+wffveCtigpl9Mp2iZyuxVJZ6l+AlnKqqfBpAUC99GPfkxrVpFrDvF7xCMeIRcF+ox/munocrxrYSsLM4lR58zMLFtrK7yAZSKKL4cVM7VZs0FKdQqnZ8HhU529U1JPcolUpq5G+4fsw5bOB/Vq2JBtQvn42C6+oWlA4loRehJTGVLH6C3NNtIhky294DqQutNOO/W7v/u7zzzzrJtvvll9Y5u7rtxulpRPgoZ+7ud+9uKLnzo/H+6pbaEcYok1q8344RkO4aEBTue2qrkpHRWui/J+pqONAqkYrrwfi2JkLHPf+97nMY95zN/93f/CvCV2ziWaggF//uf/4yWXXMKCidlKDySCroY1a3BdZjGmJLbUQ9NNaytvIlGxWCt0sT1W0hSqjan+Q/91FbqQbEABeZiZrXn49L/9t9/38Ic/4h/+4R9SVOosUSUtyGFYX/Wqq+573/sy0IwyI2uvrSyirFo90ytaUUBZr5rXE1MdEiY4m+LoRkPtVrVmFW2VFc4666wLLnhguCWw99ktLi7isTKmOpxQc9yKUzM6ytoUFceN1ZYtWNeXl8MjYkSXkuYAVBNabNQWdps6vDKzVPEfisVUAVUCcX8UoLdyFblNw4YxSIXyK4prP15zDU/5NeTBul3ZlwuIqXZwwTHVmpLaZC+26jDoShG5cDcYImQTx11ZWTl27Ngb3/jr5HCWLipdml1lSKfOpEMCg1xxxYvvdz9Wq8E+DCKujg1tzbooi6ExVJ6qwp46N1dVW9KJw4MsrATXmF6W00uw/CfNlkmBieHuu+9+05t+I9k5Xb4SbJORUyKBGbl9Of/8++GGuCKzOeUxL5Mv4mrvIA1CvrnJHUxUVs5KTeSoYslW53ZE/4asehzlKNq2LWqLExsBFb4SwYYbwlhrXUVgra4eX15e+eIXv/Te976XU5INS4yZO8TgvuxlLz333HNMRMNdKYPJfRSjzFhrIqIbQFrnth1rCnc0EDgttdEQCdDrrLpawJ///M8/mlXWplx00YWPfGT44BBTwSmnnDI3Nz8zM40qM1FkO0PfqFNrVtoiTI4fX0FfLXY4tPn1r3/jIx/5qH0xxfFTTrn3E57wH0477TRW8Jyit0xjIrZYgwQV5uxQvHBajKnWdGSuIQePxSYMBI5U12uuLq5x0ucC2dJnu1BNCpoRwie7TWrD7PC1r/3ft771rZwF6dJaXSZ2oIUXvOCFD3rQg0xWg8XI1FbPrzAXRuN02rM7oTBaFFAN0LTmErLnDoBs92TMpmgIKBDmITM19pTBZW2sSzamZsog/5Zbvvq2t73NzBzrVEPaKjMdMjvf6yUveYktAsL0gRGwMfbEJVmtsmY1M4dXdmmd8sHQZqgS81a0ZEkNvVCx9XJk9i6Qbbm0ZOS2pCFWGlIokclW4mq3UyQDpO+88643v/nNFC42lB1rpTXQL33pz93vfuHnbphsGGIMFYY2vITPkjV8hzBlVGF2oKHiSLW1vCqnNtoKV5h5BxOH7BorKesDHvCAxz72e9A8ieu9732KnrVwN2/eG7pBhdoyXagtlFVt0Qo5cN11N3zmM58hZ2lp6ejRo6wE6N5znvPshz3soQcOHMAoqQlNzjKLdSFSvGS1W05bQ40QGlAX1x1w8THVmvLaZD4SmvTBfDj853p1ISRoh4KkCSQylpaWcWK8+dixpQ9+8IOqRHZ47nOfs7i4eJ/7nI4/czeNBQgMM1eIc1lJUUQBMhkFKkweTxnrV6RTA+ZOHxIwjhLJWbGkDG6exW64j+E4mWb5rfX1NWx+5MjhlZXjt956GwU/+MEPpeHGLM973k+wUjnjjPtgRyyMJU1WMWSUVYR2dpbZdhpjk0m1nC47JyuVmLeiJTsdoIrUMo6YN6a6JRm8CmpOp5AmYaMchhjjK41yMLgWSiEH1sMXFa2iDd/+9p0E1Pvf/37OBUaKei677NLTTjude6MzzjhDay8tVbEPYx0eT5jK6mMseAK5RCsnkl9xoHOkU5qi66I23Mtc9eSalXbZZVtFWe9///s/9rGPsUkAZg4dOmivE4cJgRqyfaDFpspqbN1ww43XX389XaIY+cvLy9LX008/ncU9t+9MNdTM1qwXbvFlmVi7UbxkaoupdpSba1TQmDISJq5hOgKNNduE2XxsxFVggphqQXmFsmBK0HNtuWoSXLV2KWC72AE35iiKG1q2tWgYEopz7WSFed0WqCSwAJma7vlLjs0C3EUGA9IEyN3Zte7soFMDNq1kSMBEbGVkNpgLG2M2coK7WBrzUsQOyc7hyUEw80k7h3rwPnL0mFeO17Bz2GVLju5gcEisqFaydi43rMpUodMBqkj1DpQgg/dOsH410hArTQL3ZmQZbgaUXaKJBIcsrMgIPkAOostJ7HPhNtbxpS/MC4xq4+YpHFXs2LhP4QMzMwx0fAJEtUrQgWRD7VakxPK6ImqjJ3YV7d/B1BSU9Xu+57vlnGAfcA8bDtF/OqAO0xbWS0+DuQs5dix8kyJlgMQNN9x0ww03qKQgH309cuQI21e96qpTTgmrYWqAubk5LKPbkaxBcterEaxOiblGCEyHTVxcm4AJYqoZbWtLp1MyWZP+sxcU0ySWjWZ5mwvCLSo5Ootrt7+hGi6Xs5jeuXCZhQPYxJLh0z7IKtpKmnzqsTgKZVSySKcGbFXPkIAl2crI2s3aWeYlbfk5O4cvo8FclAHMwpaLNTvjeNzTBK01cEXdwYR1DCakHjxTlpR9SqzaqQE7HSCgCV2+0kr0g9RKj2DqmKqAGtUppEmwBUVQGE77xgMbd+UH9QU7G4MEe6pBzgUsjI35v3Og460qsmGDiyecfOZv9UTDarc6rUZEveUozYXuFp4Gd6SszJRoKy4Khw4dmp9fsAsMNwdcgkrSRFJWbj70HcVADtvrr7/xpptuwj4qrARbDi0tLR0+fPjZz/6xhz/84cQBsYCVFhYWSFAmmQh0sbou5ZBWoiKtzDVayM0YCwbBRjOIKAny2SZCrotrliq1pRpUmF2TUi48zAhkYmSb9wNcGgYhj4IUNqUMY2AXy6Qfakg2IdMSYS6wp5STlKFOyph5wlHSraBATFWjVW10jy1HlchRPIti5R3rmtSBrOOaqWXnk9Nuwc4n+4NZKGCWjytaDGk+GZ7XMYmwpU6mbitQ/4IVOh2aBK3Q+ZRWoh+kVnqhPLiKpEZ1onYtoIKIasxtWJUIaTJJqBiDpRPJbCT0JX/BVsBI2s3rfmRDL7hQjZXR0ZMB1ekApROL0FWaoELmN/PPDtas6oauJSkr3WYWZVV54MChubnwpWxcOBMsWzupubLa3B7WrFJWiqnaLHTV1rjH/tN/+o+sVukw4XDw4EEWx5iHowoHFdYlk5munbQSFSkx2gihwc2Kq93Zh0FnNyH7j7a4Ci4mptpR9LAcFatK9VBeZmULZuUw11tmmO45BCoMKqaLJYE1SDRmgRDtWAYXJ4khVUBltC2hUwPmKsx2Mgt9iKlqTbTtZ6eoY+oGaRI2yQZP01wZ7GuTL0k7I6DymNHSQVyZL0gHa9rEigPa7XmogIJpHlH/216pilWh03HJQitcWkor0Q9SKz0is1cntZtOJMfG9GTsWOLkQFsi65OcEneTqRv3SGGgmWdA9bObG2hlKlGdVmOhHnKUKDb/bKKsH/nIR1t9U0Tqyfnnn5/WrGxR1sXFA6wp9TookhmuzfpAK02V1dpaR1nTJwMhJRL09sCBA5dddonu5g8cQFnD59CogfqTrUDN6eqUQ1qJiqQTRxpsiE1cXJtQdK+mVKkwVaXCMi5/bS4QJOKkkG2XdPZiMQJbzJIMRXnZQ9pAjhVsQy8GFLkrgmy3RbaVXMdyh1RJ086n+qHi1ekU9Yc0CZCgJjvreKvKlcb79KiQztopJ599pcJVLFmx29D7uJRTvSclZI3WCzJpR2SbTqdriLWF7EBbMXZVsAkYHBhotvZwOL4okAYaZLS02xFNDa6r0JabNuY0eouyrqwsMxlqlitXVlB/isrKmpXFt61Zd3wpG5eWVdalpSV96oYcFPa6665HWVVM5UV2d3Fx8dJLL2EqZqKmuUOHTmFxTAphJjNrn+JV62Ir0tRoowjWwyyYKIkr9s7e/AlywcW1ORXrTBWqvHaDdQ32NClYkQATBZkYIe7bVKBFlSzAoZDVSIcinaPTq5DtP2nbZS5TZui6JXbAALKlhdQ9JbRt1XT2WorVVrnSdJb6rF22IDvbQXJi5/mfOhMMai+2pU4yVSmb3WzryqlClT5Xr62cKm31gozZOxqaTsm1nh3flCYBqKxlZsurSEQGZ6xtfG2AQ3zFNNtsuguKA5E6rwQzHnMgFD/P+md/9pHbM9/InyBH10BCyqppM7tmLSorzZFvwtpEWa+//oYbb7xRbe0wUGaXNevTnvZUZNsm46n58KVk4ZtqmIFY/tJ8rqs0TaPZDiiRyBond7RotxEF62EWF9cm5PyshK7r1InKDGbO1JNNJzAIW66e0crm9EJbY6Y+q0tszTn4F17iUo4Sllbh4FWqWQmGj7QNaUCZJKxw+z4USeeWkzqWvQqlU04GckLHtKM+p91si512uEpvuzBCKyoapzuSSXukmf3b07T17OAqoRxmGO1CsbncQEMtYw2t7K/uadtWWSlT0nT2HUxSVq1Zp6bC+7CyysqFM3/i9bSVexqclFUlaS5nJe1mlDU8ybG2Ds7PLzAN0ArVkq/yCfK5zNSH4qhlTZQ9ms0fdbAeJnVxbULOz0qoXmciV7lqyGaW1IlZYqpbqhiw2Bm26ZkbQ6ddNhwydwnrbEEu/kQjasiGkWR4LVNjai8bx9x0OR0NaxdGoFcxVTq4uW7kGuqok6JiV7uouRVdGKdTssbsjpIhKKG83VRnrlirtlqNdY9j0dT+6pK2XSsrmVyLPs/K1Fh8GsxUqddZVZ7C9uQ5tNVqzaqSoMrjTsNoKOtTn3oxTUhZ6bn9NNA8cUzGeuMrP3VKgg5wpakbxVHLmih7tKnpRhQMiGXqFde9Y52KdOEQGF1olxogZhnKaYpOAZWMO5Xp6BTG3m6BAuziFfgBESXW1laJ1dXwxWlsSCodduzv8ZWV4yF3jZ2w5T+Rvx5+WiOEN1WxJexpxSrvZratTjSfYQIfpD2LMmOJBjo3lujc2ruC7DmGxEEqhE9xrKFkrJXojlRPFo2ItjllJRgsvMLrrElZc6hLbIkRrVkR0ew7mLRmRW5zykqxrLISswq6orJCMQBR1osvfoqWPZhLyjprP7SF8ait6cVCul6hTIcBjKluaW7uvU0IzRZ+Vk6I8kYwqxKh/HJ0Vj/I3lttbYX32ZMIanl8VarK/6Smy+F7pZaVzrKsA8tBYtFafc0v2yDK9utVWXEFtasOtEXlKxLt1SDm7jQ4KDMW2okOdUSstCuv6JEBNLor11WCWfpkl+KwGcpRgSzpkIollFmRWFeGeCCDfFXborKSlrJ+5CPxO5hy3VBa2+ynbpKy6r3B3FFwv5o6IGVNT4OlrBJyKas+ddMUhWFDWalmh7KSJofg1YMoneIMBjd3x1g07Yhqi9MdxAMFcieW07YwcQVB68LzivAJHwUSsipJtAVoiFJpJGppmSFhhF+x5t/Kiu2EwmEF21DioK9RWjdUSfj5ayaFpLK0GLvSN8zYLYmFeqNkvHLEVmtq1ykGS7RvgXRIxfoKjs1WyoqPEwF6Gkw+OUTBRz/6sZL3BotWn7phEYngZZWVaisqa6vLX1xcfPKTn2QNBWVlm1VWaqPM/vh2RXfdwbFHxHXwThMC3Yj7uwSRKYhPOkNMsgQlnIwgkJubQRGJ1iCY4WeqlpeWjiGhS0vLx44du/vuu+6+++7Dh+86fPjw0aNH7QuTg76axEpog+ga4XeYkXA9JWYikK4PQF/7Sm5yd5oiV0/E3M4xMc0bXJkQ9/tDlfoVSiTSmhW/z77OKmVNT4Nzpki7SVnTmvXAgUMNZc0/DaatrLISpB0pq9asjddZw1teCmvWIOeU7GXgxoqGnXo11x55QxP0OMt31FaWVu22qpDy2KTpWR3ZihrCTBA/O7ufu2oMvrKiH6JipOKPzFCSUWNSkELeddddpN///vdzDmPKUQaO9A//8A8TkIcOHSRKp8NPs03Ozc3qY3LELGMKGnS2jLPekcFoh7ZtpiARutUClalCeT01Ur1LiT71rYuedEorb+yaiuGmdnWBxT4UL7yufnZhUppWbOLkhAZ7xEvu86zl324o98gqK8FCpBw4QFhFZc09Dc69gyncBZc+Dc6ZXcqKiAKVs3ilLSKX1mlOykqvtI3ndE4Xxhw5NPSMF9bSu1UYBcaFfBwjQT6M17uFIed23dFRi6JVu22rKp5Y3VZpyDE7ZzEVEJzIKotNgpNh4pBJLGzcfvu39TN5DKKa4CzVA+RD3DFU54te9MLZ2bnFxUWGVK/lIK/2XoywtXHmfxhwCqvC8v5nGy2hvJLeqdiNIv3uWI6u+1mCHIZt3O+BnM9UQa0roZym15jtXrZA9W53ajrVrO7h0ISJlDW7ZiWQ/uzPPlL+NBgPyT0NzikrQUr9KkxzzKLZNSvKSkMS189+9vqmr7NmzZ7ewaTKk7JqHqbD9EfN9ei6ndpzFMGwWMnFtRJdBD9012KVtkpq1rjGnQqk8cbmuALDQljqbb9IqQ0TmxCxt95661vf+jbGLp7ZCDNOzPZZ6dxVsHvxxRefffZZ+r0OpglgcJkp2CotNyBBtdQZz2wRzNkCJfTiME2p2G45tfeqLbV0u4QSh6xCzls6IjXd+zU2vYpOq6USLochxpOJnKbKWvFX5LJr1p2vswZlZWKUI9EcbeWUFVlF1kncEN4avOO9wSJr86Ss3OBSLbXRVk5ZsQMk182apfroZ8/aw8gBsGeN4jpx1ZVXxmQpqY1bvvqVGftVRQ1bFnJAh1RY+bGKzsk6U6d013QvLZZTUnNH/VQ9jDpnYWo8gKg8evTY2lr4RUz84Z57wnsuyHnNa17793///1N5tmql2FYqoESC3S984Quf/vSnzzjjjMnJCcKe5hjTeLiBKsQXUjqbyNI0MwsF2papDk7YS4U6NxFzB0i/G80N9yBJTfd+jTY4O15kYdxjqhqaqTirR2V9wAMeUKKsVCOHpCS9ZQoloLLKqobYXHdd2XuDRY/KCtVHP9Ww5+FKMaBdbxQ7WYltQvksK84688yseZsyFnclewZGl61WovhBuIna3FhZWSZESRGutnv8uuuuf93rXqdi8olwcjNyh1RYKAdP+uAHP/jf//vb7rzzzqWlY8wCTD2ND/mEe22wbugnDbpfDHUdwzaHRGKWM9zE0apvvGJ1RsyqBh6L33JWLcqK2qF3VZTVFkU5ZQ3NVVTWpzzlyTllnZ+fK1FWZ1cY6vkI/4ipbunUveSUcacyVVrp/VoEC1O2RBTBSTSu2Xt5kTmCilj95je/+cpXvuraa69V4UQSy+6grXe8452//uu/ceTIsdXw4dfwwVmTV0Rdy+VwGx5LD5C6rJpgKEXc37vUbrqRQ8rKWLdSVsLqIx9p8g6mnIc88IEPfOxjv4dKcmtWE7+orLJ2Rlm3cspKHKGsTZ8GZ5GyUklS1oMHD83Pz9MQTbuyDhV7P8AsECIxqx3yzkTMLaVK/dVrawqRyXTAFEAUEZ/8IzKXlli2buqtwseOLb35zb9JIp6wE06HuGO7T3va01JaZHeVzkLNX/3qV5kRUPT19fCBAVu1oqxhtrC+BWLpTqg+NFmKxpSFRcwaTYa//3J4iPujBo6Kk9P/rLKurCyTFijrxz728aSsulK74njJSqOs3/M9j0HqqIfABH3qRuInZVV5WkzKSth0raz2boeTa1ZbH5MOn2elP+b7ocVcCFtoniTmOv1kqN/QlKMWn2gqG+VUb7d65V1cC5UzClgew3L2ysoSaorIEZyo3MrK8de+9rUcUh/YZiHn6U9/ulVTxjXXXBNTjdlEpHFk+/SnX3b++eeHH9oIP7WxMDdHdM9OT8+wsXgP707EGVQ+C5kxtZNiyYq0qrBruu5J7dR+aVXo05wr9xsquFJ6xXDjr6QRPO4XWbMyv9m8tUNZ1f+sbyhNvj0NDsqqeY9AWFhA7aYZPnaJyjSOFJaycodMWzll/exnw6/IlRtqcXExvTeYysFeZ52zpk8qKyVLnKcLD98VVxw88gfMixUZI3kC8y35eEiCfPDvFq4NLCjifmsYHhH360OBR82MOMNv31AY3hvMitFCdOP1r389iabxiaxWUVZ4hpGtRJcDcf9e97r22vd97WtfW17mHn9Ti1fataVzeC8V/hfL1UdF4/dI9hrHE9k5EXNHDblrjnjMwEU1k6JPuG5SVnPjALNn7psicjWIpso6Pz+rXSmroLmGsp5ABYkdmmDiTmvWz33uc6oztZUSgjXrU596MVM/zQVdja+zzheVFagZ7NLCckiQJpMOJFRYqJ9NiSWczhkl28XRzhAPdELWZTsltmrErG7pogZiY2oq3LcSkPyzp8HhlU7i6KqrXkWA5QJGXHbZZTFVmcsvvxyJJWEBvgMVeN/73m+33hvWfghbBa/1J8xclGnamSKpzirI8omY2wO6KBGznAa1WBiGyry4KJ5Jf9CnIKTh2w2jssqViSO9g6mVA+ta7FM3QVkRPEBZ7ZfdZjHaxMREUlaLiG2UVe2ur4c1awjdEMBho3cwlQcLyqpfkUNb09Ng1qykmQ1yykpDKcHlqC0gbVoeRJ1OUaBihDpdU0/8NBj0aCWXGjbCdNIgZlXDQnIH8YDVSTwAQUJEWZAQulv/+I+fJoRioQyXXHLJpZdeGnc6p2SxS7u/+7u/t7KykuKWyOWf4lYdo1in0RsvuEA6qoQzinQaCBY6O4gHSikvhlvik5SRsqKn6R1MOC3bpKzxhBbYN0VEZWXtiHbaN0XM4KJZZaUkzUlZiYmssipkUNabb75ZdULqfPYqpKxqiMqpTe9g0pqVqiic2gLyyaEVroX7BgqQBtKNdSwXG6JU9Tv9wyesLknx0xZ8HeJOBtWQUI4OFSEYpqdnTpwId6PMAxYbJwiSz3/+C9de+z4KEFcqKdKblXpBq151XqEr2GW+eMtb3rK2Fl43InQ1N2nxCioz5DQdFKd/FA0eAqMFsUSGeKCUWLQl+ddZ9Q6mTpXV3huMigVKlJVqWykriezT4FagrJnvYNrxWze5NSsRR2coQA712ycIAlwjNNLhs3OoLR2zXoWnxGrI6QeV5MHpnRD6pcGvIGkKMcC5KCuhtG5fwa+I5dA73vFOlcny1Kc+NaZ6RmvfFIQklGZrt8DbhKsmC5s0wn+JK1sVs/P6iAwrYlYFOio8tpT4ZHdomBIxt8/ICc0tw2fYSEhZu1iz2i+fR2WlqpyyIpwkZLSMsm43VdZPfvKTt95662233aaai6CsT3nKk2mlqKy5NSutUIy9EIGbmysrKzRhahogoZ/J0o87UwDolRkkoOac2nFx7YkUSxXpdEIhANgSAAQz8cA8YItXS21tfeMb3yChAmlbo7KKSy65RIkUhynx+te/AbFvhCs9omeaT07qa/+w+XmHPZVThXiCMzbgkCgTnktiba2Dp8HJ2x/wgAdklVWvs2aVNSwnmyhr+DxrUVmTEzZtd3Fx8UlPeiKCSnNFZaVOTldbtKIFK5dCE8ePH5egGkFiWcVaZpBYWldPgL6Bmut3qI4n9YrrmM5ZHelrF+D6BBXxQ3CurobXTky97nnTm36Dowr+7LZ2Wr12S3OErvWHSUq6Gj4ySN9iicr024YDgEsoIRaqQEeF+81QdaZr8E/UjvBBktAee6d91TWrVDD73mDEDJ2zT92cfBqcxFJt5ZSV6EjK+hd/8RepsFDrKZM16xOf+AR7+1KTNSt1UlKFaYX+kKBy9JI1K1CAptnlMo8ZR48eRWFXVoLumrCGp02UUSetTad+9kLkDANh+rRpKCVqhEAiDIAZgciQslqQbObUtJaXWpvSVLaJzLvvPsyt8NZWiFIi1sKVTfhIbizUGk0QY0JTx1BmjnhsaIjdGk2VTX5L/ycmJtfWjkt7LIKqPg3OKSvaqU/dWJ0lT4NPrln1viIpq+osonDQmhXZpi3WxzA/v1CirLRLWzSArOp7SbWLjn7lK1/567/+m//xP/7qpptuvvPOu9BXjpJvwhqiFLBP09B2emckA2YwyImzxAOtUYBlE0UqVpXA9YkrhQHxSdiSR3jccEP8DlKLjohy+kGrj/RcffXVdMEmkxSuTZatRYN0ZIQ9A3bIEnOd/tNwz/CzM8FZjT/7s490pKxIHdqZ/dQNMsZWQ0kAooI0Qc20gtpxVGtWKFdWdePgwYP6dkPa4laA5tKnbpKy0hZb2pKy6oZbyqo3K9nu8Q9/+E//9//++zvu+Pbdd9/95S9/+VOf+tTy8vLx48fpCQXADGA3wjZvkLCOOLVRb3jvwh0Q7tWKWKJAELcKxNIZmma2oqQDHXKCKOYPUUBgWOiG6P2DP/gDHU6kF0cHg6xEf1ZX1xSl1rHwz+aZk4uGIh1Z0hkSFFaJmDsKyN/s2Ur4Qjr56mc+8xkkrcRLIX2eFfQ0OPfeYLYqSQhQIOhVQ1nZBm01PvvZ60uUVaCsT37yk6iE5uy7gpOy7s8qKyXpv5TVWtvKKevx42sf/ejHjh1bUrWCIn/7t5+iAOfSH4tTfyDcX0YpQjqlH/Ef9KRvwqDKRcwKMhUTIY7sFU1mhg37GZx4YFCweI2dM2Luve51xx130CUmKQvdsLDmb8nLrtlzO0VNi5i1e4yWwIwtuCVShL+gK0gUW/nqF7/4JY6WOFL2HUx6GixlRfmkrMkBqBDdNf8/QWBmlRXNQ1k/+clPqmQRqTunP/GJT5iZie9g0q+sS1lpPaesdEbKqrYKyvrRI0eOWN07sGXryY/fkIBhiKO9Sp2zQ+kt4J6iokfWNfkiVEZ8hsP2S1+6JR4zditCaBfe854/oF/sqm8EuZSVXSu1p2BMRdzPEIaoQDzm7B64KAOBW66treOSWrSRcezYMY628tL0jfw5ZbXB34eMWSK4ATVozUoUpN+6qaisAmV9yUuuQFBDY/bZWa1ZtUtbXEK2LXYlpdWVVbCcpSZOV4SSTitvp3bqFNexAgeNqa7g9PIackeZAYhV5giiggAjhpWf6hnwM2HI9lCTl8V+VFnNBTlSb7PYHFXmhzpLxKwRxIV2F8E55Z94kJwIPz1w4IAdbMIFF1zQSllRo6LaUXkrZf3EJz4RoiIj4UqnLSJ6xRUvlrJSObWhrPYrcrS1P9fW1NQUCau8ubIePXqUAhYrkbRL4qyz7ksjthe+/V/6Tb7TD/ayuI7QdGbu3lI5OISmEj/EIwFmSnZP+Sl9Qo2KmGWwx0RAQj3kqOYOxxkG8EYT14AEksQ555yjnBwPetCDHvvYx9h3+QaKyspWakedFLCQjMq6saGPpZ1UVtUJiojcVspKJVllZSFLmpyisrLbkFJ9rqa5srJNpN3zzjuXa0kNWXoimcWpnb0srv0Gr835cREFRi/oAQ7Ra//00mZ4S4KOirbd6Cu0nrtMdrNd0tHd7aRTOwxrU+LhdsTSDWJu3cg52RI+7KIrQB668uhHPwoZU7HEv/gX/+J7v/exUjvIKevGzs+z6nXWra3wHgitWVHVsGjd2kRZP/7xj6tkQpqaSMqq11mzykqOlFXNcT8tZTXZDsq6uhq+EaKorEIniph1r3t9//d//+TklF3I5Nzc7NTUNJnU4HHZJ/rl0059cK/KsnVDkUlaT4Z1bEiwGNY/7bpf5emffgwbw3mlKCwdA6QLZTUlW7j44osf+tB/ichRYH5+/vGPfxzKigIhqxRA56SsegcTMqYaKEwASlmLT4PRPJT1ppviJ+VaQaMveckVrZRV72ASKCtHOUXKurKykpSVnJyy6hSls/zQD/0gF4JCo6n2CJpE+Ip/K9ukvNM7NYfBUE36KRJ2l5I+mHMH4n4zzKRh2dpIN2GQZs/1trEbtjZ/hSnMXi4alzdKmJflicec4cCCDM+cMG1FvcJDUZTs1FNPecxjHvOMZ1z24z/+3B/7sWdecMEF09Mz6J2U1dQuKCtejapxokaWcKNATlkldVLWG2+8kWKtHjuDlBWRQ+EAoWuqrJRMykr9UlZWrWnNurqaX7MWoR6U9X73O8+UNTS3uLjIddkhLii8BEvanbZ29r5Bw1RnxP3doPfW9XCYeghwBUOWYk6fUENsE2k3XaPSbLXbO8xlIu6PAlhAxH1nV7GhwC33oV5atKFY0tcDBxYPBBYRPHI4RCarWBRobg61O6msqgo/zClrep1VT4OlrOLss88u+i0N/ezP/kx6bzC1HTx4KKesobv2xoWistJKUtY///OP5J4G5xLw7//9D0hZaYsm5ufnuHStztfX12qMUyeHB/8IQADsjIF9REr400C5AyC2Z8SsDMq0acgj1mkDazKIO3XcgLZCbmnL1nBvahITv2sJebVtABljPYfIkT5wIKgdxSlcVFa2WWVF7XJr1iysXykv2JWyUomkjkRxzSpTYBzKkMgpa9DwgrKGgGyEpBLaSln1WBsWFsI9BMLNpdBhSTjF+mf8ccZtOiB6cV+FJWGgZzi2eA21KWLFBz/4QSs7OOiJIJ3W03SMaYuYpUs6usfiVpIASivTqQVcRWTTrdApTUkFUjE5J+qiQ+gauoWjTk+HH7exxDRbMJUNT4YpQDHUjrNUCS4tZdU7mJaXl9sqq2D9KrLKqkZbKavaIl1cs9IcyvqRjzR/GqwrFT/wA483ZQ2VA8rKsjWk7Ce2FKEUU4tO7bhZawAfTcSsZoSwbhCzKkBhTeK6y+Q/Ofe+9yk6OgwQq3TKLj0Ivwg7pdZwnF5IbpajaSbIG6Wv2khiQbIq2ENeiTU0rJWybm5uoKzr6xtVlDVx4MCBl7zkCukcTdNWibJylF0kEPSpGymr1qxJWSkjrIUdEff4xz/uvPPOpXK1h7LSVmh4Inz8BrInOokaTdLBLD/qtIq6Hsk5qFwW4n4dEGy2ZuUKICxezz77rHhsgPzxH/9xTO3ksssu1cqVyNVdOZm5VV29BnH2NtVDVSERd9ohJzR9jcpqCWlqgARrVipEL1XSzjuprHg1ymrvYOpYWZ/0pCc2XmeNymrfFNFSWakcCUTFs5+6ySmr1R0gnd1lzYqy6rrY0lBSVi6BqkiofHXrOZ2yNy2LAzUlHh4R5P1sTVzDHv8twQIxfG23iiUG8GQ4dKLABRdc0IjVfdPT4ROBoYv7aotbqy0Q9x1nJ9U9TY5EeTxWEstfKZCkyI6HhzGpzqSsiB0qmFVW1K66suq+k/bYoqxzc3O0VEVZlW6qrGxFaKaBngbrctguLCzMzc1bepI5MKusTl+pZ/pz+gQhl4KHtJat9naMyZe85AqVGQwf+tCHlEj9EWFOCh+YC51TPHOUOYKCscSehquOKcfI3sXKOMEzMlbSbiLmDhY5MK1L6tQTYQ58sldZZc2tWSsqq36flUoIDpojgbLOzMzQB3KaKqskMK1ZaZp/xddZdRU59A4mlLSorBLppKy6Xp3l9IMRM65CV8SsYaWp63cNYUCF3GUTGyTZnnXWWWzj4QZJAgfGc5/7HOYo697+mZnp0Lv9+01cHWd4IZoE6eCyDbRrRdor6w033KCSrWDNmvkVubL3BidlVeWFp8GruddZrfo8KOt5551rqrpDWYlKqmXOTDNGukanf4yFiUPQNIhZIwUhQc/TFnQr+pznPCeWqFvLc0iziX+hTKAbetMEXeMfu8wV9IQyMrW2vfStr9flODhYImYZSBFaiLahrI1viuhYWfU6K6FqAdv+HUw0mtasWmjamnX1z//8I/oNn1wns+hpsJQVsspKtSkkS2pw6mUkxUbgMa2IJYYYOXpbFH5sLRHSepQV/k9OnnLKIfJVUprH9gMf+IBy6iK3GlaL2j7xiU+cmmK1OkHviGmwHsZLS30rIRVuSpUanHqJIVQgHt7TZKNJa1Z9nhW161pZg9C1/qYIStIKgcMuRtaa1d4bHLS1U2XVC0Zgn2c9+Tor0C7NqYbyoHPqYmSsLBeJO3sCXFzE/VIotm+fVq7hU3okiJyzzjqT3WLI1aivTZVVkH7EIx5B9Fo8T8zNLZjiTzAfUSpdV8mMsAfI+uTo+qfFViRmdUXudO1araNhGd2hsl6cmZkhrTVrd8qqXz4P8VDtaTAmovLGb93Q1smnwVLWpnAiFNas8fOs7NJnarbZI8ApKTCdfjMWhrbojsSsYQJ3L/d4jhIY6CjBCeymxIte9CKVIUqFdmt553DxFdxUPzzrWc9cWNBzJ6YPpqPwAXy6xBTE1EGB8osqJ80FTr+pGBTlxSy2aqhnF5FvS1l1OenzrPpyw4rKuri4iLIiqB0pK/WjrJBT1uw7mJryuMd9f1FZmSGkrDRBZorEXkLS6ZTRsDXOF1Pdgldlibl9phZ5UCVsgZhR/4kk0kjaueee88IXvkAlc/T45qZWp2sOYsp42MMeRgDbk6ipxcUFpg8Oph6q244zEuSUlQQqqNdZO1LW9KkbC40myqrooGROWe07mI6TsNa3Kirr4x//uPPPv58qZ6vPs0pZqYcmyKSYTR2xXWdgjIu5cbUsMXekIE4mJkKQWIK4DfeqxBL3rZdeemksZAQdNm37Y0OZHcFZqqEpTED/5b/8AvflCuPZ2Tm6EnoTft755BeWQkkljjMMoEBAQsrKNikrgipl1TdFVHwaXKKsISwtImiReCHNXJRVVpqm0ePHKylr43VWezEmfG9w88+zqkVn8Pi9zAhAeOiuUzegxI/CycJ4Gm175CMfTk4qrETiT/7kTz784Q/HnXa01WMa+k//6eeZMkgQxtaB2ZmZ2cYcFR89abvnyV7mmFzyngQpkrIiS6jg8vIKIgddKyvaWfFpcFFZc79105T0eVZrsfnnWWNR98xdYt+Jra2YLIXRYswY+4998hMHDx5gRBlIxiwHmRxiXCkMOBDEKnpgqNaaXCbbTrsUlac15RVyOgXYYlX7iavwxaeEPSOyZiwvL7/yla+mgAye20I6BE9+8pOVEKhvTLXoZzbzBS94wQUXPGB6Ovw4F8qKMzCJEOAMOv3BAWhFJoLUYitSyRxtTxwSWvV/tMj6XvaKWuW3IufDnNLUq0uqUvkurJoaSueS06oDCRybAmxzyrqxsZ6U9brrbrj++uvjCS1oqqzl325IWyalARKN3Q6UNb03mIayykoTUlYFURfGHEMwGuZiBOUzGn1cQh6SIB/m5xcffeGFGLzctqMhrsCFxVQDmoupDMVitaN2u2iIcYqpZrStkNMV/xoIbfi/tkbwBg4fPvy6171eXqJTkolyo1DSk1aHlP+sZz3rooseSRQzxMxHLFmZRBYXF2jBisSoVrtth77pCIq63KbflFzCaJHcL3tFWZ+seKVt64GSqlSyC6sW2yWHdK7pLHJpYiqrrI2nwdvIanVlfdKTnohktlJWuiF/pkWmRxK0RRSnNSuBzPzanbKmb+R3Ze0F7IbF6hXXUTX9rjvNrnSA4addvW2Yv5P25ePcLiNyc3Ozp5xy6Jd+6ZeI7VRYWyUSmlOa0uoQ+TT0kpdc8chHPoLVKmlT1ll7GDVHAXmkbLLrQ9M/uLQc8YDTINpl4JaJre5sF5+MqRZIWW3a3PE02KbWrerKqm+KqKKs7NIWlWefBldX1h+wb+TPKmvuUze0m0I+Zw1nwIyM9UPcZIi5Y4YuXK+8EmCKMSIWwQNC+rTTTr3qql+97LJLFV118ZSnPOVXfuUV559/P2YiotfammPBOj+/QDvE9ubmhqK6+tCM7SA6JQTPHohjIHUZZT2BnOppcBC6sJTc+Mxnrqv4NDh9UwS1HTx4KPc0WEGRlFX1I6tr9k0R7NJ0dWXV66xZZdWbCsM12B0wzanwYMzolOADMDIobBSrIbbsh6uINFJENaHLlvXrwsL8RRdd9PKX/2cUUScmCD/IpoVymsI0ccUVL/7u7/5XhDESzi5NIasEtv2sR1BWJhG2KaoT5TU7w4mJTSRmGTGrGbHEqIEzE0+I08bGxtLSMoJqUofkbaGsEMs1yPlzep01hGKL9wZL4ag2KatJ6fHV1VV7FFybslKVXU6AhtSus7v4GIwYhE3SV22JNgJM+kqK8F5cXDz99NMe8YiHv/SlP0dOPLPZI+ISJib2v/jFL3rNa17NghUdpVprZRpdJbBJ0DrxzExEH1RtLqRL2sqVdJx6aSv5DcHbh6ayUuWfSV1cs5YoqxKE2BOe8B8s4porKx4uJ6d8TllZs5qyBhWvUVktuKOcO8OAj8QoIbkifhRFIc4MvQ5KDM/MzKKyMDs7d+jQofve94xXvOKXXvjCFxCUlCfONTVom8juEqXw0z/9wte85jUPfOADEFEqUyskUFmk1UQ8VMjsYBGdV9aU6ThDSHL47e3w8icKFxbg95xA8FDWz372szoaoqVBymHb+A6mIHUES1Nllf9Tvqiserc/u6ura50qK03M7/ymiKSssbRTDzXYc2TeLVwRvC2m+gaXqUSnbaUQbUr12lRPmAwy72Szl2/C7bCeazFSGxsbFKG4HkCRqXdC3nnnnUtLyx/+8IfJVIVPecqTDx06hXvhM86478xMeCcw2i35ZJawYQ2BrcUx+koBaiaurUBUelUFVUY8W74pA3abtrTt8KiDC8VU57Q1Tq7yARiz5HJS+HBLSlisrq4SF/bW4M2VleV3v/sPOFrifnoHE4EgqSMwst/IT3xRvy6QRCtlJQdF//CH/7StsmZ/RY4muLUtfuom9XbPe2n/wJKYUeOFb9gsGh5mkM9ugnGEvfZRnIpw/TE1lDBUMVWgo56rHk5JCbP3tt3IhoTtEsPUGd64QRl2mT9I6yzufHEbhoxSGqbJxu8BcIizGER20U17T3J42jw7G97NpMGlQkpqcCnGVumK6JQSOqptALTtsFNCzrcHYMySaEoxiAMTEceOHWOtycyGyv7Jn/zpHXfcwSHcT8VSQumismbfG0wlKsYFEmgcJZ8E+ZnXWTtT1uynbmjIP8/aJzAmZqxXXPfaePTuYdRQJB7rJx21ksKJBJAIwWefzJmaCutLhBAxnJuLT4mBXW57mR0OHDho20WbFxa4VVpYIGyJ2/DCqhUM5e0NUnqHVDiL40wWNIXTqbnUh9SfEiiWJea2Bp+GuLPbVOmwUx0mqZjaVegGsmp3mxDm0C9/+cu6cUy+l3VCAubJT34S0VGirKTxFqoiAZxNflFZ/+RPPuzKuufxIRlVgqiarAIJIs0Cj0AMYS+J5Q7bBHJOSgkop8RTf6WjthsT9ug3fKWiCTN/COkFjtIKIc3KmFbUorVcyX8qFisyAH3VVZQTizqjQxy5ncRjBiIHuDTahDOzPiET50cIk75m3Y/7y6c85ckUwP+JNQIs+6mbpKwqzIkEEQlaQL+TsprQVlLW4udZs8oq8Q7x78o6xPioRAbjoAqGVtgMEIj7FUjRBcQbhFgMnJTY8GcmfBJWsgoEquSWTNsNIKioKTmWGc4ij+kDMd3aCl/Ppsotok++yKpdpYcNmaWcWNQZAzTcclf0D5e27Ai7hw8fQfZWVsJXSShT+sqaNaushEzudVbKkLYzAhziPFbDGxsbKKveD0GxtbX1ispafG8wCSkrXVIYqrD7cD+oZUob64Gx2TWSdnUoQcjlgrBHqkiReiJiVmuyFZJO+kooIqyWQCklmVJTdsI/CLmGpdFg7QW5XVhY4FyWqgSzqqRm6s/2qsq1OM4QguuieHgyXm1b3HvyCU/4D4cR2CNHsvqKsl588VOSshIe2fcGZ5VV4SA9RrvX19eoh1ZIs0Vl//iP/6Q7ZaWDSVnVFlggjvUEPuT42OwCtWsSFYKCDUgTgVJE5oLGKlZEoQXWsUoguo20joUvFtcNsqCuVH9qDtT6sKF+Qtx3nGbgwPITC5UQI4985COf/ewfu+9976v16/r6+qmnnnrJJU9DSi1wQnQ0VdZsONi9eFBuRNbWrAF08a/+6q87Vdb5QBNlVc91ijO07LV3C0P1hSYdjqlS6l25Ct3eVqRiB3J15s6yo2GT8ot90GClALa8vJU6GtCKFm5Fd87TY6NO7RQdeBfHSJ3B+Zmg9DlXm9g219c3NjfDU9zV1TVyvv71bz7oQRdwoxlUzu4vUTzWkU2V1SoOUC31U4ajS0tLegV3bW39H/7hHz/96U9TIBUu+nbu86xNP3VDMZ3oTl4vmBfDIl4YlhGUT6B6GtBEcJSxfbcwcMEViSfsBgykgqQKFXurOgW7Oith2SFhc0WIXiWKWMmT62BVDsqPO+3IneuMM8PpCebk4R+xAPY+g/AFZKeccsq9733vRzzi4YuLC8ikrRbCmqHpe4MVEbkLZFKmgBTR5uTtb3zj6/FYC/TeYFfWvYQP0m5SXasgiFXloKLmLOTo9ASxWiQeM1QPxCpKuxrPyRAPtCNWvZOUrzLOHiC6RYOYuxuodbyr4fDB89E0mLUPsNlb/NC2+OY+y589ePDgXPj6lP2tlFVbQAhhfX2dtAqw/mGRbAebk1VWcGXdG/g4tScEYAtiiR7oVEK6a5dWEjFrZybEXCNmGTGrPmK9RsyqFVYKMeU4zUgRFHRV72cKD3JMYE1iWcXOhG8SRV9Jz9h7/WYn7XPk5WtWgRxm3ZsirIOVLiJltZalrDs+dePKOrr4UI0kvcSYwh7ifoOYa8SsCtCTjjpTpfKOOuA43SE3w3sb+sr/SdQUlUNPbRUbZJXFK/qKsqb1aFLWplDX9vY2xylDhRRme84558zPh18+zpGUNehq/lM34est1Jaa6yjQnF1nD76haZDUtUgibmOqE3psnfGKKaN6bbkTqzMwZ+i6hwPgcY/7gWSHrEGYwT/ykT+LO07/kcMr9O65ByU7YV8XGtOhhIHOIX4qzMzGNo1a0wiiQvtUq6bM8CUSsBq+wXj54x//hN4wTA2Li4v/5t9879lnnyVlpeadn7oJH+ChmFqEYXbpPQCjhrURL+zMODJwiJ2/oWk3wbiJmDUcxD5liAd6psaqxpM0NaeEsyvIkzUKSBq79mXA4Scr0puE0TnybSUada5RPkAiSyaHwioSVsNUODc3d8B+//VpT3vqD/zA43/oh37w0kufdu6552iVUlDWLab00BWrUPWoXmeE8DEbYZqG3HCGIlOSZiWnKW6fXUGRIuNb3IRXVcMfe0uwLSkjZGaKlcUXZThdZTlRD5ZhYWH+lFMO3ec+pz/wgQ+w30ieR3T1ofP5+YWkrCyPWC0lIS9vyxlm6h+5rh5wjjsWipGYVQ2FepZ4oD/0u/4xITfQnQ66UyPJpTUogLCBBVMg5laQVUgFKG918D+8FdneFaVvawlfKcpC1t4kFV7TXWDRuhi+DU3KyiqZ1tWiqnJGFJ8ra8NC7yQxt3P6FFdddEkXkiUe6BCfJrLkrKHdMORupV2iqW9rREC7HTk/ZzXkeZ+te8ODX8QVldUHZ23NGhatbBFaFUBWpayxlq5i1hkefPD6xRAGRtsuhdkgQ8wdQezNB1Xfn7WLaO5OM7izi0Snb0EsVAEVzuqrnjazNGWpipqytTVreLWV3YmJ8LUtW43futG5qR5ndPHxG1L6NOFatEdiVoNiTtfQ+Swxd+BIYrPEA8NBtE5DX5Vw9gAKJQYUsQTWpSauLE/1N2gqoK/z8/MnToT3oFLelXWP4UPodIapQJ7cIe06rchaKZt29gxJX0lkJLahrg10z0cZSJ5A2upwRhsfRac5CvUi8fBOSg45OWSrRMy1/Jhy9gTSSI0yadPXuGZtyG14qRWkrNmznD2AD6TThBTqTu0k27qR9zxJKRnrLNLUuGNQUqi8swfwsXScgRJn053KWsxx9gZRM1uoZjzmmjpc1BOJ/RhU/6BrPWjCrU48rWdqrMopQaOWJR5w9iJRRXcSjzl7ER/dPlKMH+WImFUfcYY2YpaToR8274I4QjuJxxzH2Su4uPYdSamIWUYxp0binG3ErGbEEjuJxwaCjJAlHuiBWFGBeHi3iVYu2LmY4zjOblDPw9d+zDg+RziO4zgjSj0S1g9x9ddcO2AAK6qmiyQR94eJ4Vli9ps4BhniAcdxRp9xmciGGXtmuYN4oD7i5N0g5g6WeG07ice6Jdayk3hsiNnFUXAcZzDU/2PpU/ZDTRQGn0S6Y9i+qK8WcI+YKqWja69Yp+M4Tgk7fywdVQw/io7q+Y+lO47jOM4Q4eLq1Ab3cYmY5TiOM5b4JOg4juM4NePi2jHx6bu9NKit0xZfyzqOM1b4lOc4juM4NdMvcT3hH3YdBfT6qIhZo8Mo9tlxnDGhX9OTfwBnGJBqQtzP0Cq/Cjq3SDzcAj1LzxGPZahSVZUyjuM4u0i/Zqg9vHLVzA5KK7NeVH9TYolRo6mOQqt8x3GckcZv/8eCqMwZ4oEMrfJ3F/UKcmnHcZx+UNdjV5+nRoyctEhsWhELdUWswohZjuM4TjV83hw9ouIZMas+Yr0uqI7jOK2osLytOoemrwjW3xMn4quqJ3a+uGpvUgmcOOGvpY01UaIzxAMZWuWDDkHct5yYchzHqRv7Ivwgb2xzk0+GUIAD/FHhEqp+cT96qS/u/5tP/c/9+8MXHKcv7p8wUodCBzNwbrs+OMMOox9TBqMcU47j9Mrwz497/IOVrBCRqpmZGWY2lou2e6+tre21tVVUz9aK8ev72V1fX3/wAx901llnoYASuFZ0IK7b29uI6yf+x19MTU3Ozs5KU+lNStBSUVwhVuE4juM4u0OrW4R9aCdKibiicVNTU+zqV+DW1tZISFaFKe7av3nsv6YYqleublXFlfbCynVr64Ybb7j9jjtmZ2empqalqrYN4trQ17DhlKCrgZC0OhzHcZw9z2itdINKTU8HOWOHLSK6sbGB5K2urkpT08qV5eXa2vq//d5/I3HV+a3oQFwl5rd/+9uf/synZ2am0Xk9GQ7SOjEpeTU1jetXztLWcRzHcYYTBGx6egbVIo14bW6iiSfW19eR0qyy6tnt9NT0dz36O9v+mCtUFVeQuN7x7Tv+9lOfWliYn52dldonkqxmiSc7juM4zvCBTLFIbCxG9yFzaB2LV2lqElfyyZyfW/iuRz+67Quu0IG40kZ4Mry5+bFPfOKeE9usXNFX2pCyAspaEFfOc311HMdxhhrkSnKGzLFsRe8SKCwLV7Tv+PHVx/3bf1flmTB0IK4Q1sUsXm+//a//598uLi4grkisZDWoa9RXOumPhR3HcZzRQ6tVwS5bcvRMeHZmruKyFToTV5oJi9etrY99/OObW5smrtOS8ay+0rDgFG0dx3EcZziRjiqRSLt6Jsyy9fH/7vu1ulXhcjoTV1Azt99++1/81V/Oz8+zckVfwbTV/hsuro7jOM6okFVTUCZ6B/Z5nO252XmWrWhcRVHrWFxB72z67PXX3/y5mxcW0NfwcHh6WuvXsKFt6SuF2Voi9nVIOHHCJX88GS4/dBxneJCmNrb8O6msm5tbLFu1erSy7elGXGk76Ov29nXXXXfjzTctLIQXX2dnwwLWNDVs0uIV4mmO4ziOM5Sk1apgNynr1ub24/7dv5us8PGbLN2IK0hf4bPXX3fDjTeir3Nz4ZM5U1NTNC+itBo7u+04juOMIUOoBOHBKiKlnYZUoaz8Q+LC5nH2UiuipmMV6VJcoSHs25/57Gevv/GGhriGzeTklF57pcfaurg6juM4wwaqmgRVfxofbWXL3xM/8LjHdfQ0ONG9uIK6AKxfN9Y3PveFzyOten8TS1iT+vDarz8YdhzHcYYTk6iwfpWiarO6uvaA8+9/4SMfGZaJnSsr9CSugo7YE+Lt62+4YWMjSqzp6+TERFhKW9d96eo4juMMG/vQKKW0Wl1fX0dWL7rwQi1Yu14d1iCuEHpkq1hJ7Nbm5u3fvuOuu++mc5JYF1fHcRxnCEFTUdDTTj11c2vrEQ992FlnnWWL1UAs0RX1iKtIEpu2cNddd23t/DVQxxlfFBUNCJO//Ou/+sAHPhiPNiDUORp3Crv3uc99XnXVVWRGepsCHGdsCWvSffvOuM990vtvEVS9UUgFeqFOcU3YvGE0dpTvOGOORUNEN6Cf+Iu/eNNv/AZRHUtUAHF999VX2wxgpKdajuN0AtGjbS5RC30R1xzMIDHlOGOPCetJPvLxj7/xjW/sKKS50f6j975XmlrvdOA4Y0VfY2cQ4uo4ThGUle2f/vmf/9f/9t86CvL7nnHG+6+9Nu44jjOUuLg6zi7zpS99SQmtZZXOYqvTHer7kIc8JKYcxxlKXFwdx3Ecp2b8fYaO4ziOUzMuro7jOI5TMy6ujuM4jlMzLq6O4ziOUzMuro7jOI5TMy6ujuM4jlMzLq6O4ziOUyv3utf/H9uWrxF0S+1oAAAAAElFTkSuQmCC;" parent="1" vertex="1">
                    <mxGeometry x="90" width="222.2" height="190" as="geometry"/>
                </mxCell>
                <mxCell id="3" value="&lt;b&gt;電源ランプ&lt;/b&gt;" style="text;html=1;align=left;verticalAlign=middle;whiteSpace=wrap;rounded=0;" parent="1" vertex="1">
                    <mxGeometry x="320" y="20" width="70" height="20" as="geometry"/>
                </mxCell>
                <mxCell id="8" value="&lt;b&gt;ブートボタン&lt;/b&gt;" style="text;html=1;align=left;verticalAlign=middle;whiteSpace=wrap;rounded=0;" parent="1" vertex="1">
                    <mxGeometry x="320" y="60" width="80" height="20" as="geometry"/>
                </mxCell>
                <mxCell id="9" value="&lt;b&gt;Aボタン&lt;/b&gt;" style="text;html=1;align=left;verticalAlign=middle;whiteSpace=wrap;rounded=0;" parent="1" vertex="1">
                    <mxGeometry x="320" y="100" width="80" height="20" as="geometry"/>
                </mxCell>
                <mxCell id="10" value="&lt;b&gt;Bボタン&lt;/b&gt;" style="text;html=1;align=left;verticalAlign=middle;whiteSpace=wrap;rounded=0;" parent="1" vertex="1">
                    <mxGeometry x="320" y="120" width="80" height="20" as="geometry"/>
                </mxCell>
                <mxCell id="11" value="&lt;b&gt;ブザー&lt;/b&gt;" style="text;html=1;align=left;verticalAlign=middle;whiteSpace=wrap;rounded=0;" parent="1" vertex="1">
                    <mxGeometry x="320" y="150" width="80" height="20" as="geometry"/>
                </mxCell>
                <mxCell id="12" value="&lt;b&gt;UPボタン&lt;/b&gt;" style="text;html=1;align=right;verticalAlign=middle;whiteSpace=wrap;rounded=0;" parent="1" vertex="1">
                    <mxGeometry y="80" width="80" height="20" as="geometry"/>
                </mxCell>
                <mxCell id="13" value="&lt;b&gt;RIGHTボタン&lt;/b&gt;" style="text;html=1;align=right;verticalAlign=middle;whiteSpace=wrap;rounded=0;" parent="1" vertex="1">
                    <mxGeometry y="100" width="80" height="20" as="geometry"/>
                </mxCell>
                <mxCell id="14" value="&lt;b&gt;LEFTボタン&lt;/b&gt;" style="text;html=1;align=right;verticalAlign=middle;whiteSpace=wrap;rounded=0;" parent="1" vertex="1">
                    <mxGeometry y="145" width="80" height="20" as="geometry"/>
                </mxCell>
                <mxCell id="15" value="&lt;b&gt;DOWNボタン&lt;/b&gt;" style="text;html=1;align=right;verticalAlign=middle;whiteSpace=wrap;rounded=0;" parent="1" vertex="1">
                    <mxGeometry y="170" width="80" height="20" as="geometry"/>
                </mxCell>
                <mxCell id="16" value="&lt;b&gt;ボリューム&lt;/b&gt;" style="text;html=1;align=right;verticalAlign=middle;whiteSpace=wrap;rounded=0;" parent="1" vertex="1">
                    <mxGeometry y="40" width="80" height="20" as="geometry"/>
                </mxCell>
                <mxCell id="17" value="&lt;b&gt;電源スイッチ&lt;/b&gt;" style="text;html=1;align=left;verticalAlign=middle;whiteSpace=wrap;rounded=0;" parent="1" vertex="1">
                    <mxGeometry x="320" y="170" width="83.9" height="20" as="geometry"/>
                </mxCell>
                <mxCell id="18" value="" style="endArrow=none;html=1;" parent="1" edge="1">
                    <mxGeometry width="50" height="50" relative="1" as="geometry">
                        <mxPoint x="290" y="50" as="sourcePoint"/>
                        <mxPoint x="320" y="30" as="targetPoint"/>
                    </mxGeometry>
                </mxCell>
                <mxCell id="19" value="" style="endArrow=none;html=1;" parent="1" edge="1">
                    <mxGeometry width="50" height="50" relative="1" as="geometry">
                        <mxPoint x="270" y="60" as="sourcePoint"/>
                        <mxPoint x="320" y="70" as="targetPoint"/>
                    </mxGeometry>
                </mxCell>
                <mxCell id="21" value="" style="endArrow=none;html=1;exitX=0;exitY=0.5;exitDx=0;exitDy=0;" parent="1" source="17" edge="1">
                    <mxGeometry width="50" height="50" relative="1" as="geometry">
                        <mxPoint x="200.91" y="210" as="sourcePoint"/>
                        <mxPoint x="201" y="185" as="targetPoint"/>
                    </mxGeometry>
                </mxCell>
                <mxCell id="22" value="" style="endArrow=none;html=1;" parent="1" edge="1">
                    <mxGeometry width="50" height="50" relative="1" as="geometry">
                        <mxPoint x="270" y="115" as="sourcePoint"/>
                        <mxPoint x="320" y="110" as="targetPoint"/>
                    </mxGeometry>
                </mxCell>
                <mxCell id="23" value="" style="endArrow=none;html=1;entryX=0;entryY=0.5;entryDx=0;entryDy=0;" parent="1" target="10" edge="1">
                    <mxGeometry width="50" height="50" relative="1" as="geometry">
                        <mxPoint x="240" y="135" as="sourcePoint"/>
                        <mxPoint x="320" y="125" as="targetPoint"/>
                    </mxGeometry>
                </mxCell>
                <mxCell id="24" value="" style="endArrow=none;html=1;" parent="1" edge="1">
                    <mxGeometry width="50" height="50" relative="1" as="geometry">
                        <mxPoint x="260" y="155" as="sourcePoint"/>
                        <mxPoint x="320" y="159.81" as="targetPoint"/>
                    </mxGeometry>
                </mxCell>
                <mxCell id="25" value="" style="endArrow=none;html=1;" parent="1" edge="1">
                    <mxGeometry width="50" height="50" relative="1" as="geometry">
                        <mxPoint x="90" y="65" as="sourcePoint"/>
                        <mxPoint x="80" y="50" as="targetPoint"/>
                    </mxGeometry>
                </mxCell>
                <mxCell id="26" value="" style="endArrow=none;html=1;" parent="1" edge="1">
                    <mxGeometry width="50" height="50" relative="1" as="geometry">
                        <mxPoint x="80" y="90" as="sourcePoint"/>
                        <mxPoint x="140" y="110" as="targetPoint"/>
                    </mxGeometry>
                </mxCell>
                <mxCell id="28" value="" style="endArrow=none;html=1;" parent="1" edge="1">
                    <mxGeometry width="50" height="50" relative="1" as="geometry">
                        <mxPoint x="80" y="110" as="sourcePoint"/>
                        <mxPoint x="160.85" y="130" as="targetPoint"/>
                    </mxGeometry>
                </mxCell>
                <mxCell id="29" value="" style="endArrow=none;html=1;" parent="1" edge="1">
                    <mxGeometry width="50" height="50" relative="1" as="geometry">
                        <mxPoint x="80" y="155" as="sourcePoint"/>
                        <mxPoint x="120" y="135" as="targetPoint"/>
                    </mxGeometry>
                </mxCell>
                <mxCell id="30" value="" style="endArrow=none;html=1;" parent="1" edge="1">
                    <mxGeometry width="50" height="50" relative="1" as="geometry">
                        <mxPoint x="80" y="180" as="sourcePoint"/>
                        <mxPoint x="140" y="160" as="targetPoint"/>
                    </mxGeometry>
                </mxCell>
                <mxCell id="32" value="&lt;b&gt;OLED&lt;/b&gt;" style="text;html=1;align=right;verticalAlign=middle;whiteSpace=wrap;rounded=0;" parent="1" vertex="1">
                    <mxGeometry y="10" width="80" height="20" as="geometry"/>
                </mxCell>
                <mxCell id="33" value="" style="endArrow=none;html=1;" parent="1" edge="1">
                    <mxGeometry width="50" height="50" relative="1" as="geometry">
                        <mxPoint x="80" y="20" as="sourcePoint"/>
                        <mxPoint x="160" y="35" as="targetPoint"/>
                    </mxGeometry>
                </mxCell>
                <mxCell id="34" value="" style="shape=image;verticalLabelPosition=bottom;labelBackgroundColor=default;verticalAlign=top;aspect=fixed;imageAspect=0;image=data:image/png,iVBORw0KGgoAAAANSUhEUgAAAUsAAAIRCAIAAABMKAjFAAAAAXNSR0IArs4c6QAAAARnQU1BAACxjwv8YQUAAAAJcEhZcwAADsMAAA7DAcdvqGQAACYzSURBVHhe7d1/kCRnfd/xndnf90uF7mQ4+SRic9ixINJxQshIJCmnjC2kAmwQpMqgMpxIVVIpRyXKDsFQiqIE/xEkmbIrKVM4jokESTlI/LLBZSdCroBNXIFCd5IqFpEEd5xBOu3e3e7tj/m1k+/zfJ/u7e6Z2e2Z7Xmm59n3q/p6n/41Mzfdn/k+3TM7W2k3mxMAAlV1PwGEiIQDISPhQMjKeB7+/Peev7R86X//9V+7aexQxf0sWjG3W61UDh46eP3rjh85csTNQnHKkvCTp05954nvtG271Wq2LDuFwLXbcgy2NizZ6VcdOXL5y1725p9/s1uMnRl9wp997rknTj6xIfu53ZYd3IxI062BoEUJl6EtIZc5Mn798evPnj37nl/5FV0HAxtlwp986qnnv/892Z1TU5Otlrx+NxsNF2/l1oPsp2H1tEfPJlx7bfI6L4eD9uTMfOm6v/roUXrvOzGyhP/3z31uZW316NFXTU1Nr62trqysZhJODd8lkglXkvN2W17UzKva8vLyP7nzzh+/8sd1ZfRrNAn/3COPNFqNG2/82Vpt/fz585cuXdJQ27Fhe+uch+8K9uzM7vM44ibkUsllMDFfXV078b73XXn4SrcB+jGChD/y6KPtysQNN9wge/XixQsXLlyUHSx7VybtbrY/7f52GyBwcQ0Xkm4da8j19KRSq9Xfd8cdhw8ftuujD74T/qUvf7k6VT127JjsxUuXlhcWFnTHxjTk2nbbIGi2hhuy6228leurayWXH/V64wMn3n/o4CG7EfLynfA//upXjh8/Lq/Q0j8/d+5cvV43O9Pt2OhnxG2DoMUJj5hrrtqQRcKtNzFx9uzZB/79x90E8vGa8P/2R3/0c//o52SfSbBXV1cXFl6yO9L2ycw7JdqM55HwXUGOB93lKtGJs4eFpWvKSfmd73//gf0HdBJ5eE34nz/2P6699jrZYSsrK8vLSzLWQJs9aZiQy48o5+atUewCm71099OF3BwGNuPaXTcJv/xll//qHXfYrZCLv4R//gtfuOlNN1er1eXl5UajsbR0UcbRXjTMnrTimW5LBE32u+xxDbfG20Y8LuPyT1YxEderbh94/4n9+/fbTbE9fwn/P9/+1k++6lVra2tyBi5d9I4CvpnwmNsSQZPw2gPBiONtybFhZsqRYCIelfEbrn/9m26+2W6K7flL+Kmnnzp8+PDS0pLsPzu2r8/phAs3YRZtBPxBLsRkp0fHgqHhjqJuZshSPTZkZUn4lVde+Y9vf5dui215SviZH5yZ37u30ajXavVLl5ZrtVq8S22cZfdlEy7cxgidHgYytqFOJtyO7FI5NnTlq44cedc7b9c2tuUp4c89/9z+yy6TE+/19bWLFy/a/BqyA2Vsgy37L064+Sm71W2MwJmdbnJsZUJufrTMQaJHiK3ilbv/xV1uU2zHU8L/8NOffsttt8reunDhfL1elwRHr9qtKNUSa1nRtOM5ui3Cprtbj4co3pvZbjTM2C41B4ZebLvjPe+94hAffcnF03e8XH7wctlhspOkjLtZ1uTk5L59++bn56empqpV2XvmFVrH2FVk70fjqrZV1JZjwhww2lVfW1s1P5CDp4Q/88x3Xau71CU1LrABRfH8PW32FRiAL3wTI8YQlSI3Eg6EzHPCOcPGADhsBleKGs6lNWBI6KVj/HAanh8JB0JGwoGQ+Uw4fSvAN881nJADXtFLB0JGwoGQkXCMI0738vKccD7aAnhFDUdJ8UnHQpBwIGQkHGOI0/DcSDgQMhIOhMxzwuldoQAcRvlRw4GQ+Ut49CcrAPhDDQdCRsKBkJFwIGQkHAgZCcc44rJtXiQcCBkJB0JGwjGG6KTnVp6E89vAQPGo4UDISDgQMhIOhIyEY/xwoS0/Eg6EjIQDISPhQMhIOBAyEo5xxLW2vEg4EDJvCZcXXV53Ad+o4RhDFIvcypBwfucEGJay1HD+0CQwDCVJOPkGhoLzcIwfTsPzI+FAyEg4xgLncQMi4UDISDgQMhKOccS1trxIOBAyEg6EzF/C23SsUBSOpdyo4UDISDgQMhIOhIyEY/xwGp4fCQdCVoqE88vhwJBQw4GQkXAgZCQc44hrbXmRcCBkJBwIGQnHGKKTnhsJRxnxBmpRSDgQMhKO8UMnPT8SDoSMhAMh85lw+laAb9RwIGQkHOOI/mBeJBwIGQkHQjb6hPPpJfSNTnpu1HAgZOVKOPUcKBY1HOOHTnp+JBwIGQkHQkbCgZCRcCBkJBzjiGtteflLOH8/HPCPGo4xRLXIjYRjXPBxqEGQcCBkJBzjh056fiQcCBkJB0JGwoGQlSfhXCkFikcNxzjiWlteJBxjiIDnRsKBkJFwIGQlSTiX2YChKEnCOa9CHzhc8vOZ8K32C9+yCgwDvXQgZFxpA0JGwjGOOBPPi4QDIStVwjkbRz6U8NxKlXD2G1AwajgQMs7DMX7o7OVHwoGQkXAgZCQcCBkJxzjiTDwvEg6EjIRjDFHCc/OXcP72KODfyGs4n3IBhoheOsYP3cH8gkp4uwTcQwHKoRQJL+QrnLqma2P43D1FCPnQ8MQOokQ1fCc5l1xJ2CqViimjCW7xMLl7arfl3kW1OukWACUQQi9d0iXjVqtVq9UkY/FMna+Vdkj0juwdmkbVMK8yOgdDwzOcVzjn4ZK3Wq2+srIijWazKYGXsTb61Wg0tx10Tb19G/aNqakpybd7NBgqAp5bUEekFM+VldWlpWVpKEmfRjFDw9/LxoaENju4ZQn2lky25cf8/PzMzIzco0y6RwOUQCAJT+ZqaWlpcXFREtiQUtuUYVM9Iou24FZKs7cnG7ohMbMxNTWzZ8+e5GOQqLsWMFKh1XC1uHj+3LmXbI2V2iu9bkfnJEnsdZyki5Li+XH/XMnkrDGt9+seB4aMJzq/cBIeB0zDtri48KMfvRiVWXPmLINM6jgmy3ScpIvymJublf65RD2+a20AJRHalSGNtzp/XkL+gpyWLy/Lv6VLVtwYgNzQyooZq3379u/du9eciG+Y029Nt9yvfSBAKVTazaZrDtP9Dz7wrne/u1qtLCwsaPzsNSopfZX5+Tmpgevr69INtmmRqJjACLfxdnR9qai1Wn1tbW3VqtXWZY4sOn78elnnl37pl3Xlgb385S93rYmJG2+8UW75gx+8W+6lUqnIve/fv187BLJUFsk4ft8OW4t3tz3vMWdVXU+b7PVO98Te8gu/eM3P/Ixujq2Fdh6uY20oeQWRwU3sgHbg1aKc6J8/LzPluNSlItnGkNFRyiuoGr6+XkvWcImiLLr55ptlnT/7sz//1re+rev3S26k6/i++/7N+vqalBSZ3Ldvn9RwKT7xUmp4TvJ06e42lTpnDX/zL1xzzTW6ObYW2nl4L+azZoPSbTO34G4XKLfdkvAdiiPd2QDKbLckvNhAEu/RMp115OMz4V73i4awaxRlZl/cZulbyywCymnENXyoGckEMtMoRPJXTcg7Sqg8vfRxygfVG+Mi8PPwQqLY+0Y4HxwVnvm8Ak94gajbJULAcyPhO7LB59hGoTrJV2XlFX7C25abKBpf6oKS4wDtD311jJcwE941hzKz8HzSS0fJlSXh41Iah9fhRz/YC3mFVsMLr9IZmdvnPNw/8yJLwHPzd4BS/DAYe6l0k5uLfChBfRt2NwEoUPgJN5fXhpZJrrSNBHU8P2r4jnAejpLjAN0pQo4yC/bo9Ha2TEcdZRZUwjXV3rKtqOEoM45OjCOuteXlNeGe38v0XMzhDwHPjRoOhCzkhPv5/BNX2lBm1PDB6TU2GXM64Bmd9PxIOBCykBOeLK3DKLP8EgTKjxoOhKwMCfdxEjvsq2587sUP+/ujsivpPuXl87hkr6BvyZfmzTaHUm5UniJxXX14klFHfiEn3Ocxoe+Ky5gDEaVCDcf44UU0PxJeJHrpxaJDtHPhJ1yOEg4U7FrBJnwkqeY8vEA8k4Wgl74T2UOQXrovhD+vMiRc9lYgqaCGD0nyWeUZ7gs1vGDU8MJ1iTcZz60MCS8sErL7lZseMinYrpXg7d53JZ7bvlHDBycn3a7lUL09Iej5hZ9w6Tb77DnTSx+SuHNEL6kv1PDBde2lY6iId7/CTPgIjwMOwUJQsYviL+Hh7amO83CDXvowkPOB0UsvGMdi4brVc57kvEh4wajhQ6LxlrFpEPDcQk24j0MgvtKmB59KtoGRK0/Ch1L6yFuQ2Kn5Bd5L9/tOuGsA5cF5OMqLLtjOkXAgZIEnnCIwdmSX9dpr7M0BUMPz6nV48bdHPUg++aZN1HPzmfAQ9oocXsmjDcPGs71D1PAdoYCj5Ej44KS68OfKRoKynh8HKMaDdtfptPerLAkf04+L0EsfHsJciFIkfEjxLuoQ4VDD+KKXPggyPxKJp53nPy8Svo1eYSbko2KeeZ773HZRwuXI6DeW/a6PYWAv7ESwCc8cFvFk/sNl2zXbbS6zeSL7QneHG9uZyCPwGq4HROGGdLMQfElOscLvpZsX//4D2XWT5EzbJucou0q72XTNYbr/wQfeefs7JyenFhcXTODa7VZrY2OjJS/Yc3Pz0qjVavV6XWYJWaoNt/F2dH3ZfH29tra2tmqsyKSQRTfddJOsc8b4ga6flKwYl79MXK7tj99/vza6mp6e3rNnz7333iN3Ibcg97Jv375ms9loNGSpTMqYWpRTvLtbVrMpQ0OfTB3bn01ZYtc0z+2tt7zl2HXX6ebYWmgJX19f14TrDcrSN77xjbpaV8kcvv746yXk2r7iFa/QRldXX301CS9KvLu3Tbiso72oW2+55dh1x+zW2EZQvfRMqHaSMTnstlWpVJXckYzdltgZeWJdK03nu6XdV0EXgdRwGcstaC/ddtRNDZcX/8lJ6VBPxeuoZDup1/yu5JEfOXLkx37sCmnIQ963b6+WHH38uoKuia3J06W7W2u4PI2mkLvqbZ7Tet2M4166PLG3/uItx45Rw3MJrfJorqSmSmNmZm5+fnZqalIGybk2thhknS2GzDrS/uEP//bFF89FVdzlOW6gEF1fdvt4Jd71/CW8nwI5IJOzyNzc3IED+2atGUsa09MzMkiz66BLew2ZdXRyUfokCwtyd5pz9zgwHJr2rplHLwGePdp4z+7ff0BDKMPs7JzG0uZd5nSnS3vJrCNteRGRxsWLS0tLy/ZVxXAPAjvTK8bEu1+hXWkTkr4DBw7Mz0sXXTLo6KQOe/bMbzEk10wOmaXa3rNnj9y4nPhfvHjRPQgMgQQ7zjYh70sICdfKKb1kGUtp3bfPdM5txZUyO6uDxFEqeZ5BXg26DrZyy+J40qysdyGWl5dXV1flkejD0IeEYSHkuQVSwzVR09NTErapqWkdtGceT2rmBxZHOiO+/fX1WtPLGxO7DdV7J8LppUv5tJE2JicnpyI6Zyf0RvTWknSpiNvmPZ2WeQvQPSYUzXTWyXk/wkm4BG1ysqqDtAscZszrhhlnhuQ68V27R4OB5EwvEc8vqCNSimeSm+uFu0uqd9HizFO6BxNyzXGZ88LdJYpjuuPpVHfOwbZ8Jpx9gwElgy3tM2fOuAlsh/NGjJ9vffvbroXtkHCMnyNXXeVa2A4Jx/h54YUfuRa2Q8JROp2X05LXMrW9uLiok9gaCcd4sG9ZGDr59W98QxvYGgnHGKnor+KLJ59+ys3Dlkg4xoWJd1zLZfrhz35WF2ALJBzjQeMd13CZc+YHvCu+vVIl3J1iARmaavM1Ovb7udzciYmv/OlXXQs9lCrhfOgNXdhsyzBpY65tl/MnTp7kktvWqOEYA1q69bf3LBNyXfS/vvH1L375S9pGJ87DUWq2aG/SqFvuW32k6/fkU0994YtftG1klSfhFHB0F9VtE28xaabNLBvyin465smnn6KSd0UNR1l0/SibybRJtQm20nl2bM7M5Yddt/3EySfu/bf3fe7RR+wkHH8J5xd70RfTETcF3EXakpY7G5+a0jJuOu3asFtUnnr6acn5I59/VG8E/v6q0S+/4x3T09O9/6pR3f5VIzNXltq/csPf398V4t1t/3TR5l8mtJNyDMhyXUv+mWNDyMo6Nl+LZw8ks/2GHFQtmW9fGsz48CsOy3E1Pzd36NChn/yJn7Angu5kcPOccLuZIr04/UOYVnpKdawoj8qOOxb0nFF59dGj2hwYCceIxbu7M+H2UJflutaErCM/IrqRSbWsqRNCFtjaL0eWOUXXsm8rvH5mxpFZrhW1dZ14UvRaX8XrJ3XebGSrHmznjdv/stFoNOT/d/DygwcOHGg0mu++/Xa3IDd/vXSgL1G33P6wP6VnHl9104tt5kfqe3XNeHLSfNmusN+WKe0pXc3eiF6lSw06X2ImpCVj3Ty5vrTjIZqTInOFm7CTruVsbp5niJhHIv+j8xcuPP+975392x/c/9sP/slXv+KeoHxIOEpHM6HJtMy5t42M5llGOl/n2pa7FKc5N39x1mbbrSfMxnacbAi70C2NGpPyEGTQSaVLlZvVY+Z25H+Xf7Ab2I6MPC3SQZHJ//s3fyM5/5+PPabP1bZIOMpI02tDa2hTs2QXmSk7Q8LvSq4Jtyvj5p/O7MrcRMTeoL25zYZE19ymRDgeOsWbdOq1SObLw+wcZEmPIWbaNu3m/EQa3zn5xO/+x//gnqwtkXCUkcZMj+4OOt/1ok1oHP0b0qax80ECbvsCbpDMxkO0wuYcGZR5NPFENBlzc7fkVnXM3Qi7xDwhljw9pqTX6/Xf/89/YJ+trZBwlI49oFP0II+OdT3SzUybNDM7roe9BinsvdrxpHltsD90Mi7gOhkP8kB0SM5U9sEYmcmdi+7UPB7bbzeWlpb+8L98Wtu9lOVaurwg1WpcS9+N4t2tV8WbTTkq3CIRX0jXDqocHdqwx4++l7a5Rh5aBFWyHbMR2oqkzLV663rLeSQ3lP+TPCXytETMU2SfKvMft6uYlQ8ePPir773DTnZBwjFi8e7Wo1gm7cw4tG7SrphKeLRoc7y1ztRtkUOplq6V28CpVl03t28gOvIM6aQ8V/JMJP/HjXr9Q7/xL91EGr10lIt2jPW00/bH3aQdmx/asn8rztDOsPaK+2WvuHenN96L2z7NLcvBbZDmlvVmzwvMuYl9HsxT4Z6yiYmZ2dkXz73oJtJ8JnyLV9kdvfghGObgddnWg9j+TLAHuiNJkSFzPtzXoHeRHDIr9Bqis+JBhr42j0jLDBHzFFnueRNf+eqfulaaz4R3j7F9lCb8O+vjIASJsMUHsWvYw9oc5VrxtG0npSTmGnT9eJBeQOeQWac0g025i72hT1EiU+3zF84vLS+5qQRqOMpCD10dTKJthvVQtotSNOc74W5oIBq5wbibyEs3cdnWrfU5kYDrWOg5edcyznk4ysIer1lyTNtcbDLHeBHczQ3E3YQv9klw8daoC5tz87TpsydkiWslkHCUggt0gh7HnbpmTGf2xW1ZYvY5cM9Dx/NhnqJkvNvt9tmzZ91EAglHKdhQb9IjeAvuOI+4uWHReLtmFPWYnS/0+dNT4Pa5l87ZxiYSjtFzxyq60TjbSJvBtnW+GdsnT59F85mAeq2uEzESjpEzRyq2FWc74ia0r64X277+l39pfiSQcIyYHKJ6pKIrfZI0xlHDDPZ5s/MSLi0vu1aEhAMhI+FAyEg4EDLPCd/iY20Aiuc54R1XBgAME710IGQkHAgZ5+FAyKjhQMhIOBAyEg6EzF/Cc3wZJoCCUcOBkJFwIGQkHAgZCQdCVoqEd/4iO4BCUMOBkJFwIGQkHAgZCQdCRsKBkJFwIGQ+E84H0wHfqOFAyMqTcD71AhSPGg6EjIQDIau0m03XtH7vk590rUJ97S8e/9jH/t3MzMzi4mLbarU2NjZalUplfn5eWrVavV6vtexcWSpj4TYGditJgYRCYmHHzWbT/FN20vyUdSQx7bb5Y4WX7T9w54kTbmMrlfBTp079q498xE0U6uDBg/fc81ESDvRFUmCzPXjCU710WUtyNgzyCNx9APBohOfhvD0ODF0q4fp3x4eBN8OAkUjX8EqlOhx8xwMwEtleuqu5RXO3DsAvbwkn5MAIjPBKG4Chy15pGxU68sAwpBLO+1dAYLz10uNXD15GAH+yCdePlBbO3ToAv0g4EDJvvXT+ujAwAumEu4o7DO4eAPjkr4YD8C+VcCm0q8Ph7gCAX6mEVyuVmrWesLa2JhFdsS5Zy8vLS9bFixcvRM6fP7+4uLiwsPCS9aL1QsR+cBWAb6mEb7Tb+rURGfb7JZzMpNLVlE7q/FjiGyCIOuBP9jzcfnuS+R4lEbe1IXR+Tsn13a0D8Cub8OhXwVJtbQidr3rltnO+nUPpBkYglfA4w5157rTFCqZqRznXRmLd7q8LAIYhW8Nz0gxvK+6ou80A+JVNuAYyKTNTJ+26hs7cllsbgF/bJzwjLsvmylvHtbfkTG0rex5OzgHf0ufhuWuyhNa10knOzInb7g4A+JVKuBRZjejW4ujq5BbiddwdAPCr+5W2OJbaiGVSLZOZObF4kTbsqwcA33qeh2syM5LzdTXhptPiRTp2tw7Ar2zCbTw307uF/Gu6mwbgXfdeelcur5GuM7uSFwJdGYBn6YS7SPbNbZ4Qz9QGhRwYie1reNcAi17BVtrWmQBGJZXwOJFxRJMNZZdnuWUdSzvnAPCpj/PwzK+jbPGbJ7HMJt1sfyMABpZKeGfa8sc45uYmtk3OBOBTtobbkG7qnBOLF9ntNtvayNB1AHjWRy+9l2SGtRHP0YawC7fASwAwFKmEb2xsJL9rLW7Yr1pLsZ922dBGPCmk3e7xKTd3HwA8SiW80Wzqlx+vrKzIWL9lNR4r9w2sln4razwWjUajbkkjqdlsuPsA4FEq4VKvkzGOG5remARYxzHJcHIsZV/HCS29i3abDjngT/deepJ0vF0r6q7HjSTZVsfJRkx67nL7vDsOeJZKuJxC27R2j6tdYuikSLZFfAYujbgdkRnuXgB4k024xjET3V5skFNJjufIWG9QSVPvAoBP6YQnMtnJrZTQdb7OySzqtnUG5+dA8VIJr1QqU2mTPVQtNxFJztR2LMdb4gCKl0q4RNElOzIdcdORzjmS6riRaQvJuLsPAB6lE16pzCRotvOQMOs42RBxu1JJ3REAP7K9dFdzO0hKXcuSau9a6baIJ6URt+mlAyORSng7ukKm3NyOy2ZJ8XxtZCYTum8OYKjSCY/eD1f6KRfhprvNiW1s+RZ6R+AFVR0Yukq72XTNYbr/wQfe9va3z87OLi4u2lcSeSkxrwByfj4/P7ex0a6bT8Kuy2uBzJWl9vWBX1bBbicpsCVSx6a2aokVUcHVyMhgzrIv23/gzhMn3MaWzwtgdNQB37jEDYSsLAnXL4zQNoCieEo4HXRgJOilAyEj4UDISDgQsuz74Z/81KdcayC9rpU99vjj99137+zsXK/3wxuN+vp6rdVq2jf3eD8cMCQF9p3wwd8PTyX85KlTd919t7YlZtpQeT5YHq+T2VZcddWRj370IyQc6IukwGa7oE+8SLQaEd065uZ2zE9ya0TruAmrM/MAPNjqPNyU2oibla7PyXbGFosAeJNKuHSypdArM5mD23C79e1tbyO6MQCFSddwl0dDf7s7lpypbaGTQts6U+n8GOkFRiLbS3cB7WHbFTrpzQIYif4SbqvxINytG6nzc14BgKHqknDXitIeN4TO70u0FVEGRiB7pc2MI3YqlXmVXAqgzFIJlw60pjdJ5rtWRFd2E93oCrHOOQD8yPbSzXvfaV1nxnSrjG6R5u1xYAS2v9IWz08u1ZnCBb1DZpGdtBtsg2oPFClXDdf5yaU6s5c86wDwIJtwoSU6WahFZnJrpspbbjpvAQdQsHTCo0Idj2PUZGAcdanhSa4Wd+PW6LaOW9CtmAPwKZXwzjJtzqd7cGt0W8ctADBqPWu4K769ufXy1flurx6bqPHAkKQSLkFz0cxBf2lMuOlu4hXsbQPwLVvDNZnCTRchujV674Bv2fNwdyZdNOINjEQq4Rut1tpA1rtxy6xWi69VBEYglfBGs3l+IItpOvNCRNrNZsPdBwCPUglvtVrL27mUg1s1InPklt19APAo3Uvf2HDfftxN/B3J9Q66QoZbZm1sbHsezsV2oHjpK23ttsa4Kxfcbl+Z7hakuWWWvdgGwLc+Eq7s317oGwkHRiKV8Dwkq/m5bQCMSCrh1UplulBTkWI/QgMgp1TCK9XqTMJscapVEg6MQLqGV6sukZYLehEqlb5PBwDsXLqGT0xMDkH0yycAfEslvG3fEi+cveTGVTdgBCrtZtM1Jyb+6pvf/O1PfMJNdNP18ricvbtWpHO1jY3Wb/3Wx+bm5hcXF2RSVmiZP2zekvI+Nzcnk/V6o1Zbt3/u3Ly1pi8Nui2wa5mQGDo271brm9bCTpqfso4kRjInPeXL9h+488QJt7GVSvjwfPzBB972treScKAvJiTG4AnnAhgQsrIknCtxwDBQw4GQkXAgZP4S3u0yPIDhooYDISPhQMg8J3ybnjpX1IFiUcOBkHlOODUa8IoaDoTMZ8LlJJx3zACvqOFAyEg4EDISDoSMhAMhK1XCeS8NKBg1HAgZCQdCRsKBkJFwIGQkHAgZCQdCRsKBkGX/IsInP/Up1xpIr3e0H3v8a/fe+6/n5+cXFxdlsvMvIjQajfX1WqvVbLX4iwiAY0JiFPQ3T06eOvWhD3/YTRTqiisO/eZvfpiEA30xITEK+psnEi3dqHByy+4+euMrnIDCcR4OhCyVcCmiUuhj0oUuSu8zdABDlK7h6VS7oBfD3QMAn7K9dJfHoskt8zdPAP/8JRyAf9nz8NHhVQAoXraGAwhJKuGcKQOBydbwdtHc7QIYhaH30sk5MEJDr+FKb9uOt8cLAlCUdMKHli1CC4yEzxoOwLciE+5uAkBppBK+w4y6oHez49sGMIhsDQcQklTCK0P8XDofSgWGrrOrXJYazi+nAMOQPQ+3349WPM7DgZFIJbzVaq0Mh9yyuw8AHqUS3mw0FrazOJBGI/WdzQD86LuGXxoINRwYiVTCN9rtetEaln1LHIBv6Stt9i8TJLmvO98BvZ12mz9vAIxANuHSnU5yMe3gFue2XQnnvTJgKFIJ34L75ErEzQVQbqmEVyuVmR6md4YXBWAkUgmvVKsu0EWrVkk4MALpGr6DhM9uSW6Zq+mAf+kaPjExOSj7d5B64loaMBKphPO5dCAwlXZz8/Okf/XNb37id37HTaTtsAQ3W8377rtv7949i4uLMmnflpPgt6S8z83NSQe+2Wysr6/r+3DmD5639XUB2NVMSAwdm3zYd6uN6L1sEyTJi4SoUqkc2H/gAydOuI2tVMKH5+MPPnDbbbeRcKAvO094qpcOIDA+E86pOOCb1xrOG2aAZ/TSgZCRcCBkJBwIGQkHQkbCgZCRcCBkJBwIGQkHQkbCgZCVKuH8DjlQMGo4ELLyJJwCDhSPGg6EjIQDISPhQMhIOBAyEg6EjIQDIfOXcL7CCfCPGg6EjIQDISPhQMhKlHD+xDhQOGo4EDKfCd/qYjoFHBgGajgQMhIOhIyEAyEj4UDISDgQMhIOhIyEAyEj4UDISDgQslIknA+0AUNCDQdCRsKBkHlOeNdfPkn20emvA0WihgMhI+FAyEg4EDISDoSMhAMh85TwWq3WarU2NjavpeunXCqGGU9OTk5NTU1OVnUOgIhmJNlw4w5tCZFrRirtZtM1h+nUk0/WGrW5ublGoyGT7XZ7Y2NDIr9nz55qtSqT+kaaLF1ZWZGxLBV2U2D30piYUavVbNpRpNFwDZuVDQmRvAC86eabb7zhDW5jy1MN379/vzy6er0ujyMmr0NStOXRywuPkDmyZlTBZczAwOCqt/lpWskhttk1Pnbtda4V8ZTwv/PKV0pHXV5p3HTEznEP3WZeHo+ZlBkMDAwaho6ZZojZymh6wWJ2dlZnxvxdaVtfX5cybh6FJXO0Ib106XFo265oOhu2AUDZlKdLdybkdtgs5rHJe++5xzWH7JnvfndyalLo47CJNg2p29pXl/+DnGZITz5+IbDbAbtKsrxtJkXIubY94zbsybn5aU/AzXwZ3/iGN0hnWbeM+avhR191dG1tTR6ZeUSWzJQ8r6xcWlpakj58w1460PnAbiXHfzx0l4yITZLJlLT/4d//BzozyV/CX330qLziSIdcX29iMinBXl1dXVlZkZ68LnXbADBMUhKxNw2ZYea6+t2+6WffaBdleXq3TH3/9Olnn392ZmZG+uoyaR+fecTaUPbhyoM27EbA7hWHQU5dhdRC6ena3q6MGtIFlqae1X7o13/DbZPmr4aLV1599Q9/+CPzFp59E88E2r0ObdK8uw2A3U2zYCKxSYITn4cbMuvv/tRP6/qdvNZwcfrMmS9++UvXXHPN9PSUXjOXx6djm3at4HZEDceuZyNs2AIug5ZuM7aNuhTLffv2/fN/+s/cBh18J1ycPnP6kc8/+prXvGZmxrx3JzHPvE6RcEDF18zjhEfxNv3zWq02OzN716/9mlu7mxEkXJw+ffrh//rZY8euk5BXq5tvDyTjLdxcYLfSj6yaf+4kXJh3lMX6+vr01PTdd93lVu1hNAkX3z99+vf/4D+97nWvm52dmZqaqlbNp9lMBXcddcOtCuxWEmyNt024+dx3rbYupVsqeWWi8usf/KBbr7eRJVx97S8e/3/PPnvgwP7Z2Tk5M5c59mxcM871NoxKWY49G2yhP1vr62urqzKsXn/8+G1vudWttKURJ1xJzp/57jN79+6dmZnROZpzbQO7lu2Yu7fHpHKfP3/+ur937Tvf8Q63OIdSJFx9+qGHDh9+xcLCwrmXXpqamqxWzXvmwC7WlootHfNDBw+98MKLb3/rW1/72te6JbmVKOEZzz73nGuVyUOfefjkyVNuIp873vOea6+91k0A/dgzP3/48GE3MZDyJrycHnr44Yc+8xk3kc8d732vhNxNAH55/UwbAM9IOBAyeul9O3nypGvlxnk4RoWEAyGjlw6EjIQDISPhQMhIOBAyEg6Ea2Li/wP2UyJ2VoGoTgAAAABJRU5ErkJggg==;" parent="1" vertex="1">
                    <mxGeometry x="440" width="118.88" height="190" as="geometry"/>
                </mxCell>
                <mxCell id="35" value="&lt;b&gt;Micro USBポート&lt;/b&gt;" style="text;html=1;align=left;verticalAlign=middle;whiteSpace=wrap;rounded=0;" parent="1" vertex="1">
                    <mxGeometry x="580" y="20" width="105" height="20" as="geometry"/>
                </mxCell>
                <mxCell id="36" value="" style="endArrow=none;html=1;" parent="1" edge="1">
                    <mxGeometry width="50" height="50" relative="1" as="geometry">
                        <mxPoint x="475" y="70" as="sourcePoint"/>
                        <mxPoint x="580" y="30" as="targetPoint"/>
                    </mxGeometry>
                </mxCell>
                <mxCell id="38" value="&lt;b&gt;電池カバー&lt;/b&gt;" style="text;html=1;align=right;verticalAlign=middle;whiteSpace=wrap;rounded=0;" parent="1" vertex="1">
                    <mxGeometry x="570" y="155" width="105" height="20" as="geometry"/>
                </mxCell>
                <mxCell id="39" value="" style="endArrow=none;html=1;" parent="1" edge="1">
                    <mxGeometry width="50" height="50" relative="1" as="geometry">
                        <mxPoint x="675" y="165" as="sourcePoint"/>
                        <mxPoint x="760" y="150" as="targetPoint"/>
                    </mxGeometry>
                </mxCell>
                <mxCell id="41" value="&lt;b&gt;フルカラーLED&lt;/b&gt;" style="text;html=1;align=left;verticalAlign=middle;whiteSpace=wrap;rounded=0;" parent="1" vertex="1">
                    <mxGeometry x="320" y="80" width="90" height="20" as="geometry"/>
                </mxCell>
                <mxCell id="42" value="" style="endArrow=none;html=1;" parent="1" edge="1">
                    <mxGeometry width="50" height="50" relative="1" as="geometry">
                        <mxPoint x="200" y="115" as="sourcePoint"/>
                        <mxPoint x="320" y="90" as="targetPoint"/>
                    </mxGeometry>
                </mxCell>
                <mxCell id="43" value="&lt;b&gt;不揮発性領域&lt;/b&gt;" style="text;html=1;align=right;verticalAlign=middle;whiteSpace=wrap;rounded=0;" parent="1" vertex="1">
                    <mxGeometry x="570" y="65" width="105" height="20" as="geometry"/>
                </mxCell>
                <mxCell id="44" value="" style="endArrow=none;html=1;" parent="1" edge="1">
                    <mxGeometry width="50" height="50" relative="1" as="geometry">
                        <mxPoint x="675" y="75" as="sourcePoint"/>
                        <mxPoint x="735" y="45" as="targetPoint"/>
                    </mxGeometry>
                </mxCell>
            </root>
        </mxGraphModel>
    </diagram>
</mxfile>